G04 #@! TF.GenerationSoftware,KiCad,Pcbnew,(5.1.2-1)-1*
G04 #@! TF.CreationDate,2021-04-09T14:29:59+02:00*
G04 #@! TF.ProjectId,Faraway_PCB,46617261-7761-4795-9f50-43422e6b6963,rev?*
G04 #@! TF.SameCoordinates,Original*
G04 #@! TF.FileFunction,Copper,L2,Bot*
G04 #@! TF.FilePolarity,Positive*
%FSLAX46Y46*%
G04 Gerber Fmt 4.6, Leading zero omitted, Abs format (unit mm)*
G04 Created by KiCad (PCBNEW (5.1.2-1)-1) date 2021-04-09 14:29:59*
%MOMM*%
%LPD*%
G04 APERTURE LIST*
%ADD10R,1.700000X1.700000*%
%ADD11O,1.700000X1.700000*%
%ADD12C,1.400000*%
%ADD13O,1.400000X1.400000*%
%ADD14O,1.500000X1.050000*%
%ADD15R,1.500000X1.050000*%
%ADD16C,0.250000*%
%ADD17C,0.254000*%
G04 APERTURE END LIST*
D10*
X104140000Y-48260000D03*
D11*
X104140000Y-50800000D03*
D10*
X104140000Y-68580000D03*
D11*
X104140000Y-71120000D03*
D10*
X109220000Y-55880000D03*
D11*
X109220000Y-58420000D03*
X109220000Y-60960000D03*
X109220000Y-63500000D03*
X109220000Y-66040000D03*
X109220000Y-68580000D03*
X109220000Y-71120000D03*
X109220000Y-73660000D03*
X109220000Y-76200000D03*
X109220000Y-78740000D03*
X109220000Y-81280000D03*
X109220000Y-83820000D03*
X109220000Y-86360000D03*
X109220000Y-88900000D03*
X109220000Y-91440000D03*
X134620000Y-91440000D03*
X134620000Y-88900000D03*
X134620000Y-86360000D03*
X134620000Y-83820000D03*
X134620000Y-81280000D03*
X134620000Y-78740000D03*
X134620000Y-76200000D03*
X134620000Y-73660000D03*
X134620000Y-71120000D03*
X134620000Y-68580000D03*
X134620000Y-66040000D03*
X134620000Y-63500000D03*
X134620000Y-60960000D03*
X134620000Y-58420000D03*
D10*
X134620000Y-55880000D03*
D12*
X104140000Y-91440000D03*
D13*
X104140000Y-83820000D03*
D10*
X115570000Y-101600000D03*
D11*
X118110000Y-101600000D03*
X120650000Y-101600000D03*
X123190000Y-101600000D03*
X125730000Y-101600000D03*
X128270000Y-101600000D03*
X104140000Y-60960000D03*
D10*
X104140000Y-58420000D03*
X114300000Y-76200000D03*
D11*
X114300000Y-78740000D03*
X114300000Y-81280000D03*
D10*
X139700000Y-71120000D03*
D11*
X139700000Y-73660000D03*
X139700000Y-76200000D03*
X139700000Y-78740000D03*
X139700000Y-93980000D03*
X139700000Y-91440000D03*
X139700000Y-88900000D03*
D10*
X139700000Y-86360000D03*
D14*
X104140000Y-77470000D03*
X104140000Y-76200000D03*
D15*
X104140000Y-78740000D03*
D16*
X137160000Y-78740000D02*
X139700000Y-76200000D01*
X134620000Y-78740000D02*
X137160000Y-78740000D01*
X134620000Y-78740000D02*
X137160000Y-81280000D01*
X137160000Y-88900000D02*
X139700000Y-91440000D01*
X137160000Y-81280000D02*
X137160000Y-88900000D01*
D17*
G36*
X144095001Y-103455000D02*
G01*
X99745000Y-103455000D01*
X99745000Y-102450000D01*
X114081928Y-102450000D01*
X114094188Y-102574482D01*
X114130498Y-102694180D01*
X114189463Y-102804494D01*
X114268815Y-102901185D01*
X114365506Y-102980537D01*
X114475820Y-103039502D01*
X114595518Y-103075812D01*
X114720000Y-103088072D01*
X115284250Y-103085000D01*
X115443000Y-102926250D01*
X115443000Y-101727000D01*
X114243750Y-101727000D01*
X114085000Y-101885750D01*
X114081928Y-102450000D01*
X99745000Y-102450000D01*
X99745000Y-100750000D01*
X114081928Y-100750000D01*
X114085000Y-101314250D01*
X114243750Y-101473000D01*
X115443000Y-101473000D01*
X115443000Y-100273750D01*
X115697000Y-100273750D01*
X115697000Y-101473000D01*
X115717000Y-101473000D01*
X115717000Y-101727000D01*
X115697000Y-101727000D01*
X115697000Y-102926250D01*
X115855750Y-103085000D01*
X116420000Y-103088072D01*
X116544482Y-103075812D01*
X116664180Y-103039502D01*
X116774494Y-102980537D01*
X116871185Y-102901185D01*
X116950537Y-102804494D01*
X117009502Y-102694180D01*
X117030393Y-102625313D01*
X117054866Y-102655134D01*
X117280986Y-102840706D01*
X117538966Y-102978599D01*
X117818889Y-103063513D01*
X118037050Y-103085000D01*
X118182950Y-103085000D01*
X118401111Y-103063513D01*
X118681034Y-102978599D01*
X118939014Y-102840706D01*
X119165134Y-102655134D01*
X119350706Y-102429014D01*
X119380000Y-102374209D01*
X119409294Y-102429014D01*
X119594866Y-102655134D01*
X119820986Y-102840706D01*
X120078966Y-102978599D01*
X120358889Y-103063513D01*
X120577050Y-103085000D01*
X120722950Y-103085000D01*
X120941111Y-103063513D01*
X121221034Y-102978599D01*
X121479014Y-102840706D01*
X121705134Y-102655134D01*
X121890706Y-102429014D01*
X121920000Y-102374209D01*
X121949294Y-102429014D01*
X122134866Y-102655134D01*
X122360986Y-102840706D01*
X122618966Y-102978599D01*
X122898889Y-103063513D01*
X123117050Y-103085000D01*
X123262950Y-103085000D01*
X123481111Y-103063513D01*
X123761034Y-102978599D01*
X124019014Y-102840706D01*
X124245134Y-102655134D01*
X124430706Y-102429014D01*
X124460000Y-102374209D01*
X124489294Y-102429014D01*
X124674866Y-102655134D01*
X124900986Y-102840706D01*
X125158966Y-102978599D01*
X125438889Y-103063513D01*
X125657050Y-103085000D01*
X125802950Y-103085000D01*
X126021111Y-103063513D01*
X126301034Y-102978599D01*
X126559014Y-102840706D01*
X126785134Y-102655134D01*
X126970706Y-102429014D01*
X127000000Y-102374209D01*
X127029294Y-102429014D01*
X127214866Y-102655134D01*
X127440986Y-102840706D01*
X127698966Y-102978599D01*
X127978889Y-103063513D01*
X128197050Y-103085000D01*
X128342950Y-103085000D01*
X128561111Y-103063513D01*
X128841034Y-102978599D01*
X129099014Y-102840706D01*
X129325134Y-102655134D01*
X129510706Y-102429014D01*
X129648599Y-102171034D01*
X129733513Y-101891111D01*
X129762185Y-101600000D01*
X129733513Y-101308889D01*
X129648599Y-101028966D01*
X129510706Y-100770986D01*
X129325134Y-100544866D01*
X129099014Y-100359294D01*
X128841034Y-100221401D01*
X128561111Y-100136487D01*
X128342950Y-100115000D01*
X128197050Y-100115000D01*
X127978889Y-100136487D01*
X127698966Y-100221401D01*
X127440986Y-100359294D01*
X127214866Y-100544866D01*
X127029294Y-100770986D01*
X127000000Y-100825791D01*
X126970706Y-100770986D01*
X126785134Y-100544866D01*
X126559014Y-100359294D01*
X126301034Y-100221401D01*
X126021111Y-100136487D01*
X125802950Y-100115000D01*
X125657050Y-100115000D01*
X125438889Y-100136487D01*
X125158966Y-100221401D01*
X124900986Y-100359294D01*
X124674866Y-100544866D01*
X124489294Y-100770986D01*
X124460000Y-100825791D01*
X124430706Y-100770986D01*
X124245134Y-100544866D01*
X124019014Y-100359294D01*
X123761034Y-100221401D01*
X123481111Y-100136487D01*
X123262950Y-100115000D01*
X123117050Y-100115000D01*
X122898889Y-100136487D01*
X122618966Y-100221401D01*
X122360986Y-100359294D01*
X122134866Y-100544866D01*
X121949294Y-100770986D01*
X121920000Y-100825791D01*
X121890706Y-100770986D01*
X121705134Y-100544866D01*
X121479014Y-100359294D01*
X121221034Y-100221401D01*
X120941111Y-100136487D01*
X120722950Y-100115000D01*
X120577050Y-100115000D01*
X120358889Y-100136487D01*
X120078966Y-100221401D01*
X119820986Y-100359294D01*
X119594866Y-100544866D01*
X119409294Y-100770986D01*
X119380000Y-100825791D01*
X119350706Y-100770986D01*
X119165134Y-100544866D01*
X118939014Y-100359294D01*
X118681034Y-100221401D01*
X118401111Y-100136487D01*
X118182950Y-100115000D01*
X118037050Y-100115000D01*
X117818889Y-100136487D01*
X117538966Y-100221401D01*
X117280986Y-100359294D01*
X117054866Y-100544866D01*
X117030393Y-100574687D01*
X117009502Y-100505820D01*
X116950537Y-100395506D01*
X116871185Y-100298815D01*
X116774494Y-100219463D01*
X116664180Y-100160498D01*
X116544482Y-100124188D01*
X116420000Y-100111928D01*
X115855750Y-100115000D01*
X115697000Y-100273750D01*
X115443000Y-100273750D01*
X115284250Y-100115000D01*
X114720000Y-100111928D01*
X114595518Y-100124188D01*
X114475820Y-100160498D01*
X114365506Y-100219463D01*
X114268815Y-100298815D01*
X114189463Y-100395506D01*
X114130498Y-100505820D01*
X114094188Y-100625518D01*
X114081928Y-100750000D01*
X99745000Y-100750000D01*
X99745000Y-91308514D01*
X102805000Y-91308514D01*
X102805000Y-91571486D01*
X102856304Y-91829405D01*
X102956939Y-92072359D01*
X103103038Y-92291013D01*
X103288987Y-92476962D01*
X103507641Y-92623061D01*
X103750595Y-92723696D01*
X104008514Y-92775000D01*
X104271486Y-92775000D01*
X104529405Y-92723696D01*
X104772359Y-92623061D01*
X104991013Y-92476962D01*
X105176962Y-92291013D01*
X105323061Y-92072359D01*
X105423696Y-91829405D01*
X105475000Y-91571486D01*
X105475000Y-91308514D01*
X105423696Y-91050595D01*
X105323061Y-90807641D01*
X105176962Y-90588987D01*
X104991013Y-90403038D01*
X104772359Y-90256939D01*
X104529405Y-90156304D01*
X104271486Y-90105000D01*
X104008514Y-90105000D01*
X103750595Y-90156304D01*
X103507641Y-90256939D01*
X103288987Y-90403038D01*
X103103038Y-90588987D01*
X102956939Y-90807641D01*
X102856304Y-91050595D01*
X102805000Y-91308514D01*
X99745000Y-91308514D01*
X99745000Y-83820000D01*
X102798541Y-83820000D01*
X102824317Y-84081706D01*
X102900653Y-84333354D01*
X103024618Y-84565275D01*
X103191445Y-84768555D01*
X103394725Y-84935382D01*
X103626646Y-85059347D01*
X103878294Y-85135683D01*
X104074421Y-85155000D01*
X104205579Y-85155000D01*
X104401706Y-85135683D01*
X104653354Y-85059347D01*
X104885275Y-84935382D01*
X105088555Y-84768555D01*
X105255382Y-84565275D01*
X105379347Y-84333354D01*
X105455683Y-84081706D01*
X105481459Y-83820000D01*
X105455683Y-83558294D01*
X105379347Y-83306646D01*
X105255382Y-83074725D01*
X105088555Y-82871445D01*
X104885275Y-82704618D01*
X104653354Y-82580653D01*
X104401706Y-82504317D01*
X104205579Y-82485000D01*
X104074421Y-82485000D01*
X103878294Y-82504317D01*
X103626646Y-82580653D01*
X103394725Y-82704618D01*
X103191445Y-82871445D01*
X103024618Y-83074725D01*
X102900653Y-83306646D01*
X102824317Y-83558294D01*
X102798541Y-83820000D01*
X99745000Y-83820000D01*
X99745000Y-76200000D01*
X102749388Y-76200000D01*
X102771785Y-76427400D01*
X102838115Y-76646060D01*
X102939105Y-76835000D01*
X102838115Y-77023940D01*
X102771785Y-77242600D01*
X102749388Y-77470000D01*
X102771785Y-77697400D01*
X102835093Y-77906098D01*
X102800498Y-77970820D01*
X102764188Y-78090518D01*
X102751928Y-78215000D01*
X102751928Y-79265000D01*
X102764188Y-79389482D01*
X102800498Y-79509180D01*
X102859463Y-79619494D01*
X102938815Y-79716185D01*
X103035506Y-79795537D01*
X103145820Y-79854502D01*
X103265518Y-79890812D01*
X103390000Y-79903072D01*
X104890000Y-79903072D01*
X105014482Y-79890812D01*
X105134180Y-79854502D01*
X105244494Y-79795537D01*
X105341185Y-79716185D01*
X105420537Y-79619494D01*
X105479502Y-79509180D01*
X105515812Y-79389482D01*
X105528072Y-79265000D01*
X105528072Y-78215000D01*
X105515812Y-78090518D01*
X105479502Y-77970820D01*
X105444907Y-77906098D01*
X105508215Y-77697400D01*
X105530612Y-77470000D01*
X105508215Y-77242600D01*
X105441885Y-77023940D01*
X105340895Y-76835000D01*
X105441885Y-76646060D01*
X105508215Y-76427400D01*
X105530612Y-76200000D01*
X105508215Y-75972600D01*
X105441885Y-75753940D01*
X105334171Y-75552421D01*
X105189212Y-75375788D01*
X105012579Y-75230829D01*
X104811060Y-75123115D01*
X104592400Y-75056785D01*
X104421979Y-75040000D01*
X103858021Y-75040000D01*
X103687600Y-75056785D01*
X103468940Y-75123115D01*
X103267421Y-75230829D01*
X103090788Y-75375788D01*
X102945829Y-75552421D01*
X102838115Y-75753940D01*
X102771785Y-75972600D01*
X102749388Y-76200000D01*
X99745000Y-76200000D01*
X99745000Y-71120000D01*
X102647815Y-71120000D01*
X102676487Y-71411111D01*
X102761401Y-71691034D01*
X102899294Y-71949014D01*
X103084866Y-72175134D01*
X103310986Y-72360706D01*
X103568966Y-72498599D01*
X103848889Y-72583513D01*
X104067050Y-72605000D01*
X104212950Y-72605000D01*
X104431111Y-72583513D01*
X104711034Y-72498599D01*
X104969014Y-72360706D01*
X105195134Y-72175134D01*
X105380706Y-71949014D01*
X105518599Y-71691034D01*
X105603513Y-71411111D01*
X105632185Y-71120000D01*
X105603513Y-70828889D01*
X105518599Y-70548966D01*
X105380706Y-70290986D01*
X105195134Y-70064866D01*
X105165313Y-70040393D01*
X105234180Y-70019502D01*
X105344494Y-69960537D01*
X105441185Y-69881185D01*
X105520537Y-69784494D01*
X105579502Y-69674180D01*
X105615812Y-69554482D01*
X105628072Y-69430000D01*
X105625000Y-68865750D01*
X105466250Y-68707000D01*
X104267000Y-68707000D01*
X104267000Y-68727000D01*
X104013000Y-68727000D01*
X104013000Y-68707000D01*
X102813750Y-68707000D01*
X102655000Y-68865750D01*
X102651928Y-69430000D01*
X102664188Y-69554482D01*
X102700498Y-69674180D01*
X102759463Y-69784494D01*
X102838815Y-69881185D01*
X102935506Y-69960537D01*
X103045820Y-70019502D01*
X103114687Y-70040393D01*
X103084866Y-70064866D01*
X102899294Y-70290986D01*
X102761401Y-70548966D01*
X102676487Y-70828889D01*
X102647815Y-71120000D01*
X99745000Y-71120000D01*
X99745000Y-67730000D01*
X102651928Y-67730000D01*
X102655000Y-68294250D01*
X102813750Y-68453000D01*
X104013000Y-68453000D01*
X104013000Y-67253750D01*
X104267000Y-67253750D01*
X104267000Y-68453000D01*
X105466250Y-68453000D01*
X105625000Y-68294250D01*
X105628072Y-67730000D01*
X105615812Y-67605518D01*
X105579502Y-67485820D01*
X105520537Y-67375506D01*
X105441185Y-67278815D01*
X105344494Y-67199463D01*
X105234180Y-67140498D01*
X105114482Y-67104188D01*
X104990000Y-67091928D01*
X104425750Y-67095000D01*
X104267000Y-67253750D01*
X104013000Y-67253750D01*
X103854250Y-67095000D01*
X103290000Y-67091928D01*
X103165518Y-67104188D01*
X103045820Y-67140498D01*
X102935506Y-67199463D01*
X102838815Y-67278815D01*
X102759463Y-67375506D01*
X102700498Y-67485820D01*
X102664188Y-67605518D01*
X102651928Y-67730000D01*
X99745000Y-67730000D01*
X99745000Y-60960000D01*
X102647815Y-60960000D01*
X102676487Y-61251111D01*
X102761401Y-61531034D01*
X102899294Y-61789014D01*
X103084866Y-62015134D01*
X103310986Y-62200706D01*
X103568966Y-62338599D01*
X103848889Y-62423513D01*
X104067050Y-62445000D01*
X104212950Y-62445000D01*
X104431111Y-62423513D01*
X104711034Y-62338599D01*
X104969014Y-62200706D01*
X105195134Y-62015134D01*
X105380706Y-61789014D01*
X105518599Y-61531034D01*
X105603513Y-61251111D01*
X105632185Y-60960000D01*
X105603513Y-60668889D01*
X105518599Y-60388966D01*
X105380706Y-60130986D01*
X105195134Y-59904866D01*
X105165313Y-59880393D01*
X105234180Y-59859502D01*
X105344494Y-59800537D01*
X105441185Y-59721185D01*
X105520537Y-59624494D01*
X105579502Y-59514180D01*
X105615812Y-59394482D01*
X105628072Y-59270000D01*
X105628072Y-58420000D01*
X107727815Y-58420000D01*
X107756487Y-58711111D01*
X107841401Y-58991034D01*
X107979294Y-59249014D01*
X108164866Y-59475134D01*
X108390986Y-59660706D01*
X108445791Y-59690000D01*
X108390986Y-59719294D01*
X108164866Y-59904866D01*
X107979294Y-60130986D01*
X107841401Y-60388966D01*
X107756487Y-60668889D01*
X107727815Y-60960000D01*
X107756487Y-61251111D01*
X107841401Y-61531034D01*
X107979294Y-61789014D01*
X108164866Y-62015134D01*
X108390986Y-62200706D01*
X108445791Y-62230000D01*
X108390986Y-62259294D01*
X108164866Y-62444866D01*
X107979294Y-62670986D01*
X107841401Y-62928966D01*
X107756487Y-63208889D01*
X107727815Y-63500000D01*
X107756487Y-63791111D01*
X107841401Y-64071034D01*
X107979294Y-64329014D01*
X108164866Y-64555134D01*
X108390986Y-64740706D01*
X108445791Y-64770000D01*
X108390986Y-64799294D01*
X108164866Y-64984866D01*
X107979294Y-65210986D01*
X107841401Y-65468966D01*
X107756487Y-65748889D01*
X107727815Y-66040000D01*
X107756487Y-66331111D01*
X107841401Y-66611034D01*
X107979294Y-66869014D01*
X108164866Y-67095134D01*
X108390986Y-67280706D01*
X108445791Y-67310000D01*
X108390986Y-67339294D01*
X108164866Y-67524866D01*
X107979294Y-67750986D01*
X107841401Y-68008966D01*
X107756487Y-68288889D01*
X107727815Y-68580000D01*
X107756487Y-68871111D01*
X107841401Y-69151034D01*
X107979294Y-69409014D01*
X108164866Y-69635134D01*
X108390986Y-69820706D01*
X108445791Y-69850000D01*
X108390986Y-69879294D01*
X108164866Y-70064866D01*
X107979294Y-70290986D01*
X107841401Y-70548966D01*
X107756487Y-70828889D01*
X107727815Y-71120000D01*
X107756487Y-71411111D01*
X107841401Y-71691034D01*
X107979294Y-71949014D01*
X108164866Y-72175134D01*
X108390986Y-72360706D01*
X108445791Y-72390000D01*
X108390986Y-72419294D01*
X108164866Y-72604866D01*
X107979294Y-72830986D01*
X107841401Y-73088966D01*
X107756487Y-73368889D01*
X107727815Y-73660000D01*
X107756487Y-73951111D01*
X107841401Y-74231034D01*
X107979294Y-74489014D01*
X108164866Y-74715134D01*
X108390986Y-74900706D01*
X108445791Y-74930000D01*
X108390986Y-74959294D01*
X108164866Y-75144866D01*
X107979294Y-75370986D01*
X107841401Y-75628966D01*
X107756487Y-75908889D01*
X107727815Y-76200000D01*
X107756487Y-76491111D01*
X107841401Y-76771034D01*
X107979294Y-77029014D01*
X108164866Y-77255134D01*
X108390986Y-77440706D01*
X108445791Y-77470000D01*
X108390986Y-77499294D01*
X108164866Y-77684866D01*
X107979294Y-77910986D01*
X107841401Y-78168966D01*
X107756487Y-78448889D01*
X107727815Y-78740000D01*
X107756487Y-79031111D01*
X107841401Y-79311034D01*
X107979294Y-79569014D01*
X108164866Y-79795134D01*
X108390986Y-79980706D01*
X108445791Y-80010000D01*
X108390986Y-80039294D01*
X108164866Y-80224866D01*
X107979294Y-80450986D01*
X107841401Y-80708966D01*
X107756487Y-80988889D01*
X107727815Y-81280000D01*
X107756487Y-81571111D01*
X107841401Y-81851034D01*
X107979294Y-82109014D01*
X108164866Y-82335134D01*
X108390986Y-82520706D01*
X108445791Y-82550000D01*
X108390986Y-82579294D01*
X108164866Y-82764866D01*
X107979294Y-82990986D01*
X107841401Y-83248966D01*
X107756487Y-83528889D01*
X107727815Y-83820000D01*
X107756487Y-84111111D01*
X107841401Y-84391034D01*
X107979294Y-84649014D01*
X108164866Y-84875134D01*
X108390986Y-85060706D01*
X108445791Y-85090000D01*
X108390986Y-85119294D01*
X108164866Y-85304866D01*
X107979294Y-85530986D01*
X107841401Y-85788966D01*
X107756487Y-86068889D01*
X107727815Y-86360000D01*
X107756487Y-86651111D01*
X107841401Y-86931034D01*
X107979294Y-87189014D01*
X108164866Y-87415134D01*
X108390986Y-87600706D01*
X108445791Y-87630000D01*
X108390986Y-87659294D01*
X108164866Y-87844866D01*
X107979294Y-88070986D01*
X107841401Y-88328966D01*
X107756487Y-88608889D01*
X107727815Y-88900000D01*
X107756487Y-89191111D01*
X107841401Y-89471034D01*
X107979294Y-89729014D01*
X108164866Y-89955134D01*
X108390986Y-90140706D01*
X108445791Y-90170000D01*
X108390986Y-90199294D01*
X108164866Y-90384866D01*
X107979294Y-90610986D01*
X107841401Y-90868966D01*
X107756487Y-91148889D01*
X107727815Y-91440000D01*
X107756487Y-91731111D01*
X107841401Y-92011034D01*
X107979294Y-92269014D01*
X108164866Y-92495134D01*
X108390986Y-92680706D01*
X108648966Y-92818599D01*
X108928889Y-92903513D01*
X109147050Y-92925000D01*
X109292950Y-92925000D01*
X109511111Y-92903513D01*
X109791034Y-92818599D01*
X110049014Y-92680706D01*
X110275134Y-92495134D01*
X110460706Y-92269014D01*
X110598599Y-92011034D01*
X110683513Y-91731111D01*
X110712185Y-91440000D01*
X110683513Y-91148889D01*
X110598599Y-90868966D01*
X110460706Y-90610986D01*
X110275134Y-90384866D01*
X110049014Y-90199294D01*
X109994209Y-90170000D01*
X110049014Y-90140706D01*
X110275134Y-89955134D01*
X110460706Y-89729014D01*
X110598599Y-89471034D01*
X110683513Y-89191111D01*
X110712185Y-88900000D01*
X110683513Y-88608889D01*
X110598599Y-88328966D01*
X110460706Y-88070986D01*
X110275134Y-87844866D01*
X110049014Y-87659294D01*
X109994209Y-87630000D01*
X110049014Y-87600706D01*
X110275134Y-87415134D01*
X110460706Y-87189014D01*
X110598599Y-86931034D01*
X110683513Y-86651111D01*
X110712185Y-86360000D01*
X110683513Y-86068889D01*
X110598599Y-85788966D01*
X110460706Y-85530986D01*
X110275134Y-85304866D01*
X110049014Y-85119294D01*
X109994209Y-85090000D01*
X110049014Y-85060706D01*
X110275134Y-84875134D01*
X110460706Y-84649014D01*
X110598599Y-84391034D01*
X110683513Y-84111111D01*
X110712185Y-83820000D01*
X110683513Y-83528889D01*
X110598599Y-83248966D01*
X110460706Y-82990986D01*
X110275134Y-82764866D01*
X110049014Y-82579294D01*
X109994209Y-82550000D01*
X110049014Y-82520706D01*
X110275134Y-82335134D01*
X110460706Y-82109014D01*
X110598599Y-81851034D01*
X110683513Y-81571111D01*
X110712185Y-81280000D01*
X110683513Y-80988889D01*
X110598599Y-80708966D01*
X110460706Y-80450986D01*
X110275134Y-80224866D01*
X110049014Y-80039294D01*
X109994209Y-80010000D01*
X110049014Y-79980706D01*
X110275134Y-79795134D01*
X110460706Y-79569014D01*
X110598599Y-79311034D01*
X110683513Y-79031111D01*
X110712185Y-78740000D01*
X112807815Y-78740000D01*
X112836487Y-79031111D01*
X112921401Y-79311034D01*
X113059294Y-79569014D01*
X113244866Y-79795134D01*
X113470986Y-79980706D01*
X113525791Y-80010000D01*
X113470986Y-80039294D01*
X113244866Y-80224866D01*
X113059294Y-80450986D01*
X112921401Y-80708966D01*
X112836487Y-80988889D01*
X112807815Y-81280000D01*
X112836487Y-81571111D01*
X112921401Y-81851034D01*
X113059294Y-82109014D01*
X113244866Y-82335134D01*
X113470986Y-82520706D01*
X113728966Y-82658599D01*
X114008889Y-82743513D01*
X114227050Y-82765000D01*
X114372950Y-82765000D01*
X114591111Y-82743513D01*
X114871034Y-82658599D01*
X115129014Y-82520706D01*
X115355134Y-82335134D01*
X115540706Y-82109014D01*
X115678599Y-81851034D01*
X115763513Y-81571111D01*
X115792185Y-81280000D01*
X115763513Y-80988889D01*
X115678599Y-80708966D01*
X115540706Y-80450986D01*
X115355134Y-80224866D01*
X115129014Y-80039294D01*
X115074209Y-80010000D01*
X115129014Y-79980706D01*
X115355134Y-79795134D01*
X115540706Y-79569014D01*
X115678599Y-79311034D01*
X115763513Y-79031111D01*
X115792185Y-78740000D01*
X115763513Y-78448889D01*
X115678599Y-78168966D01*
X115540706Y-77910986D01*
X115355134Y-77684866D01*
X115325313Y-77660393D01*
X115394180Y-77639502D01*
X115504494Y-77580537D01*
X115601185Y-77501185D01*
X115680537Y-77404494D01*
X115739502Y-77294180D01*
X115775812Y-77174482D01*
X115788072Y-77050000D01*
X115788072Y-75350000D01*
X115775812Y-75225518D01*
X115739502Y-75105820D01*
X115680537Y-74995506D01*
X115601185Y-74898815D01*
X115504494Y-74819463D01*
X115394180Y-74760498D01*
X115274482Y-74724188D01*
X115150000Y-74711928D01*
X113450000Y-74711928D01*
X113325518Y-74724188D01*
X113205820Y-74760498D01*
X113095506Y-74819463D01*
X112998815Y-74898815D01*
X112919463Y-74995506D01*
X112860498Y-75105820D01*
X112824188Y-75225518D01*
X112811928Y-75350000D01*
X112811928Y-77050000D01*
X112824188Y-77174482D01*
X112860498Y-77294180D01*
X112919463Y-77404494D01*
X112998815Y-77501185D01*
X113095506Y-77580537D01*
X113205820Y-77639502D01*
X113274687Y-77660393D01*
X113244866Y-77684866D01*
X113059294Y-77910986D01*
X112921401Y-78168966D01*
X112836487Y-78448889D01*
X112807815Y-78740000D01*
X110712185Y-78740000D01*
X110683513Y-78448889D01*
X110598599Y-78168966D01*
X110460706Y-77910986D01*
X110275134Y-77684866D01*
X110049014Y-77499294D01*
X109994209Y-77470000D01*
X110049014Y-77440706D01*
X110275134Y-77255134D01*
X110460706Y-77029014D01*
X110598599Y-76771034D01*
X110683513Y-76491111D01*
X110712185Y-76200000D01*
X110683513Y-75908889D01*
X110598599Y-75628966D01*
X110460706Y-75370986D01*
X110275134Y-75144866D01*
X110049014Y-74959294D01*
X109994209Y-74930000D01*
X110049014Y-74900706D01*
X110275134Y-74715134D01*
X110460706Y-74489014D01*
X110598599Y-74231034D01*
X110683513Y-73951111D01*
X110712185Y-73660000D01*
X110683513Y-73368889D01*
X110598599Y-73088966D01*
X110460706Y-72830986D01*
X110275134Y-72604866D01*
X110049014Y-72419294D01*
X109994209Y-72390000D01*
X110049014Y-72360706D01*
X110275134Y-72175134D01*
X110460706Y-71949014D01*
X110598599Y-71691034D01*
X110683513Y-71411111D01*
X110712185Y-71120000D01*
X110683513Y-70828889D01*
X110598599Y-70548966D01*
X110460706Y-70290986D01*
X110275134Y-70064866D01*
X110049014Y-69879294D01*
X109994209Y-69850000D01*
X110049014Y-69820706D01*
X110275134Y-69635134D01*
X110460706Y-69409014D01*
X110598599Y-69151034D01*
X110683513Y-68871111D01*
X110712185Y-68580000D01*
X110683513Y-68288889D01*
X110598599Y-68008966D01*
X110460706Y-67750986D01*
X110275134Y-67524866D01*
X110049014Y-67339294D01*
X109994209Y-67310000D01*
X110049014Y-67280706D01*
X110275134Y-67095134D01*
X110460706Y-66869014D01*
X110598599Y-66611034D01*
X110683513Y-66331111D01*
X110712185Y-66040000D01*
X110683513Y-65748889D01*
X110598599Y-65468966D01*
X110460706Y-65210986D01*
X110275134Y-64984866D01*
X110049014Y-64799294D01*
X109994209Y-64770000D01*
X110049014Y-64740706D01*
X110275134Y-64555134D01*
X110460706Y-64329014D01*
X110598599Y-64071034D01*
X110683513Y-63791111D01*
X110712185Y-63500000D01*
X110683513Y-63208889D01*
X110598599Y-62928966D01*
X110460706Y-62670986D01*
X110275134Y-62444866D01*
X110049014Y-62259294D01*
X109994209Y-62230000D01*
X110049014Y-62200706D01*
X110275134Y-62015134D01*
X110460706Y-61789014D01*
X110598599Y-61531034D01*
X110683513Y-61251111D01*
X110712185Y-60960000D01*
X110683513Y-60668889D01*
X110598599Y-60388966D01*
X110460706Y-60130986D01*
X110275134Y-59904866D01*
X110049014Y-59719294D01*
X109994209Y-59690000D01*
X110049014Y-59660706D01*
X110275134Y-59475134D01*
X110460706Y-59249014D01*
X110598599Y-58991034D01*
X110683513Y-58711111D01*
X110712185Y-58420000D01*
X133127815Y-58420000D01*
X133156487Y-58711111D01*
X133241401Y-58991034D01*
X133379294Y-59249014D01*
X133564866Y-59475134D01*
X133790986Y-59660706D01*
X133845791Y-59690000D01*
X133790986Y-59719294D01*
X133564866Y-59904866D01*
X133379294Y-60130986D01*
X133241401Y-60388966D01*
X133156487Y-60668889D01*
X133127815Y-60960000D01*
X133156487Y-61251111D01*
X133241401Y-61531034D01*
X133379294Y-61789014D01*
X133564866Y-62015134D01*
X133790986Y-62200706D01*
X133845791Y-62230000D01*
X133790986Y-62259294D01*
X133564866Y-62444866D01*
X133379294Y-62670986D01*
X133241401Y-62928966D01*
X133156487Y-63208889D01*
X133127815Y-63500000D01*
X133156487Y-63791111D01*
X133241401Y-64071034D01*
X133379294Y-64329014D01*
X133564866Y-64555134D01*
X133790986Y-64740706D01*
X133845791Y-64770000D01*
X133790986Y-64799294D01*
X133564866Y-64984866D01*
X133379294Y-65210986D01*
X133241401Y-65468966D01*
X133156487Y-65748889D01*
X133127815Y-66040000D01*
X133156487Y-66331111D01*
X133241401Y-66611034D01*
X133379294Y-66869014D01*
X133564866Y-67095134D01*
X133790986Y-67280706D01*
X133845791Y-67310000D01*
X133790986Y-67339294D01*
X133564866Y-67524866D01*
X133379294Y-67750986D01*
X133241401Y-68008966D01*
X133156487Y-68288889D01*
X133127815Y-68580000D01*
X133156487Y-68871111D01*
X133241401Y-69151034D01*
X133379294Y-69409014D01*
X133564866Y-69635134D01*
X133790986Y-69820706D01*
X133845791Y-69850000D01*
X133790986Y-69879294D01*
X133564866Y-70064866D01*
X133379294Y-70290986D01*
X133241401Y-70548966D01*
X133156487Y-70828889D01*
X133127815Y-71120000D01*
X133156487Y-71411111D01*
X133241401Y-71691034D01*
X133379294Y-71949014D01*
X133564866Y-72175134D01*
X133790986Y-72360706D01*
X133845791Y-72390000D01*
X133790986Y-72419294D01*
X133564866Y-72604866D01*
X133379294Y-72830986D01*
X133241401Y-73088966D01*
X133156487Y-73368889D01*
X133127815Y-73660000D01*
X133156487Y-73951111D01*
X133241401Y-74231034D01*
X133379294Y-74489014D01*
X133564866Y-74715134D01*
X133790986Y-74900706D01*
X133845791Y-74930000D01*
X133790986Y-74959294D01*
X133564866Y-75144866D01*
X133379294Y-75370986D01*
X133241401Y-75628966D01*
X133156487Y-75908889D01*
X133127815Y-76200000D01*
X133156487Y-76491111D01*
X133241401Y-76771034D01*
X133379294Y-77029014D01*
X133564866Y-77255134D01*
X133790986Y-77440706D01*
X133845791Y-77470000D01*
X133790986Y-77499294D01*
X133564866Y-77684866D01*
X133379294Y-77910986D01*
X133241401Y-78168966D01*
X133156487Y-78448889D01*
X133127815Y-78740000D01*
X133156487Y-79031111D01*
X133241401Y-79311034D01*
X133379294Y-79569014D01*
X133564866Y-79795134D01*
X133790986Y-79980706D01*
X133845791Y-80010000D01*
X133790986Y-80039294D01*
X133564866Y-80224866D01*
X133379294Y-80450986D01*
X133241401Y-80708966D01*
X133156487Y-80988889D01*
X133127815Y-81280000D01*
X133156487Y-81571111D01*
X133241401Y-81851034D01*
X133379294Y-82109014D01*
X133564866Y-82335134D01*
X133790986Y-82520706D01*
X133845791Y-82550000D01*
X133790986Y-82579294D01*
X133564866Y-82764866D01*
X133379294Y-82990986D01*
X133241401Y-83248966D01*
X133156487Y-83528889D01*
X133127815Y-83820000D01*
X133156487Y-84111111D01*
X133241401Y-84391034D01*
X133379294Y-84649014D01*
X133564866Y-84875134D01*
X133790986Y-85060706D01*
X133845791Y-85090000D01*
X133790986Y-85119294D01*
X133564866Y-85304866D01*
X133379294Y-85530986D01*
X133241401Y-85788966D01*
X133156487Y-86068889D01*
X133127815Y-86360000D01*
X133156487Y-86651111D01*
X133241401Y-86931034D01*
X133379294Y-87189014D01*
X133564866Y-87415134D01*
X133790986Y-87600706D01*
X133845791Y-87630000D01*
X133790986Y-87659294D01*
X133564866Y-87844866D01*
X133379294Y-88070986D01*
X133241401Y-88328966D01*
X133156487Y-88608889D01*
X133127815Y-88900000D01*
X133156487Y-89191111D01*
X133241401Y-89471034D01*
X133379294Y-89729014D01*
X133564866Y-89955134D01*
X133790986Y-90140706D01*
X133845791Y-90170000D01*
X133790986Y-90199294D01*
X133564866Y-90384866D01*
X133379294Y-90610986D01*
X133241401Y-90868966D01*
X133156487Y-91148889D01*
X133127815Y-91440000D01*
X133156487Y-91731111D01*
X133241401Y-92011034D01*
X133379294Y-92269014D01*
X133564866Y-92495134D01*
X133790986Y-92680706D01*
X134048966Y-92818599D01*
X134328889Y-92903513D01*
X134547050Y-92925000D01*
X134692950Y-92925000D01*
X134911111Y-92903513D01*
X135191034Y-92818599D01*
X135449014Y-92680706D01*
X135675134Y-92495134D01*
X135860706Y-92269014D01*
X135998599Y-92011034D01*
X136083513Y-91731111D01*
X136112185Y-91440000D01*
X136083513Y-91148889D01*
X135998599Y-90868966D01*
X135860706Y-90610986D01*
X135675134Y-90384866D01*
X135449014Y-90199294D01*
X135394209Y-90170000D01*
X135449014Y-90140706D01*
X135675134Y-89955134D01*
X135860706Y-89729014D01*
X135998599Y-89471034D01*
X136083513Y-89191111D01*
X136112185Y-88900000D01*
X136083513Y-88608889D01*
X135998599Y-88328966D01*
X135860706Y-88070986D01*
X135675134Y-87844866D01*
X135449014Y-87659294D01*
X135394209Y-87630000D01*
X135449014Y-87600706D01*
X135675134Y-87415134D01*
X135860706Y-87189014D01*
X135998599Y-86931034D01*
X136083513Y-86651111D01*
X136112185Y-86360000D01*
X136083513Y-86068889D01*
X135998599Y-85788966D01*
X135860706Y-85530986D01*
X135675134Y-85304866D01*
X135449014Y-85119294D01*
X135394209Y-85090000D01*
X135449014Y-85060706D01*
X135675134Y-84875134D01*
X135860706Y-84649014D01*
X135998599Y-84391034D01*
X136083513Y-84111111D01*
X136112185Y-83820000D01*
X136083513Y-83528889D01*
X135998599Y-83248966D01*
X135860706Y-82990986D01*
X135675134Y-82764866D01*
X135449014Y-82579294D01*
X135394209Y-82550000D01*
X135449014Y-82520706D01*
X135675134Y-82335134D01*
X135860706Y-82109014D01*
X135998599Y-81851034D01*
X136083513Y-81571111D01*
X136109765Y-81304568D01*
X136400000Y-81594803D01*
X136400001Y-88862668D01*
X136396324Y-88900000D01*
X136410998Y-89048985D01*
X136454454Y-89192246D01*
X136525026Y-89324276D01*
X136596201Y-89411002D01*
X136620000Y-89440001D01*
X136648998Y-89463799D01*
X138259203Y-91074005D01*
X138236487Y-91148889D01*
X138207815Y-91440000D01*
X138236487Y-91731111D01*
X138321401Y-92011034D01*
X138459294Y-92269014D01*
X138644866Y-92495134D01*
X138870986Y-92680706D01*
X138925791Y-92710000D01*
X138870986Y-92739294D01*
X138644866Y-92924866D01*
X138459294Y-93150986D01*
X138321401Y-93408966D01*
X138236487Y-93688889D01*
X138207815Y-93980000D01*
X138236487Y-94271111D01*
X138321401Y-94551034D01*
X138459294Y-94809014D01*
X138644866Y-95035134D01*
X138870986Y-95220706D01*
X139128966Y-95358599D01*
X139408889Y-95443513D01*
X139627050Y-95465000D01*
X139772950Y-95465000D01*
X139991111Y-95443513D01*
X140271034Y-95358599D01*
X140529014Y-95220706D01*
X140755134Y-95035134D01*
X140940706Y-94809014D01*
X141078599Y-94551034D01*
X141163513Y-94271111D01*
X141192185Y-93980000D01*
X141163513Y-93688889D01*
X141078599Y-93408966D01*
X140940706Y-93150986D01*
X140755134Y-92924866D01*
X140529014Y-92739294D01*
X140474209Y-92710000D01*
X140529014Y-92680706D01*
X140755134Y-92495134D01*
X140940706Y-92269014D01*
X141078599Y-92011034D01*
X141163513Y-91731111D01*
X141192185Y-91440000D01*
X141163513Y-91148889D01*
X141078599Y-90868966D01*
X140940706Y-90610986D01*
X140755134Y-90384866D01*
X140529014Y-90199294D01*
X140474209Y-90170000D01*
X140529014Y-90140706D01*
X140755134Y-89955134D01*
X140940706Y-89729014D01*
X141078599Y-89471034D01*
X141163513Y-89191111D01*
X141192185Y-88900000D01*
X141163513Y-88608889D01*
X141078599Y-88328966D01*
X140940706Y-88070986D01*
X140755134Y-87844866D01*
X140725313Y-87820393D01*
X140794180Y-87799502D01*
X140904494Y-87740537D01*
X141001185Y-87661185D01*
X141080537Y-87564494D01*
X141139502Y-87454180D01*
X141175812Y-87334482D01*
X141188072Y-87210000D01*
X141185000Y-86645750D01*
X141026250Y-86487000D01*
X139827000Y-86487000D01*
X139827000Y-86507000D01*
X139573000Y-86507000D01*
X139573000Y-86487000D01*
X138373750Y-86487000D01*
X138215000Y-86645750D01*
X138211928Y-87210000D01*
X138224188Y-87334482D01*
X138260498Y-87454180D01*
X138319463Y-87564494D01*
X138398815Y-87661185D01*
X138495506Y-87740537D01*
X138605820Y-87799502D01*
X138674687Y-87820393D01*
X138644866Y-87844866D01*
X138459294Y-88070986D01*
X138321401Y-88328966D01*
X138236487Y-88608889D01*
X138210235Y-88875433D01*
X137920000Y-88585199D01*
X137920000Y-85510000D01*
X138211928Y-85510000D01*
X138215000Y-86074250D01*
X138373750Y-86233000D01*
X139573000Y-86233000D01*
X139573000Y-85033750D01*
X139827000Y-85033750D01*
X139827000Y-86233000D01*
X141026250Y-86233000D01*
X141185000Y-86074250D01*
X141188072Y-85510000D01*
X141175812Y-85385518D01*
X141139502Y-85265820D01*
X141080537Y-85155506D01*
X141001185Y-85058815D01*
X140904494Y-84979463D01*
X140794180Y-84920498D01*
X140674482Y-84884188D01*
X140550000Y-84871928D01*
X139985750Y-84875000D01*
X139827000Y-85033750D01*
X139573000Y-85033750D01*
X139414250Y-84875000D01*
X138850000Y-84871928D01*
X138725518Y-84884188D01*
X138605820Y-84920498D01*
X138495506Y-84979463D01*
X138398815Y-85058815D01*
X138319463Y-85155506D01*
X138260498Y-85265820D01*
X138224188Y-85385518D01*
X138211928Y-85510000D01*
X137920000Y-85510000D01*
X137920000Y-81317322D01*
X137923676Y-81279999D01*
X137920000Y-81242676D01*
X137920000Y-81242667D01*
X137909003Y-81131014D01*
X137865546Y-80987753D01*
X137794974Y-80855724D01*
X137781811Y-80839685D01*
X137723799Y-80768996D01*
X137723795Y-80768992D01*
X137700001Y-80739999D01*
X137671009Y-80716206D01*
X136454802Y-79500000D01*
X137122678Y-79500000D01*
X137160000Y-79503676D01*
X137197322Y-79500000D01*
X137197333Y-79500000D01*
X137308986Y-79489003D01*
X137452247Y-79445546D01*
X137584276Y-79374974D01*
X137700001Y-79280001D01*
X137723804Y-79250997D01*
X138210235Y-78764567D01*
X138236487Y-79031111D01*
X138321401Y-79311034D01*
X138459294Y-79569014D01*
X138644866Y-79795134D01*
X138870986Y-79980706D01*
X139128966Y-80118599D01*
X139408889Y-80203513D01*
X139627050Y-80225000D01*
X139772950Y-80225000D01*
X139991111Y-80203513D01*
X140271034Y-80118599D01*
X140529014Y-79980706D01*
X140755134Y-79795134D01*
X140940706Y-79569014D01*
X141078599Y-79311034D01*
X141163513Y-79031111D01*
X141192185Y-78740000D01*
X141163513Y-78448889D01*
X141078599Y-78168966D01*
X140940706Y-77910986D01*
X140755134Y-77684866D01*
X140529014Y-77499294D01*
X140474209Y-77470000D01*
X140529014Y-77440706D01*
X140755134Y-77255134D01*
X140940706Y-77029014D01*
X141078599Y-76771034D01*
X141163513Y-76491111D01*
X141192185Y-76200000D01*
X141163513Y-75908889D01*
X141078599Y-75628966D01*
X140940706Y-75370986D01*
X140755134Y-75144866D01*
X140529014Y-74959294D01*
X140474209Y-74930000D01*
X140529014Y-74900706D01*
X140755134Y-74715134D01*
X140940706Y-74489014D01*
X141078599Y-74231034D01*
X141163513Y-73951111D01*
X141192185Y-73660000D01*
X141163513Y-73368889D01*
X141078599Y-73088966D01*
X140940706Y-72830986D01*
X140755134Y-72604866D01*
X140725313Y-72580393D01*
X140794180Y-72559502D01*
X140904494Y-72500537D01*
X141001185Y-72421185D01*
X141080537Y-72324494D01*
X141139502Y-72214180D01*
X141175812Y-72094482D01*
X141188072Y-71970000D01*
X141185000Y-71405750D01*
X141026250Y-71247000D01*
X139827000Y-71247000D01*
X139827000Y-71267000D01*
X139573000Y-71267000D01*
X139573000Y-71247000D01*
X138373750Y-71247000D01*
X138215000Y-71405750D01*
X138211928Y-71970000D01*
X138224188Y-72094482D01*
X138260498Y-72214180D01*
X138319463Y-72324494D01*
X138398815Y-72421185D01*
X138495506Y-72500537D01*
X138605820Y-72559502D01*
X138674687Y-72580393D01*
X138644866Y-72604866D01*
X138459294Y-72830986D01*
X138321401Y-73088966D01*
X138236487Y-73368889D01*
X138207815Y-73660000D01*
X138236487Y-73951111D01*
X138321401Y-74231034D01*
X138459294Y-74489014D01*
X138644866Y-74715134D01*
X138870986Y-74900706D01*
X138925791Y-74930000D01*
X138870986Y-74959294D01*
X138644866Y-75144866D01*
X138459294Y-75370986D01*
X138321401Y-75628966D01*
X138236487Y-75908889D01*
X138207815Y-76200000D01*
X138236487Y-76491111D01*
X138259203Y-76565995D01*
X136845199Y-77980000D01*
X135897595Y-77980000D01*
X135860706Y-77910986D01*
X135675134Y-77684866D01*
X135449014Y-77499294D01*
X135394209Y-77470000D01*
X135449014Y-77440706D01*
X135675134Y-77255134D01*
X135860706Y-77029014D01*
X135998599Y-76771034D01*
X136083513Y-76491111D01*
X136112185Y-76200000D01*
X136083513Y-75908889D01*
X135998599Y-75628966D01*
X135860706Y-75370986D01*
X135675134Y-75144866D01*
X135449014Y-74959294D01*
X135394209Y-74930000D01*
X135449014Y-74900706D01*
X135675134Y-74715134D01*
X135860706Y-74489014D01*
X135998599Y-74231034D01*
X136083513Y-73951111D01*
X136112185Y-73660000D01*
X136083513Y-73368889D01*
X135998599Y-73088966D01*
X135860706Y-72830986D01*
X135675134Y-72604866D01*
X135449014Y-72419294D01*
X135394209Y-72390000D01*
X135449014Y-72360706D01*
X135675134Y-72175134D01*
X135860706Y-71949014D01*
X135998599Y-71691034D01*
X136083513Y-71411111D01*
X136112185Y-71120000D01*
X136083513Y-70828889D01*
X135998599Y-70548966D01*
X135860706Y-70290986D01*
X135843484Y-70270000D01*
X138211928Y-70270000D01*
X138215000Y-70834250D01*
X138373750Y-70993000D01*
X139573000Y-70993000D01*
X139573000Y-69793750D01*
X139827000Y-69793750D01*
X139827000Y-70993000D01*
X141026250Y-70993000D01*
X141185000Y-70834250D01*
X141188072Y-70270000D01*
X141175812Y-70145518D01*
X141139502Y-70025820D01*
X141080537Y-69915506D01*
X141001185Y-69818815D01*
X140904494Y-69739463D01*
X140794180Y-69680498D01*
X140674482Y-69644188D01*
X140550000Y-69631928D01*
X139985750Y-69635000D01*
X139827000Y-69793750D01*
X139573000Y-69793750D01*
X139414250Y-69635000D01*
X138850000Y-69631928D01*
X138725518Y-69644188D01*
X138605820Y-69680498D01*
X138495506Y-69739463D01*
X138398815Y-69818815D01*
X138319463Y-69915506D01*
X138260498Y-70025820D01*
X138224188Y-70145518D01*
X138211928Y-70270000D01*
X135843484Y-70270000D01*
X135675134Y-70064866D01*
X135449014Y-69879294D01*
X135394209Y-69850000D01*
X135449014Y-69820706D01*
X135675134Y-69635134D01*
X135860706Y-69409014D01*
X135998599Y-69151034D01*
X136083513Y-68871111D01*
X136112185Y-68580000D01*
X136083513Y-68288889D01*
X135998599Y-68008966D01*
X135860706Y-67750986D01*
X135675134Y-67524866D01*
X135449014Y-67339294D01*
X135394209Y-67310000D01*
X135449014Y-67280706D01*
X135675134Y-67095134D01*
X135860706Y-66869014D01*
X135998599Y-66611034D01*
X136083513Y-66331111D01*
X136112185Y-66040000D01*
X136083513Y-65748889D01*
X135998599Y-65468966D01*
X135860706Y-65210986D01*
X135675134Y-64984866D01*
X135449014Y-64799294D01*
X135394209Y-64770000D01*
X135449014Y-64740706D01*
X135675134Y-64555134D01*
X135860706Y-64329014D01*
X135998599Y-64071034D01*
X136083513Y-63791111D01*
X136112185Y-63500000D01*
X136083513Y-63208889D01*
X135998599Y-62928966D01*
X135860706Y-62670986D01*
X135675134Y-62444866D01*
X135449014Y-62259294D01*
X135394209Y-62230000D01*
X135449014Y-62200706D01*
X135675134Y-62015134D01*
X135860706Y-61789014D01*
X135998599Y-61531034D01*
X136083513Y-61251111D01*
X136112185Y-60960000D01*
X136083513Y-60668889D01*
X135998599Y-60388966D01*
X135860706Y-60130986D01*
X135675134Y-59904866D01*
X135449014Y-59719294D01*
X135394209Y-59690000D01*
X135449014Y-59660706D01*
X135675134Y-59475134D01*
X135860706Y-59249014D01*
X135998599Y-58991034D01*
X136083513Y-58711111D01*
X136112185Y-58420000D01*
X136083513Y-58128889D01*
X135998599Y-57848966D01*
X135860706Y-57590986D01*
X135675134Y-57364866D01*
X135645313Y-57340393D01*
X135714180Y-57319502D01*
X135824494Y-57260537D01*
X135921185Y-57181185D01*
X136000537Y-57084494D01*
X136059502Y-56974180D01*
X136095812Y-56854482D01*
X136108072Y-56730000D01*
X136105000Y-56165750D01*
X135946250Y-56007000D01*
X134747000Y-56007000D01*
X134747000Y-56027000D01*
X134493000Y-56027000D01*
X134493000Y-56007000D01*
X133293750Y-56007000D01*
X133135000Y-56165750D01*
X133131928Y-56730000D01*
X133144188Y-56854482D01*
X133180498Y-56974180D01*
X133239463Y-57084494D01*
X133318815Y-57181185D01*
X133415506Y-57260537D01*
X133525820Y-57319502D01*
X133594687Y-57340393D01*
X133564866Y-57364866D01*
X133379294Y-57590986D01*
X133241401Y-57848966D01*
X133156487Y-58128889D01*
X133127815Y-58420000D01*
X110712185Y-58420000D01*
X110683513Y-58128889D01*
X110598599Y-57848966D01*
X110460706Y-57590986D01*
X110275134Y-57364866D01*
X110245313Y-57340393D01*
X110314180Y-57319502D01*
X110424494Y-57260537D01*
X110521185Y-57181185D01*
X110600537Y-57084494D01*
X110659502Y-56974180D01*
X110695812Y-56854482D01*
X110708072Y-56730000D01*
X110708072Y-55030000D01*
X133131928Y-55030000D01*
X133135000Y-55594250D01*
X133293750Y-55753000D01*
X134493000Y-55753000D01*
X134493000Y-54553750D01*
X134747000Y-54553750D01*
X134747000Y-55753000D01*
X135946250Y-55753000D01*
X136105000Y-55594250D01*
X136108072Y-55030000D01*
X136095812Y-54905518D01*
X136059502Y-54785820D01*
X136000537Y-54675506D01*
X135921185Y-54578815D01*
X135824494Y-54499463D01*
X135714180Y-54440498D01*
X135594482Y-54404188D01*
X135470000Y-54391928D01*
X134905750Y-54395000D01*
X134747000Y-54553750D01*
X134493000Y-54553750D01*
X134334250Y-54395000D01*
X133770000Y-54391928D01*
X133645518Y-54404188D01*
X133525820Y-54440498D01*
X133415506Y-54499463D01*
X133318815Y-54578815D01*
X133239463Y-54675506D01*
X133180498Y-54785820D01*
X133144188Y-54905518D01*
X133131928Y-55030000D01*
X110708072Y-55030000D01*
X110695812Y-54905518D01*
X110659502Y-54785820D01*
X110600537Y-54675506D01*
X110521185Y-54578815D01*
X110424494Y-54499463D01*
X110314180Y-54440498D01*
X110194482Y-54404188D01*
X110070000Y-54391928D01*
X108370000Y-54391928D01*
X108245518Y-54404188D01*
X108125820Y-54440498D01*
X108015506Y-54499463D01*
X107918815Y-54578815D01*
X107839463Y-54675506D01*
X107780498Y-54785820D01*
X107744188Y-54905518D01*
X107731928Y-55030000D01*
X107731928Y-56730000D01*
X107744188Y-56854482D01*
X107780498Y-56974180D01*
X107839463Y-57084494D01*
X107918815Y-57181185D01*
X108015506Y-57260537D01*
X108125820Y-57319502D01*
X108194687Y-57340393D01*
X108164866Y-57364866D01*
X107979294Y-57590986D01*
X107841401Y-57848966D01*
X107756487Y-58128889D01*
X107727815Y-58420000D01*
X105628072Y-58420000D01*
X105628072Y-57570000D01*
X105615812Y-57445518D01*
X105579502Y-57325820D01*
X105520537Y-57215506D01*
X105441185Y-57118815D01*
X105344494Y-57039463D01*
X105234180Y-56980498D01*
X105114482Y-56944188D01*
X104990000Y-56931928D01*
X103290000Y-56931928D01*
X103165518Y-56944188D01*
X103045820Y-56980498D01*
X102935506Y-57039463D01*
X102838815Y-57118815D01*
X102759463Y-57215506D01*
X102700498Y-57325820D01*
X102664188Y-57445518D01*
X102651928Y-57570000D01*
X102651928Y-59270000D01*
X102664188Y-59394482D01*
X102700498Y-59514180D01*
X102759463Y-59624494D01*
X102838815Y-59721185D01*
X102935506Y-59800537D01*
X103045820Y-59859502D01*
X103114687Y-59880393D01*
X103084866Y-59904866D01*
X102899294Y-60130986D01*
X102761401Y-60388966D01*
X102676487Y-60668889D01*
X102647815Y-60960000D01*
X99745000Y-60960000D01*
X99745000Y-50800000D01*
X102647815Y-50800000D01*
X102676487Y-51091111D01*
X102761401Y-51371034D01*
X102899294Y-51629014D01*
X103084866Y-51855134D01*
X103310986Y-52040706D01*
X103568966Y-52178599D01*
X103848889Y-52263513D01*
X104067050Y-52285000D01*
X104212950Y-52285000D01*
X104431111Y-52263513D01*
X104711034Y-52178599D01*
X104969014Y-52040706D01*
X105195134Y-51855134D01*
X105380706Y-51629014D01*
X105518599Y-51371034D01*
X105603513Y-51091111D01*
X105632185Y-50800000D01*
X105603513Y-50508889D01*
X105518599Y-50228966D01*
X105380706Y-49970986D01*
X105195134Y-49744866D01*
X105165313Y-49720393D01*
X105234180Y-49699502D01*
X105344494Y-49640537D01*
X105441185Y-49561185D01*
X105520537Y-49464494D01*
X105579502Y-49354180D01*
X105615812Y-49234482D01*
X105628072Y-49110000D01*
X105625000Y-48545750D01*
X105466250Y-48387000D01*
X104267000Y-48387000D01*
X104267000Y-48407000D01*
X104013000Y-48407000D01*
X104013000Y-48387000D01*
X102813750Y-48387000D01*
X102655000Y-48545750D01*
X102651928Y-49110000D01*
X102664188Y-49234482D01*
X102700498Y-49354180D01*
X102759463Y-49464494D01*
X102838815Y-49561185D01*
X102935506Y-49640537D01*
X103045820Y-49699502D01*
X103114687Y-49720393D01*
X103084866Y-49744866D01*
X102899294Y-49970986D01*
X102761401Y-50228966D01*
X102676487Y-50508889D01*
X102647815Y-50800000D01*
X99745000Y-50800000D01*
X99745000Y-47410000D01*
X102651928Y-47410000D01*
X102655000Y-47974250D01*
X102813750Y-48133000D01*
X104013000Y-48133000D01*
X104013000Y-46933750D01*
X104267000Y-46933750D01*
X104267000Y-48133000D01*
X105466250Y-48133000D01*
X105625000Y-47974250D01*
X105628072Y-47410000D01*
X105615812Y-47285518D01*
X105579502Y-47165820D01*
X105520537Y-47055506D01*
X105441185Y-46958815D01*
X105344494Y-46879463D01*
X105234180Y-46820498D01*
X105114482Y-46784188D01*
X104990000Y-46771928D01*
X104425750Y-46775000D01*
X104267000Y-46933750D01*
X104013000Y-46933750D01*
X103854250Y-46775000D01*
X103290000Y-46771928D01*
X103165518Y-46784188D01*
X103045820Y-46820498D01*
X102935506Y-46879463D01*
X102838815Y-46958815D01*
X102759463Y-47055506D01*
X102700498Y-47165820D01*
X102664188Y-47285518D01*
X102651928Y-47410000D01*
X99745000Y-47410000D01*
X99745000Y-46405000D01*
X144095000Y-46405000D01*
X144095001Y-103455000D01*
X144095001Y-103455000D01*
G37*
X144095001Y-103455000D02*
X99745000Y-103455000D01*
X99745000Y-102450000D01*
X114081928Y-102450000D01*
X114094188Y-102574482D01*
X114130498Y-102694180D01*
X114189463Y-102804494D01*
X114268815Y-102901185D01*
X114365506Y-102980537D01*
X114475820Y-103039502D01*
X114595518Y-103075812D01*
X114720000Y-103088072D01*
X115284250Y-103085000D01*
X115443000Y-102926250D01*
X115443000Y-101727000D01*
X114243750Y-101727000D01*
X114085000Y-101885750D01*
X114081928Y-102450000D01*
X99745000Y-102450000D01*
X99745000Y-100750000D01*
X114081928Y-100750000D01*
X114085000Y-101314250D01*
X114243750Y-101473000D01*
X115443000Y-101473000D01*
X115443000Y-100273750D01*
X115697000Y-100273750D01*
X115697000Y-101473000D01*
X115717000Y-101473000D01*
X115717000Y-101727000D01*
X115697000Y-101727000D01*
X115697000Y-102926250D01*
X115855750Y-103085000D01*
X116420000Y-103088072D01*
X116544482Y-103075812D01*
X116664180Y-103039502D01*
X116774494Y-102980537D01*
X116871185Y-102901185D01*
X116950537Y-102804494D01*
X117009502Y-102694180D01*
X117030393Y-102625313D01*
X117054866Y-102655134D01*
X117280986Y-102840706D01*
X117538966Y-102978599D01*
X117818889Y-103063513D01*
X118037050Y-103085000D01*
X118182950Y-103085000D01*
X118401111Y-103063513D01*
X118681034Y-102978599D01*
X118939014Y-102840706D01*
X119165134Y-102655134D01*
X119350706Y-102429014D01*
X119380000Y-102374209D01*
X119409294Y-102429014D01*
X119594866Y-102655134D01*
X119820986Y-102840706D01*
X120078966Y-102978599D01*
X120358889Y-103063513D01*
X120577050Y-103085000D01*
X120722950Y-103085000D01*
X120941111Y-103063513D01*
X121221034Y-102978599D01*
X121479014Y-102840706D01*
X121705134Y-102655134D01*
X121890706Y-102429014D01*
X121920000Y-102374209D01*
X121949294Y-102429014D01*
X122134866Y-102655134D01*
X122360986Y-102840706D01*
X122618966Y-102978599D01*
X122898889Y-103063513D01*
X123117050Y-103085000D01*
X123262950Y-103085000D01*
X123481111Y-103063513D01*
X123761034Y-102978599D01*
X124019014Y-102840706D01*
X124245134Y-102655134D01*
X124430706Y-102429014D01*
X124460000Y-102374209D01*
X124489294Y-102429014D01*
X124674866Y-102655134D01*
X124900986Y-102840706D01*
X125158966Y-102978599D01*
X125438889Y-103063513D01*
X125657050Y-103085000D01*
X125802950Y-103085000D01*
X126021111Y-103063513D01*
X126301034Y-102978599D01*
X126559014Y-102840706D01*
X126785134Y-102655134D01*
X126970706Y-102429014D01*
X127000000Y-102374209D01*
X127029294Y-102429014D01*
X127214866Y-102655134D01*
X127440986Y-102840706D01*
X127698966Y-102978599D01*
X127978889Y-103063513D01*
X128197050Y-103085000D01*
X128342950Y-103085000D01*
X128561111Y-103063513D01*
X128841034Y-102978599D01*
X129099014Y-102840706D01*
X129325134Y-102655134D01*
X129510706Y-102429014D01*
X129648599Y-102171034D01*
X129733513Y-101891111D01*
X129762185Y-101600000D01*
X129733513Y-101308889D01*
X129648599Y-101028966D01*
X129510706Y-100770986D01*
X129325134Y-100544866D01*
X129099014Y-100359294D01*
X128841034Y-100221401D01*
X128561111Y-100136487D01*
X128342950Y-100115000D01*
X128197050Y-100115000D01*
X127978889Y-100136487D01*
X127698966Y-100221401D01*
X127440986Y-100359294D01*
X127214866Y-100544866D01*
X127029294Y-100770986D01*
X127000000Y-100825791D01*
X126970706Y-100770986D01*
X126785134Y-100544866D01*
X126559014Y-100359294D01*
X126301034Y-100221401D01*
X126021111Y-100136487D01*
X125802950Y-100115000D01*
X125657050Y-100115000D01*
X125438889Y-100136487D01*
X125158966Y-100221401D01*
X124900986Y-100359294D01*
X124674866Y-100544866D01*
X124489294Y-100770986D01*
X124460000Y-100825791D01*
X124430706Y-100770986D01*
X124245134Y-100544866D01*
X124019014Y-100359294D01*
X123761034Y-100221401D01*
X123481111Y-100136487D01*
X123262950Y-100115000D01*
X123117050Y-100115000D01*
X122898889Y-100136487D01*
X122618966Y-100221401D01*
X122360986Y-100359294D01*
X122134866Y-100544866D01*
X121949294Y-100770986D01*
X121920000Y-100825791D01*
X121890706Y-100770986D01*
X121705134Y-100544866D01*
X121479014Y-100359294D01*
X121221034Y-100221401D01*
X120941111Y-100136487D01*
X120722950Y-100115000D01*
X120577050Y-100115000D01*
X120358889Y-100136487D01*
X120078966Y-100221401D01*
X119820986Y-100359294D01*
X119594866Y-100544866D01*
X119409294Y-100770986D01*
X119380000Y-100825791D01*
X119350706Y-100770986D01*
X119165134Y-100544866D01*
X118939014Y-100359294D01*
X118681034Y-100221401D01*
X118401111Y-100136487D01*
X118182950Y-100115000D01*
X118037050Y-100115000D01*
X117818889Y-100136487D01*
X117538966Y-100221401D01*
X117280986Y-100359294D01*
X117054866Y-100544866D01*
X117030393Y-100574687D01*
X117009502Y-100505820D01*
X116950537Y-100395506D01*
X116871185Y-100298815D01*
X116774494Y-100219463D01*
X116664180Y-100160498D01*
X116544482Y-100124188D01*
X116420000Y-100111928D01*
X115855750Y-100115000D01*
X115697000Y-100273750D01*
X115443000Y-100273750D01*
X115284250Y-100115000D01*
X114720000Y-100111928D01*
X114595518Y-100124188D01*
X114475820Y-100160498D01*
X114365506Y-100219463D01*
X114268815Y-100298815D01*
X114189463Y-100395506D01*
X114130498Y-100505820D01*
X114094188Y-100625518D01*
X114081928Y-100750000D01*
X99745000Y-100750000D01*
X99745000Y-91308514D01*
X102805000Y-91308514D01*
X102805000Y-91571486D01*
X102856304Y-91829405D01*
X102956939Y-92072359D01*
X103103038Y-92291013D01*
X103288987Y-92476962D01*
X103507641Y-92623061D01*
X103750595Y-92723696D01*
X104008514Y-92775000D01*
X104271486Y-92775000D01*
X104529405Y-92723696D01*
X104772359Y-92623061D01*
X104991013Y-92476962D01*
X105176962Y-92291013D01*
X105323061Y-92072359D01*
X105423696Y-91829405D01*
X105475000Y-91571486D01*
X105475000Y-91308514D01*
X105423696Y-91050595D01*
X105323061Y-90807641D01*
X105176962Y-90588987D01*
X104991013Y-90403038D01*
X104772359Y-90256939D01*
X104529405Y-90156304D01*
X104271486Y-90105000D01*
X104008514Y-90105000D01*
X103750595Y-90156304D01*
X103507641Y-90256939D01*
X103288987Y-90403038D01*
X103103038Y-90588987D01*
X102956939Y-90807641D01*
X102856304Y-91050595D01*
X102805000Y-91308514D01*
X99745000Y-91308514D01*
X99745000Y-83820000D01*
X102798541Y-83820000D01*
X102824317Y-84081706D01*
X102900653Y-84333354D01*
X103024618Y-84565275D01*
X103191445Y-84768555D01*
X103394725Y-84935382D01*
X103626646Y-85059347D01*
X103878294Y-85135683D01*
X104074421Y-85155000D01*
X104205579Y-85155000D01*
X104401706Y-85135683D01*
X104653354Y-85059347D01*
X104885275Y-84935382D01*
X105088555Y-84768555D01*
X105255382Y-84565275D01*
X105379347Y-84333354D01*
X105455683Y-84081706D01*
X105481459Y-83820000D01*
X105455683Y-83558294D01*
X105379347Y-83306646D01*
X105255382Y-83074725D01*
X105088555Y-82871445D01*
X104885275Y-82704618D01*
X104653354Y-82580653D01*
X104401706Y-82504317D01*
X104205579Y-82485000D01*
X104074421Y-82485000D01*
X103878294Y-82504317D01*
X103626646Y-82580653D01*
X103394725Y-82704618D01*
X103191445Y-82871445D01*
X103024618Y-83074725D01*
X102900653Y-83306646D01*
X102824317Y-83558294D01*
X102798541Y-83820000D01*
X99745000Y-83820000D01*
X99745000Y-76200000D01*
X102749388Y-76200000D01*
X102771785Y-76427400D01*
X102838115Y-76646060D01*
X102939105Y-76835000D01*
X102838115Y-77023940D01*
X102771785Y-77242600D01*
X102749388Y-77470000D01*
X102771785Y-77697400D01*
X102835093Y-77906098D01*
X102800498Y-77970820D01*
X102764188Y-78090518D01*
X102751928Y-78215000D01*
X102751928Y-79265000D01*
X102764188Y-79389482D01*
X102800498Y-79509180D01*
X102859463Y-79619494D01*
X102938815Y-79716185D01*
X103035506Y-79795537D01*
X103145820Y-79854502D01*
X103265518Y-79890812D01*
X103390000Y-79903072D01*
X104890000Y-79903072D01*
X105014482Y-79890812D01*
X105134180Y-79854502D01*
X105244494Y-79795537D01*
X105341185Y-79716185D01*
X105420537Y-79619494D01*
X105479502Y-79509180D01*
X105515812Y-79389482D01*
X105528072Y-79265000D01*
X105528072Y-78215000D01*
X105515812Y-78090518D01*
X105479502Y-77970820D01*
X105444907Y-77906098D01*
X105508215Y-77697400D01*
X105530612Y-77470000D01*
X105508215Y-77242600D01*
X105441885Y-77023940D01*
X105340895Y-76835000D01*
X105441885Y-76646060D01*
X105508215Y-76427400D01*
X105530612Y-76200000D01*
X105508215Y-75972600D01*
X105441885Y-75753940D01*
X105334171Y-75552421D01*
X105189212Y-75375788D01*
X105012579Y-75230829D01*
X104811060Y-75123115D01*
X104592400Y-75056785D01*
X104421979Y-75040000D01*
X103858021Y-75040000D01*
X103687600Y-75056785D01*
X103468940Y-75123115D01*
X103267421Y-75230829D01*
X103090788Y-75375788D01*
X102945829Y-75552421D01*
X102838115Y-75753940D01*
X102771785Y-75972600D01*
X102749388Y-76200000D01*
X99745000Y-76200000D01*
X99745000Y-71120000D01*
X102647815Y-71120000D01*
X102676487Y-71411111D01*
X102761401Y-71691034D01*
X102899294Y-71949014D01*
X103084866Y-72175134D01*
X103310986Y-72360706D01*
X103568966Y-72498599D01*
X103848889Y-72583513D01*
X104067050Y-72605000D01*
X104212950Y-72605000D01*
X104431111Y-72583513D01*
X104711034Y-72498599D01*
X104969014Y-72360706D01*
X105195134Y-72175134D01*
X105380706Y-71949014D01*
X105518599Y-71691034D01*
X105603513Y-71411111D01*
X105632185Y-71120000D01*
X105603513Y-70828889D01*
X105518599Y-70548966D01*
X105380706Y-70290986D01*
X105195134Y-70064866D01*
X105165313Y-70040393D01*
X105234180Y-70019502D01*
X105344494Y-69960537D01*
X105441185Y-69881185D01*
X105520537Y-69784494D01*
X105579502Y-69674180D01*
X105615812Y-69554482D01*
X105628072Y-69430000D01*
X105625000Y-68865750D01*
X105466250Y-68707000D01*
X104267000Y-68707000D01*
X104267000Y-68727000D01*
X104013000Y-68727000D01*
X104013000Y-68707000D01*
X102813750Y-68707000D01*
X102655000Y-68865750D01*
X102651928Y-69430000D01*
X102664188Y-69554482D01*
X102700498Y-69674180D01*
X102759463Y-69784494D01*
X102838815Y-69881185D01*
X102935506Y-69960537D01*
X103045820Y-70019502D01*
X103114687Y-70040393D01*
X103084866Y-70064866D01*
X102899294Y-70290986D01*
X102761401Y-70548966D01*
X102676487Y-70828889D01*
X102647815Y-71120000D01*
X99745000Y-71120000D01*
X99745000Y-67730000D01*
X102651928Y-67730000D01*
X102655000Y-68294250D01*
X102813750Y-68453000D01*
X104013000Y-68453000D01*
X104013000Y-67253750D01*
X104267000Y-67253750D01*
X104267000Y-68453000D01*
X105466250Y-68453000D01*
X105625000Y-68294250D01*
X105628072Y-67730000D01*
X105615812Y-67605518D01*
X105579502Y-67485820D01*
X105520537Y-67375506D01*
X105441185Y-67278815D01*
X105344494Y-67199463D01*
X105234180Y-67140498D01*
X105114482Y-67104188D01*
X104990000Y-67091928D01*
X104425750Y-67095000D01*
X104267000Y-67253750D01*
X104013000Y-67253750D01*
X103854250Y-67095000D01*
X103290000Y-67091928D01*
X103165518Y-67104188D01*
X103045820Y-67140498D01*
X102935506Y-67199463D01*
X102838815Y-67278815D01*
X102759463Y-67375506D01*
X102700498Y-67485820D01*
X102664188Y-67605518D01*
X102651928Y-67730000D01*
X99745000Y-67730000D01*
X99745000Y-60960000D01*
X102647815Y-60960000D01*
X102676487Y-61251111D01*
X102761401Y-61531034D01*
X102899294Y-61789014D01*
X103084866Y-62015134D01*
X103310986Y-62200706D01*
X103568966Y-62338599D01*
X103848889Y-62423513D01*
X104067050Y-62445000D01*
X104212950Y-62445000D01*
X104431111Y-62423513D01*
X104711034Y-62338599D01*
X104969014Y-62200706D01*
X105195134Y-62015134D01*
X105380706Y-61789014D01*
X105518599Y-61531034D01*
X105603513Y-61251111D01*
X105632185Y-60960000D01*
X105603513Y-60668889D01*
X105518599Y-60388966D01*
X105380706Y-60130986D01*
X105195134Y-59904866D01*
X105165313Y-59880393D01*
X105234180Y-59859502D01*
X105344494Y-59800537D01*
X105441185Y-59721185D01*
X105520537Y-59624494D01*
X105579502Y-59514180D01*
X105615812Y-59394482D01*
X105628072Y-59270000D01*
X105628072Y-58420000D01*
X107727815Y-58420000D01*
X107756487Y-58711111D01*
X107841401Y-58991034D01*
X107979294Y-59249014D01*
X108164866Y-59475134D01*
X108390986Y-59660706D01*
X108445791Y-59690000D01*
X108390986Y-59719294D01*
X108164866Y-59904866D01*
X107979294Y-60130986D01*
X107841401Y-60388966D01*
X107756487Y-60668889D01*
X107727815Y-60960000D01*
X107756487Y-61251111D01*
X107841401Y-61531034D01*
X107979294Y-61789014D01*
X108164866Y-62015134D01*
X108390986Y-62200706D01*
X108445791Y-62230000D01*
X108390986Y-62259294D01*
X108164866Y-62444866D01*
X107979294Y-62670986D01*
X107841401Y-62928966D01*
X107756487Y-63208889D01*
X107727815Y-63500000D01*
X107756487Y-63791111D01*
X107841401Y-64071034D01*
X107979294Y-64329014D01*
X108164866Y-64555134D01*
X108390986Y-64740706D01*
X108445791Y-64770000D01*
X108390986Y-64799294D01*
X108164866Y-64984866D01*
X107979294Y-65210986D01*
X107841401Y-65468966D01*
X107756487Y-65748889D01*
X107727815Y-66040000D01*
X107756487Y-66331111D01*
X107841401Y-66611034D01*
X107979294Y-66869014D01*
X108164866Y-67095134D01*
X108390986Y-67280706D01*
X108445791Y-67310000D01*
X108390986Y-67339294D01*
X108164866Y-67524866D01*
X107979294Y-67750986D01*
X107841401Y-68008966D01*
X107756487Y-68288889D01*
X107727815Y-68580000D01*
X107756487Y-68871111D01*
X107841401Y-69151034D01*
X107979294Y-69409014D01*
X108164866Y-69635134D01*
X108390986Y-69820706D01*
X108445791Y-69850000D01*
X108390986Y-69879294D01*
X108164866Y-70064866D01*
X107979294Y-70290986D01*
X107841401Y-70548966D01*
X107756487Y-70828889D01*
X107727815Y-71120000D01*
X107756487Y-71411111D01*
X107841401Y-71691034D01*
X107979294Y-71949014D01*
X108164866Y-72175134D01*
X108390986Y-72360706D01*
X108445791Y-72390000D01*
X108390986Y-72419294D01*
X108164866Y-72604866D01*
X107979294Y-72830986D01*
X107841401Y-73088966D01*
X107756487Y-73368889D01*
X107727815Y-73660000D01*
X107756487Y-73951111D01*
X107841401Y-74231034D01*
X107979294Y-74489014D01*
X108164866Y-74715134D01*
X108390986Y-74900706D01*
X108445791Y-74930000D01*
X108390986Y-74959294D01*
X108164866Y-75144866D01*
X107979294Y-75370986D01*
X107841401Y-75628966D01*
X107756487Y-75908889D01*
X107727815Y-76200000D01*
X107756487Y-76491111D01*
X107841401Y-76771034D01*
X107979294Y-77029014D01*
X108164866Y-77255134D01*
X108390986Y-77440706D01*
X108445791Y-77470000D01*
X108390986Y-77499294D01*
X108164866Y-77684866D01*
X107979294Y-77910986D01*
X107841401Y-78168966D01*
X107756487Y-78448889D01*
X107727815Y-78740000D01*
X107756487Y-79031111D01*
X107841401Y-79311034D01*
X107979294Y-79569014D01*
X108164866Y-79795134D01*
X108390986Y-79980706D01*
X108445791Y-80010000D01*
X108390986Y-80039294D01*
X108164866Y-80224866D01*
X107979294Y-80450986D01*
X107841401Y-80708966D01*
X107756487Y-80988889D01*
X107727815Y-81280000D01*
X107756487Y-81571111D01*
X107841401Y-81851034D01*
X107979294Y-82109014D01*
X108164866Y-82335134D01*
X108390986Y-82520706D01*
X108445791Y-82550000D01*
X108390986Y-82579294D01*
X108164866Y-82764866D01*
X107979294Y-82990986D01*
X107841401Y-83248966D01*
X107756487Y-83528889D01*
X107727815Y-83820000D01*
X107756487Y-84111111D01*
X107841401Y-84391034D01*
X107979294Y-84649014D01*
X108164866Y-84875134D01*
X108390986Y-85060706D01*
X108445791Y-85090000D01*
X108390986Y-85119294D01*
X108164866Y-85304866D01*
X107979294Y-85530986D01*
X107841401Y-85788966D01*
X107756487Y-86068889D01*
X107727815Y-86360000D01*
X107756487Y-86651111D01*
X107841401Y-86931034D01*
X107979294Y-87189014D01*
X108164866Y-87415134D01*
X108390986Y-87600706D01*
X108445791Y-87630000D01*
X108390986Y-87659294D01*
X108164866Y-87844866D01*
X107979294Y-88070986D01*
X107841401Y-88328966D01*
X107756487Y-88608889D01*
X107727815Y-88900000D01*
X107756487Y-89191111D01*
X107841401Y-89471034D01*
X107979294Y-89729014D01*
X108164866Y-89955134D01*
X108390986Y-90140706D01*
X108445791Y-90170000D01*
X108390986Y-90199294D01*
X108164866Y-90384866D01*
X107979294Y-90610986D01*
X107841401Y-90868966D01*
X107756487Y-91148889D01*
X107727815Y-91440000D01*
X107756487Y-91731111D01*
X107841401Y-92011034D01*
X107979294Y-92269014D01*
X108164866Y-92495134D01*
X108390986Y-92680706D01*
X108648966Y-92818599D01*
X108928889Y-92903513D01*
X109147050Y-92925000D01*
X109292950Y-92925000D01*
X109511111Y-92903513D01*
X109791034Y-92818599D01*
X110049014Y-92680706D01*
X110275134Y-92495134D01*
X110460706Y-92269014D01*
X110598599Y-92011034D01*
X110683513Y-91731111D01*
X110712185Y-91440000D01*
X110683513Y-91148889D01*
X110598599Y-90868966D01*
X110460706Y-90610986D01*
X110275134Y-90384866D01*
X110049014Y-90199294D01*
X109994209Y-90170000D01*
X110049014Y-90140706D01*
X110275134Y-89955134D01*
X110460706Y-89729014D01*
X110598599Y-89471034D01*
X110683513Y-89191111D01*
X110712185Y-88900000D01*
X110683513Y-88608889D01*
X110598599Y-88328966D01*
X110460706Y-88070986D01*
X110275134Y-87844866D01*
X110049014Y-87659294D01*
X109994209Y-87630000D01*
X110049014Y-87600706D01*
X110275134Y-87415134D01*
X110460706Y-87189014D01*
X110598599Y-86931034D01*
X110683513Y-86651111D01*
X110712185Y-86360000D01*
X110683513Y-86068889D01*
X110598599Y-85788966D01*
X110460706Y-85530986D01*
X110275134Y-85304866D01*
X110049014Y-85119294D01*
X109994209Y-85090000D01*
X110049014Y-85060706D01*
X110275134Y-84875134D01*
X110460706Y-84649014D01*
X110598599Y-84391034D01*
X110683513Y-84111111D01*
X110712185Y-83820000D01*
X110683513Y-83528889D01*
X110598599Y-83248966D01*
X110460706Y-82990986D01*
X110275134Y-82764866D01*
X110049014Y-82579294D01*
X109994209Y-82550000D01*
X110049014Y-82520706D01*
X110275134Y-82335134D01*
X110460706Y-82109014D01*
X110598599Y-81851034D01*
X110683513Y-81571111D01*
X110712185Y-81280000D01*
X110683513Y-80988889D01*
X110598599Y-80708966D01*
X110460706Y-80450986D01*
X110275134Y-80224866D01*
X110049014Y-80039294D01*
X109994209Y-80010000D01*
X110049014Y-79980706D01*
X110275134Y-79795134D01*
X110460706Y-79569014D01*
X110598599Y-79311034D01*
X110683513Y-79031111D01*
X110712185Y-78740000D01*
X112807815Y-78740000D01*
X112836487Y-79031111D01*
X112921401Y-79311034D01*
X113059294Y-79569014D01*
X113244866Y-79795134D01*
X113470986Y-79980706D01*
X113525791Y-80010000D01*
X113470986Y-80039294D01*
X113244866Y-80224866D01*
X113059294Y-80450986D01*
X112921401Y-80708966D01*
X112836487Y-80988889D01*
X112807815Y-81280000D01*
X112836487Y-81571111D01*
X112921401Y-81851034D01*
X113059294Y-82109014D01*
X113244866Y-82335134D01*
X113470986Y-82520706D01*
X113728966Y-82658599D01*
X114008889Y-82743513D01*
X114227050Y-82765000D01*
X114372950Y-82765000D01*
X114591111Y-82743513D01*
X114871034Y-82658599D01*
X115129014Y-82520706D01*
X115355134Y-82335134D01*
X115540706Y-82109014D01*
X115678599Y-81851034D01*
X115763513Y-81571111D01*
X115792185Y-81280000D01*
X115763513Y-80988889D01*
X115678599Y-80708966D01*
X115540706Y-80450986D01*
X115355134Y-80224866D01*
X115129014Y-80039294D01*
X115074209Y-80010000D01*
X115129014Y-79980706D01*
X115355134Y-79795134D01*
X115540706Y-79569014D01*
X115678599Y-79311034D01*
X115763513Y-79031111D01*
X115792185Y-78740000D01*
X115763513Y-78448889D01*
X115678599Y-78168966D01*
X115540706Y-77910986D01*
X115355134Y-77684866D01*
X115325313Y-77660393D01*
X115394180Y-77639502D01*
X115504494Y-77580537D01*
X115601185Y-77501185D01*
X115680537Y-77404494D01*
X115739502Y-77294180D01*
X115775812Y-77174482D01*
X115788072Y-77050000D01*
X115788072Y-75350000D01*
X115775812Y-75225518D01*
X115739502Y-75105820D01*
X115680537Y-74995506D01*
X115601185Y-74898815D01*
X115504494Y-74819463D01*
X115394180Y-74760498D01*
X115274482Y-74724188D01*
X115150000Y-74711928D01*
X113450000Y-74711928D01*
X113325518Y-74724188D01*
X113205820Y-74760498D01*
X113095506Y-74819463D01*
X112998815Y-74898815D01*
X112919463Y-74995506D01*
X112860498Y-75105820D01*
X112824188Y-75225518D01*
X112811928Y-75350000D01*
X112811928Y-77050000D01*
X112824188Y-77174482D01*
X112860498Y-77294180D01*
X112919463Y-77404494D01*
X112998815Y-77501185D01*
X113095506Y-77580537D01*
X113205820Y-77639502D01*
X113274687Y-77660393D01*
X113244866Y-77684866D01*
X113059294Y-77910986D01*
X112921401Y-78168966D01*
X112836487Y-78448889D01*
X112807815Y-78740000D01*
X110712185Y-78740000D01*
X110683513Y-78448889D01*
X110598599Y-78168966D01*
X110460706Y-77910986D01*
X110275134Y-77684866D01*
X110049014Y-77499294D01*
X109994209Y-77470000D01*
X110049014Y-77440706D01*
X110275134Y-77255134D01*
X110460706Y-77029014D01*
X110598599Y-76771034D01*
X110683513Y-76491111D01*
X110712185Y-76200000D01*
X110683513Y-75908889D01*
X110598599Y-75628966D01*
X110460706Y-75370986D01*
X110275134Y-75144866D01*
X110049014Y-74959294D01*
X109994209Y-74930000D01*
X110049014Y-74900706D01*
X110275134Y-74715134D01*
X110460706Y-74489014D01*
X110598599Y-74231034D01*
X110683513Y-73951111D01*
X110712185Y-73660000D01*
X110683513Y-73368889D01*
X110598599Y-73088966D01*
X110460706Y-72830986D01*
X110275134Y-72604866D01*
X110049014Y-72419294D01*
X109994209Y-72390000D01*
X110049014Y-72360706D01*
X110275134Y-72175134D01*
X110460706Y-71949014D01*
X110598599Y-71691034D01*
X110683513Y-71411111D01*
X110712185Y-71120000D01*
X110683513Y-70828889D01*
X110598599Y-70548966D01*
X110460706Y-70290986D01*
X110275134Y-70064866D01*
X110049014Y-69879294D01*
X109994209Y-69850000D01*
X110049014Y-69820706D01*
X110275134Y-69635134D01*
X110460706Y-69409014D01*
X110598599Y-69151034D01*
X110683513Y-68871111D01*
X110712185Y-68580000D01*
X110683513Y-68288889D01*
X110598599Y-68008966D01*
X110460706Y-67750986D01*
X110275134Y-67524866D01*
X110049014Y-67339294D01*
X109994209Y-67310000D01*
X110049014Y-67280706D01*
X110275134Y-67095134D01*
X110460706Y-66869014D01*
X110598599Y-66611034D01*
X110683513Y-66331111D01*
X110712185Y-66040000D01*
X110683513Y-65748889D01*
X110598599Y-65468966D01*
X110460706Y-65210986D01*
X110275134Y-64984866D01*
X110049014Y-64799294D01*
X109994209Y-64770000D01*
X110049014Y-64740706D01*
X110275134Y-64555134D01*
X110460706Y-64329014D01*
X110598599Y-64071034D01*
X110683513Y-63791111D01*
X110712185Y-63500000D01*
X110683513Y-63208889D01*
X110598599Y-62928966D01*
X110460706Y-62670986D01*
X110275134Y-62444866D01*
X110049014Y-62259294D01*
X109994209Y-62230000D01*
X110049014Y-62200706D01*
X110275134Y-62015134D01*
X110460706Y-61789014D01*
X110598599Y-61531034D01*
X110683513Y-61251111D01*
X110712185Y-60960000D01*
X110683513Y-60668889D01*
X110598599Y-60388966D01*
X110460706Y-60130986D01*
X110275134Y-59904866D01*
X110049014Y-59719294D01*
X109994209Y-59690000D01*
X110049014Y-59660706D01*
X110275134Y-59475134D01*
X110460706Y-59249014D01*
X110598599Y-58991034D01*
X110683513Y-58711111D01*
X110712185Y-58420000D01*
X133127815Y-58420000D01*
X133156487Y-58711111D01*
X133241401Y-58991034D01*
X133379294Y-59249014D01*
X133564866Y-59475134D01*
X133790986Y-59660706D01*
X133845791Y-59690000D01*
X133790986Y-59719294D01*
X133564866Y-59904866D01*
X133379294Y-60130986D01*
X133241401Y-60388966D01*
X133156487Y-60668889D01*
X133127815Y-60960000D01*
X133156487Y-61251111D01*
X133241401Y-61531034D01*
X133379294Y-61789014D01*
X133564866Y-62015134D01*
X133790986Y-62200706D01*
X133845791Y-62230000D01*
X133790986Y-62259294D01*
X133564866Y-62444866D01*
X133379294Y-62670986D01*
X133241401Y-62928966D01*
X133156487Y-63208889D01*
X133127815Y-63500000D01*
X133156487Y-63791111D01*
X133241401Y-64071034D01*
X133379294Y-64329014D01*
X133564866Y-64555134D01*
X133790986Y-64740706D01*
X133845791Y-64770000D01*
X133790986Y-64799294D01*
X133564866Y-64984866D01*
X133379294Y-65210986D01*
X133241401Y-65468966D01*
X133156487Y-65748889D01*
X133127815Y-66040000D01*
X133156487Y-66331111D01*
X133241401Y-66611034D01*
X133379294Y-66869014D01*
X133564866Y-67095134D01*
X133790986Y-67280706D01*
X133845791Y-67310000D01*
X133790986Y-67339294D01*
X133564866Y-67524866D01*
X133379294Y-67750986D01*
X133241401Y-68008966D01*
X133156487Y-68288889D01*
X133127815Y-68580000D01*
X133156487Y-68871111D01*
X133241401Y-69151034D01*
X133379294Y-69409014D01*
X133564866Y-69635134D01*
X133790986Y-69820706D01*
X133845791Y-69850000D01*
X133790986Y-69879294D01*
X133564866Y-70064866D01*
X133379294Y-70290986D01*
X133241401Y-70548966D01*
X133156487Y-70828889D01*
X133127815Y-71120000D01*
X133156487Y-71411111D01*
X133241401Y-71691034D01*
X133379294Y-71949014D01*
X133564866Y-72175134D01*
X133790986Y-72360706D01*
X133845791Y-72390000D01*
X133790986Y-72419294D01*
X133564866Y-72604866D01*
X133379294Y-72830986D01*
X133241401Y-73088966D01*
X133156487Y-73368889D01*
X133127815Y-73660000D01*
X133156487Y-73951111D01*
X133241401Y-74231034D01*
X133379294Y-74489014D01*
X133564866Y-74715134D01*
X133790986Y-74900706D01*
X133845791Y-74930000D01*
X133790986Y-74959294D01*
X133564866Y-75144866D01*
X133379294Y-75370986D01*
X133241401Y-75628966D01*
X133156487Y-75908889D01*
X133127815Y-76200000D01*
X133156487Y-76491111D01*
X133241401Y-76771034D01*
X133379294Y-77029014D01*
X133564866Y-77255134D01*
X133790986Y-77440706D01*
X133845791Y-77470000D01*
X133790986Y-77499294D01*
X133564866Y-77684866D01*
X133379294Y-77910986D01*
X133241401Y-78168966D01*
X133156487Y-78448889D01*
X133127815Y-78740000D01*
X133156487Y-79031111D01*
X133241401Y-79311034D01*
X133379294Y-79569014D01*
X133564866Y-79795134D01*
X133790986Y-79980706D01*
X133845791Y-80010000D01*
X133790986Y-80039294D01*
X133564866Y-80224866D01*
X133379294Y-80450986D01*
X133241401Y-80708966D01*
X133156487Y-80988889D01*
X133127815Y-81280000D01*
X133156487Y-81571111D01*
X133241401Y-81851034D01*
X133379294Y-82109014D01*
X133564866Y-82335134D01*
X133790986Y-82520706D01*
X133845791Y-82550000D01*
X133790986Y-82579294D01*
X133564866Y-82764866D01*
X133379294Y-82990986D01*
X133241401Y-83248966D01*
X133156487Y-83528889D01*
X133127815Y-83820000D01*
X133156487Y-84111111D01*
X133241401Y-84391034D01*
X133379294Y-84649014D01*
X133564866Y-84875134D01*
X133790986Y-85060706D01*
X133845791Y-85090000D01*
X133790986Y-85119294D01*
X133564866Y-85304866D01*
X133379294Y-85530986D01*
X133241401Y-85788966D01*
X133156487Y-86068889D01*
X133127815Y-86360000D01*
X133156487Y-86651111D01*
X133241401Y-86931034D01*
X133379294Y-87189014D01*
X133564866Y-87415134D01*
X133790986Y-87600706D01*
X133845791Y-87630000D01*
X133790986Y-87659294D01*
X133564866Y-87844866D01*
X133379294Y-88070986D01*
X133241401Y-88328966D01*
X133156487Y-88608889D01*
X133127815Y-88900000D01*
X133156487Y-89191111D01*
X133241401Y-89471034D01*
X133379294Y-89729014D01*
X133564866Y-89955134D01*
X133790986Y-90140706D01*
X133845791Y-90170000D01*
X133790986Y-90199294D01*
X133564866Y-90384866D01*
X133379294Y-90610986D01*
X133241401Y-90868966D01*
X133156487Y-91148889D01*
X133127815Y-91440000D01*
X133156487Y-91731111D01*
X133241401Y-92011034D01*
X133379294Y-92269014D01*
X133564866Y-92495134D01*
X133790986Y-92680706D01*
X134048966Y-92818599D01*
X134328889Y-92903513D01*
X134547050Y-92925000D01*
X134692950Y-92925000D01*
X134911111Y-92903513D01*
X135191034Y-92818599D01*
X135449014Y-92680706D01*
X135675134Y-92495134D01*
X135860706Y-92269014D01*
X135998599Y-92011034D01*
X136083513Y-91731111D01*
X136112185Y-91440000D01*
X136083513Y-91148889D01*
X135998599Y-90868966D01*
X135860706Y-90610986D01*
X135675134Y-90384866D01*
X135449014Y-90199294D01*
X135394209Y-90170000D01*
X135449014Y-90140706D01*
X135675134Y-89955134D01*
X135860706Y-89729014D01*
X135998599Y-89471034D01*
X136083513Y-89191111D01*
X136112185Y-88900000D01*
X136083513Y-88608889D01*
X135998599Y-88328966D01*
X135860706Y-88070986D01*
X135675134Y-87844866D01*
X135449014Y-87659294D01*
X135394209Y-87630000D01*
X135449014Y-87600706D01*
X135675134Y-87415134D01*
X135860706Y-87189014D01*
X135998599Y-86931034D01*
X136083513Y-86651111D01*
X136112185Y-86360000D01*
X136083513Y-86068889D01*
X135998599Y-85788966D01*
X135860706Y-85530986D01*
X135675134Y-85304866D01*
X135449014Y-85119294D01*
X135394209Y-85090000D01*
X135449014Y-85060706D01*
X135675134Y-84875134D01*
X135860706Y-84649014D01*
X135998599Y-84391034D01*
X136083513Y-84111111D01*
X136112185Y-83820000D01*
X136083513Y-83528889D01*
X135998599Y-83248966D01*
X135860706Y-82990986D01*
X135675134Y-82764866D01*
X135449014Y-82579294D01*
X135394209Y-82550000D01*
X135449014Y-82520706D01*
X135675134Y-82335134D01*
X135860706Y-82109014D01*
X135998599Y-81851034D01*
X136083513Y-81571111D01*
X136109765Y-81304568D01*
X136400000Y-81594803D01*
X136400001Y-88862668D01*
X136396324Y-88900000D01*
X136410998Y-89048985D01*
X136454454Y-89192246D01*
X136525026Y-89324276D01*
X136596201Y-89411002D01*
X136620000Y-89440001D01*
X136648998Y-89463799D01*
X138259203Y-91074005D01*
X138236487Y-91148889D01*
X138207815Y-91440000D01*
X138236487Y-91731111D01*
X138321401Y-92011034D01*
X138459294Y-92269014D01*
X138644866Y-92495134D01*
X138870986Y-92680706D01*
X138925791Y-92710000D01*
X138870986Y-92739294D01*
X138644866Y-92924866D01*
X138459294Y-93150986D01*
X138321401Y-93408966D01*
X138236487Y-93688889D01*
X138207815Y-93980000D01*
X138236487Y-94271111D01*
X138321401Y-94551034D01*
X138459294Y-94809014D01*
X138644866Y-95035134D01*
X138870986Y-95220706D01*
X139128966Y-95358599D01*
X139408889Y-95443513D01*
X139627050Y-95465000D01*
X139772950Y-95465000D01*
X139991111Y-95443513D01*
X140271034Y-95358599D01*
X140529014Y-95220706D01*
X140755134Y-95035134D01*
X140940706Y-94809014D01*
X141078599Y-94551034D01*
X141163513Y-94271111D01*
X141192185Y-93980000D01*
X141163513Y-93688889D01*
X141078599Y-93408966D01*
X140940706Y-93150986D01*
X140755134Y-92924866D01*
X140529014Y-92739294D01*
X140474209Y-92710000D01*
X140529014Y-92680706D01*
X140755134Y-92495134D01*
X140940706Y-92269014D01*
X141078599Y-92011034D01*
X141163513Y-91731111D01*
X141192185Y-91440000D01*
X141163513Y-91148889D01*
X141078599Y-90868966D01*
X140940706Y-90610986D01*
X140755134Y-90384866D01*
X140529014Y-90199294D01*
X140474209Y-90170000D01*
X140529014Y-90140706D01*
X140755134Y-89955134D01*
X140940706Y-89729014D01*
X141078599Y-89471034D01*
X141163513Y-89191111D01*
X141192185Y-88900000D01*
X141163513Y-88608889D01*
X141078599Y-88328966D01*
X140940706Y-88070986D01*
X140755134Y-87844866D01*
X140725313Y-87820393D01*
X140794180Y-87799502D01*
X140904494Y-87740537D01*
X141001185Y-87661185D01*
X141080537Y-87564494D01*
X141139502Y-87454180D01*
X141175812Y-87334482D01*
X141188072Y-87210000D01*
X141185000Y-86645750D01*
X141026250Y-86487000D01*
X139827000Y-86487000D01*
X139827000Y-86507000D01*
X139573000Y-86507000D01*
X139573000Y-86487000D01*
X138373750Y-86487000D01*
X138215000Y-86645750D01*
X138211928Y-87210000D01*
X138224188Y-87334482D01*
X138260498Y-87454180D01*
X138319463Y-87564494D01*
X138398815Y-87661185D01*
X138495506Y-87740537D01*
X138605820Y-87799502D01*
X138674687Y-87820393D01*
X138644866Y-87844866D01*
X138459294Y-88070986D01*
X138321401Y-88328966D01*
X138236487Y-88608889D01*
X138210235Y-88875433D01*
X137920000Y-88585199D01*
X137920000Y-85510000D01*
X138211928Y-85510000D01*
X138215000Y-86074250D01*
X138373750Y-86233000D01*
X139573000Y-86233000D01*
X139573000Y-85033750D01*
X139827000Y-85033750D01*
X139827000Y-86233000D01*
X141026250Y-86233000D01*
X141185000Y-86074250D01*
X141188072Y-85510000D01*
X141175812Y-85385518D01*
X141139502Y-85265820D01*
X141080537Y-85155506D01*
X141001185Y-85058815D01*
X140904494Y-84979463D01*
X140794180Y-84920498D01*
X140674482Y-84884188D01*
X140550000Y-84871928D01*
X139985750Y-84875000D01*
X139827000Y-85033750D01*
X139573000Y-85033750D01*
X139414250Y-84875000D01*
X138850000Y-84871928D01*
X138725518Y-84884188D01*
X138605820Y-84920498D01*
X138495506Y-84979463D01*
X138398815Y-85058815D01*
X138319463Y-85155506D01*
X138260498Y-85265820D01*
X138224188Y-85385518D01*
X138211928Y-85510000D01*
X137920000Y-85510000D01*
X137920000Y-81317322D01*
X137923676Y-81279999D01*
X137920000Y-81242676D01*
X137920000Y-81242667D01*
X137909003Y-81131014D01*
X137865546Y-80987753D01*
X137794974Y-80855724D01*
X137781811Y-80839685D01*
X137723799Y-80768996D01*
X137723795Y-80768992D01*
X137700001Y-80739999D01*
X137671009Y-80716206D01*
X136454802Y-79500000D01*
X137122678Y-79500000D01*
X137160000Y-79503676D01*
X137197322Y-79500000D01*
X137197333Y-79500000D01*
X137308986Y-79489003D01*
X137452247Y-79445546D01*
X137584276Y-79374974D01*
X137700001Y-79280001D01*
X137723804Y-79250997D01*
X138210235Y-78764567D01*
X138236487Y-79031111D01*
X138321401Y-79311034D01*
X138459294Y-79569014D01*
X138644866Y-79795134D01*
X138870986Y-79980706D01*
X139128966Y-80118599D01*
X139408889Y-80203513D01*
X139627050Y-80225000D01*
X139772950Y-80225000D01*
X139991111Y-80203513D01*
X140271034Y-80118599D01*
X140529014Y-79980706D01*
X140755134Y-79795134D01*
X140940706Y-79569014D01*
X141078599Y-79311034D01*
X141163513Y-79031111D01*
X141192185Y-78740000D01*
X141163513Y-78448889D01*
X141078599Y-78168966D01*
X140940706Y-77910986D01*
X140755134Y-77684866D01*
X140529014Y-77499294D01*
X140474209Y-77470000D01*
X140529014Y-77440706D01*
X140755134Y-77255134D01*
X140940706Y-77029014D01*
X141078599Y-76771034D01*
X141163513Y-76491111D01*
X141192185Y-76200000D01*
X141163513Y-75908889D01*
X141078599Y-75628966D01*
X140940706Y-75370986D01*
X140755134Y-75144866D01*
X140529014Y-74959294D01*
X140474209Y-74930000D01*
X140529014Y-74900706D01*
X140755134Y-74715134D01*
X140940706Y-74489014D01*
X141078599Y-74231034D01*
X141163513Y-73951111D01*
X141192185Y-73660000D01*
X141163513Y-73368889D01*
X141078599Y-73088966D01*
X140940706Y-72830986D01*
X140755134Y-72604866D01*
X140725313Y-72580393D01*
X140794180Y-72559502D01*
X140904494Y-72500537D01*
X141001185Y-72421185D01*
X141080537Y-72324494D01*
X141139502Y-72214180D01*
X141175812Y-72094482D01*
X141188072Y-71970000D01*
X141185000Y-71405750D01*
X141026250Y-71247000D01*
X139827000Y-71247000D01*
X139827000Y-71267000D01*
X139573000Y-71267000D01*
X139573000Y-71247000D01*
X138373750Y-71247000D01*
X138215000Y-71405750D01*
X138211928Y-71970000D01*
X138224188Y-72094482D01*
X138260498Y-72214180D01*
X138319463Y-72324494D01*
X138398815Y-72421185D01*
X138495506Y-72500537D01*
X138605820Y-72559502D01*
X138674687Y-72580393D01*
X138644866Y-72604866D01*
X138459294Y-72830986D01*
X138321401Y-73088966D01*
X138236487Y-73368889D01*
X138207815Y-73660000D01*
X138236487Y-73951111D01*
X138321401Y-74231034D01*
X138459294Y-74489014D01*
X138644866Y-74715134D01*
X138870986Y-74900706D01*
X138925791Y-74930000D01*
X138870986Y-74959294D01*
X138644866Y-75144866D01*
X138459294Y-75370986D01*
X138321401Y-75628966D01*
X138236487Y-75908889D01*
X138207815Y-76200000D01*
X138236487Y-76491111D01*
X138259203Y-76565995D01*
X136845199Y-77980000D01*
X135897595Y-77980000D01*
X135860706Y-77910986D01*
X135675134Y-77684866D01*
X135449014Y-77499294D01*
X135394209Y-77470000D01*
X135449014Y-77440706D01*
X135675134Y-77255134D01*
X135860706Y-77029014D01*
X135998599Y-76771034D01*
X136083513Y-76491111D01*
X136112185Y-76200000D01*
X136083513Y-75908889D01*
X135998599Y-75628966D01*
X135860706Y-75370986D01*
X135675134Y-75144866D01*
X135449014Y-74959294D01*
X135394209Y-74930000D01*
X135449014Y-74900706D01*
X135675134Y-74715134D01*
X135860706Y-74489014D01*
X135998599Y-74231034D01*
X136083513Y-73951111D01*
X136112185Y-73660000D01*
X136083513Y-73368889D01*
X135998599Y-73088966D01*
X135860706Y-72830986D01*
X135675134Y-72604866D01*
X135449014Y-72419294D01*
X135394209Y-72390000D01*
X135449014Y-72360706D01*
X135675134Y-72175134D01*
X135860706Y-71949014D01*
X135998599Y-71691034D01*
X136083513Y-71411111D01*
X136112185Y-71120000D01*
X136083513Y-70828889D01*
X135998599Y-70548966D01*
X135860706Y-70290986D01*
X135843484Y-70270000D01*
X138211928Y-70270000D01*
X138215000Y-70834250D01*
X138373750Y-70993000D01*
X139573000Y-70993000D01*
X139573000Y-69793750D01*
X139827000Y-69793750D01*
X139827000Y-70993000D01*
X141026250Y-70993000D01*
X141185000Y-70834250D01*
X141188072Y-70270000D01*
X141175812Y-70145518D01*
X141139502Y-70025820D01*
X141080537Y-69915506D01*
X141001185Y-69818815D01*
X140904494Y-69739463D01*
X140794180Y-69680498D01*
X140674482Y-69644188D01*
X140550000Y-69631928D01*
X139985750Y-69635000D01*
X139827000Y-69793750D01*
X139573000Y-69793750D01*
X139414250Y-69635000D01*
X138850000Y-69631928D01*
X138725518Y-69644188D01*
X138605820Y-69680498D01*
X138495506Y-69739463D01*
X138398815Y-69818815D01*
X138319463Y-69915506D01*
X138260498Y-70025820D01*
X138224188Y-70145518D01*
X138211928Y-70270000D01*
X135843484Y-70270000D01*
X135675134Y-70064866D01*
X135449014Y-69879294D01*
X135394209Y-69850000D01*
X135449014Y-69820706D01*
X135675134Y-69635134D01*
X135860706Y-69409014D01*
X135998599Y-69151034D01*
X136083513Y-68871111D01*
X136112185Y-68580000D01*
X136083513Y-68288889D01*
X135998599Y-68008966D01*
X135860706Y-67750986D01*
X135675134Y-67524866D01*
X135449014Y-67339294D01*
X135394209Y-67310000D01*
X135449014Y-67280706D01*
X135675134Y-67095134D01*
X135860706Y-66869014D01*
X135998599Y-66611034D01*
X136083513Y-66331111D01*
X136112185Y-66040000D01*
X136083513Y-65748889D01*
X135998599Y-65468966D01*
X135860706Y-65210986D01*
X135675134Y-64984866D01*
X135449014Y-64799294D01*
X135394209Y-64770000D01*
X135449014Y-64740706D01*
X135675134Y-64555134D01*
X135860706Y-64329014D01*
X135998599Y-64071034D01*
X136083513Y-63791111D01*
X136112185Y-63500000D01*
X136083513Y-63208889D01*
X135998599Y-62928966D01*
X135860706Y-62670986D01*
X135675134Y-62444866D01*
X135449014Y-62259294D01*
X135394209Y-62230000D01*
X135449014Y-62200706D01*
X135675134Y-62015134D01*
X135860706Y-61789014D01*
X135998599Y-61531034D01*
X136083513Y-61251111D01*
X136112185Y-60960000D01*
X136083513Y-60668889D01*
X135998599Y-60388966D01*
X135860706Y-60130986D01*
X135675134Y-59904866D01*
X135449014Y-59719294D01*
X135394209Y-59690000D01*
X135449014Y-59660706D01*
X135675134Y-59475134D01*
X135860706Y-59249014D01*
X135998599Y-58991034D01*
X136083513Y-58711111D01*
X136112185Y-58420000D01*
X136083513Y-58128889D01*
X135998599Y-57848966D01*
X135860706Y-57590986D01*
X135675134Y-57364866D01*
X135645313Y-57340393D01*
X135714180Y-57319502D01*
X135824494Y-57260537D01*
X135921185Y-57181185D01*
X136000537Y-57084494D01*
X136059502Y-56974180D01*
X136095812Y-56854482D01*
X136108072Y-56730000D01*
X136105000Y-56165750D01*
X135946250Y-56007000D01*
X134747000Y-56007000D01*
X134747000Y-56027000D01*
X134493000Y-56027000D01*
X134493000Y-56007000D01*
X133293750Y-56007000D01*
X133135000Y-56165750D01*
X133131928Y-56730000D01*
X133144188Y-56854482D01*
X133180498Y-56974180D01*
X133239463Y-57084494D01*
X133318815Y-57181185D01*
X133415506Y-57260537D01*
X133525820Y-57319502D01*
X133594687Y-57340393D01*
X133564866Y-57364866D01*
X133379294Y-57590986D01*
X133241401Y-57848966D01*
X133156487Y-58128889D01*
X133127815Y-58420000D01*
X110712185Y-58420000D01*
X110683513Y-58128889D01*
X110598599Y-57848966D01*
X110460706Y-57590986D01*
X110275134Y-57364866D01*
X110245313Y-57340393D01*
X110314180Y-57319502D01*
X110424494Y-57260537D01*
X110521185Y-57181185D01*
X110600537Y-57084494D01*
X110659502Y-56974180D01*
X110695812Y-56854482D01*
X110708072Y-56730000D01*
X110708072Y-55030000D01*
X133131928Y-55030000D01*
X133135000Y-55594250D01*
X133293750Y-55753000D01*
X134493000Y-55753000D01*
X134493000Y-54553750D01*
X134747000Y-54553750D01*
X134747000Y-55753000D01*
X135946250Y-55753000D01*
X136105000Y-55594250D01*
X136108072Y-55030000D01*
X136095812Y-54905518D01*
X136059502Y-54785820D01*
X136000537Y-54675506D01*
X135921185Y-54578815D01*
X135824494Y-54499463D01*
X135714180Y-54440498D01*
X135594482Y-54404188D01*
X135470000Y-54391928D01*
X134905750Y-54395000D01*
X134747000Y-54553750D01*
X134493000Y-54553750D01*
X134334250Y-54395000D01*
X133770000Y-54391928D01*
X133645518Y-54404188D01*
X133525820Y-54440498D01*
X133415506Y-54499463D01*
X133318815Y-54578815D01*
X133239463Y-54675506D01*
X133180498Y-54785820D01*
X133144188Y-54905518D01*
X133131928Y-55030000D01*
X110708072Y-55030000D01*
X110695812Y-54905518D01*
X110659502Y-54785820D01*
X110600537Y-54675506D01*
X110521185Y-54578815D01*
X110424494Y-54499463D01*
X110314180Y-54440498D01*
X110194482Y-54404188D01*
X110070000Y-54391928D01*
X108370000Y-54391928D01*
X108245518Y-54404188D01*
X108125820Y-54440498D01*
X108015506Y-54499463D01*
X107918815Y-54578815D01*
X107839463Y-54675506D01*
X107780498Y-54785820D01*
X107744188Y-54905518D01*
X107731928Y-55030000D01*
X107731928Y-56730000D01*
X107744188Y-56854482D01*
X107780498Y-56974180D01*
X107839463Y-57084494D01*
X107918815Y-57181185D01*
X108015506Y-57260537D01*
X108125820Y-57319502D01*
X108194687Y-57340393D01*
X108164866Y-57364866D01*
X107979294Y-57590986D01*
X107841401Y-57848966D01*
X107756487Y-58128889D01*
X107727815Y-58420000D01*
X105628072Y-58420000D01*
X105628072Y-57570000D01*
X105615812Y-57445518D01*
X105579502Y-57325820D01*
X105520537Y-57215506D01*
X105441185Y-57118815D01*
X105344494Y-57039463D01*
X105234180Y-56980498D01*
X105114482Y-56944188D01*
X104990000Y-56931928D01*
X103290000Y-56931928D01*
X103165518Y-56944188D01*
X103045820Y-56980498D01*
X102935506Y-57039463D01*
X102838815Y-57118815D01*
X102759463Y-57215506D01*
X102700498Y-57325820D01*
X102664188Y-57445518D01*
X102651928Y-57570000D01*
X102651928Y-59270000D01*
X102664188Y-59394482D01*
X102700498Y-59514180D01*
X102759463Y-59624494D01*
X102838815Y-59721185D01*
X102935506Y-59800537D01*
X103045820Y-59859502D01*
X103114687Y-59880393D01*
X103084866Y-59904866D01*
X102899294Y-60130986D01*
X102761401Y-60388966D01*
X102676487Y-60668889D01*
X102647815Y-60960000D01*
X99745000Y-60960000D01*
X99745000Y-50800000D01*
X102647815Y-50800000D01*
X102676487Y-51091111D01*
X102761401Y-51371034D01*
X102899294Y-51629014D01*
X103084866Y-51855134D01*
X103310986Y-52040706D01*
X103568966Y-52178599D01*
X103848889Y-52263513D01*
X104067050Y-52285000D01*
X104212950Y-52285000D01*
X104431111Y-52263513D01*
X104711034Y-52178599D01*
X104969014Y-52040706D01*
X105195134Y-51855134D01*
X105380706Y-51629014D01*
X105518599Y-51371034D01*
X105603513Y-51091111D01*
X105632185Y-50800000D01*
X105603513Y-50508889D01*
X105518599Y-50228966D01*
X105380706Y-49970986D01*
X105195134Y-49744866D01*
X105165313Y-49720393D01*
X105234180Y-49699502D01*
X105344494Y-49640537D01*
X105441185Y-49561185D01*
X105520537Y-49464494D01*
X105579502Y-49354180D01*
X105615812Y-49234482D01*
X105628072Y-49110000D01*
X105625000Y-48545750D01*
X105466250Y-48387000D01*
X104267000Y-48387000D01*
X104267000Y-48407000D01*
X104013000Y-48407000D01*
X104013000Y-48387000D01*
X102813750Y-48387000D01*
X102655000Y-48545750D01*
X102651928Y-49110000D01*
X102664188Y-49234482D01*
X102700498Y-49354180D01*
X102759463Y-49464494D01*
X102838815Y-49561185D01*
X102935506Y-49640537D01*
X103045820Y-49699502D01*
X103114687Y-49720393D01*
X103084866Y-49744866D01*
X102899294Y-49970986D01*
X102761401Y-50228966D01*
X102676487Y-50508889D01*
X102647815Y-50800000D01*
X99745000Y-50800000D01*
X99745000Y-47410000D01*
X102651928Y-47410000D01*
X102655000Y-47974250D01*
X102813750Y-48133000D01*
X104013000Y-48133000D01*
X104013000Y-46933750D01*
X104267000Y-46933750D01*
X104267000Y-48133000D01*
X105466250Y-48133000D01*
X105625000Y-47974250D01*
X105628072Y-47410000D01*
X105615812Y-47285518D01*
X105579502Y-47165820D01*
X105520537Y-47055506D01*
X105441185Y-46958815D01*
X105344494Y-46879463D01*
X105234180Y-46820498D01*
X105114482Y-46784188D01*
X104990000Y-46771928D01*
X104425750Y-46775000D01*
X104267000Y-46933750D01*
X104013000Y-46933750D01*
X103854250Y-46775000D01*
X103290000Y-46771928D01*
X103165518Y-46784188D01*
X103045820Y-46820498D01*
X102935506Y-46879463D01*
X102838815Y-46958815D01*
X102759463Y-47055506D01*
X102700498Y-47165820D01*
X102664188Y-47285518D01*
X102651928Y-47410000D01*
X99745000Y-47410000D01*
X99745000Y-46405000D01*
X144095000Y-46405000D01*
X144095001Y-103455000D01*
M02*
