G04 #@! TF.GenerationSoftware,KiCad,Pcbnew,(5.1.2-1)-1*
G04 #@! TF.CreationDate,2021-04-09T14:29:59+02:00*
G04 #@! TF.ProjectId,Faraway_PCB,46617261-7761-4795-9f50-43422e6b6963,rev?*
G04 #@! TF.SameCoordinates,Original*
G04 #@! TF.FileFunction,Legend,Top*
G04 #@! TF.FilePolarity,Positive*
%FSLAX46Y46*%
G04 Gerber Fmt 4.6, Leading zero omitted, Abs format (unit mm)*
G04 Created by KiCad (PCBNEW (5.1.2-1)-1) date 2021-04-09 14:29:59*
%MOMM*%
%LPD*%
G04 APERTURE LIST*
%ADD10C,0.100000*%
%ADD11C,0.150000*%
%ADD12C,0.120000*%
G04 APERTURE END LIST*
D10*
X142097142Y-85949285D02*
X141740000Y-85949285D01*
X141704285Y-86306428D01*
X141740000Y-86270714D01*
X141811428Y-86235000D01*
X141990000Y-86235000D01*
X142061428Y-86270714D01*
X142097142Y-86306428D01*
X142132857Y-86377857D01*
X142132857Y-86556428D01*
X142097142Y-86627857D01*
X142061428Y-86663571D01*
X141990000Y-86699285D01*
X141811428Y-86699285D01*
X141740000Y-86663571D01*
X141704285Y-86627857D01*
X142347142Y-85949285D02*
X142597142Y-86699285D01*
X142847142Y-85949285D01*
X141347142Y-89203571D02*
X141454285Y-89239285D01*
X141632857Y-89239285D01*
X141704285Y-89203571D01*
X141740000Y-89167857D01*
X141775714Y-89096428D01*
X141775714Y-89025000D01*
X141740000Y-88953571D01*
X141704285Y-88917857D01*
X141632857Y-88882142D01*
X141490000Y-88846428D01*
X141418571Y-88810714D01*
X141382857Y-88775000D01*
X141347142Y-88703571D01*
X141347142Y-88632142D01*
X141382857Y-88560714D01*
X141418571Y-88525000D01*
X141490000Y-88489285D01*
X141668571Y-88489285D01*
X141775714Y-88525000D01*
X142525714Y-89167857D02*
X142490000Y-89203571D01*
X142382857Y-89239285D01*
X142311428Y-89239285D01*
X142204285Y-89203571D01*
X142132857Y-89132142D01*
X142097142Y-89060714D01*
X142061428Y-88917857D01*
X142061428Y-88810714D01*
X142097142Y-88667857D01*
X142132857Y-88596428D01*
X142204285Y-88525000D01*
X142311428Y-88489285D01*
X142382857Y-88489285D01*
X142490000Y-88525000D01*
X142525714Y-88560714D01*
X143204285Y-89239285D02*
X142847142Y-89239285D01*
X142847142Y-88489285D01*
X141329285Y-91743571D02*
X141436428Y-91779285D01*
X141615000Y-91779285D01*
X141686428Y-91743571D01*
X141722142Y-91707857D01*
X141757857Y-91636428D01*
X141757857Y-91565000D01*
X141722142Y-91493571D01*
X141686428Y-91457857D01*
X141615000Y-91422142D01*
X141472142Y-91386428D01*
X141400714Y-91350714D01*
X141365000Y-91315000D01*
X141329285Y-91243571D01*
X141329285Y-91172142D01*
X141365000Y-91100714D01*
X141400714Y-91065000D01*
X141472142Y-91029285D01*
X141650714Y-91029285D01*
X141757857Y-91065000D01*
X142079285Y-91779285D02*
X142079285Y-91029285D01*
X142257857Y-91029285D01*
X142365000Y-91065000D01*
X142436428Y-91136428D01*
X142472142Y-91207857D01*
X142507857Y-91350714D01*
X142507857Y-91457857D01*
X142472142Y-91600714D01*
X142436428Y-91672142D01*
X142365000Y-91743571D01*
X142257857Y-91779285D01*
X142079285Y-91779285D01*
X142793571Y-91565000D02*
X143150714Y-91565000D01*
X142722142Y-91779285D02*
X142972142Y-91029285D01*
X143222142Y-91779285D01*
X141668571Y-93605000D02*
X141597142Y-93569285D01*
X141490000Y-93569285D01*
X141382857Y-93605000D01*
X141311428Y-93676428D01*
X141275714Y-93747857D01*
X141240000Y-93890714D01*
X141240000Y-93997857D01*
X141275714Y-94140714D01*
X141311428Y-94212142D01*
X141382857Y-94283571D01*
X141490000Y-94319285D01*
X141561428Y-94319285D01*
X141668571Y-94283571D01*
X141704285Y-94247857D01*
X141704285Y-93997857D01*
X141561428Y-93997857D01*
X142025714Y-94319285D02*
X142025714Y-93569285D01*
X142454285Y-94319285D01*
X142454285Y-93569285D01*
X142811428Y-94319285D02*
X142811428Y-93569285D01*
X142990000Y-93569285D01*
X143097142Y-93605000D01*
X143168571Y-93676428D01*
X143204285Y-93747857D01*
X143240000Y-93890714D01*
X143240000Y-93997857D01*
X143204285Y-94140714D01*
X143168571Y-94212142D01*
X143097142Y-94283571D01*
X142990000Y-94319285D01*
X142811428Y-94319285D01*
X141668571Y-78365000D02*
X141597142Y-78329285D01*
X141490000Y-78329285D01*
X141382857Y-78365000D01*
X141311428Y-78436428D01*
X141275714Y-78507857D01*
X141240000Y-78650714D01*
X141240000Y-78757857D01*
X141275714Y-78900714D01*
X141311428Y-78972142D01*
X141382857Y-79043571D01*
X141490000Y-79079285D01*
X141561428Y-79079285D01*
X141668571Y-79043571D01*
X141704285Y-79007857D01*
X141704285Y-78757857D01*
X141561428Y-78757857D01*
X142025714Y-79079285D02*
X142025714Y-78329285D01*
X142454285Y-79079285D01*
X142454285Y-78329285D01*
X142811428Y-79079285D02*
X142811428Y-78329285D01*
X142990000Y-78329285D01*
X143097142Y-78365000D01*
X143168571Y-78436428D01*
X143204285Y-78507857D01*
X143240000Y-78650714D01*
X143240000Y-78757857D01*
X143204285Y-78900714D01*
X143168571Y-78972142D01*
X143097142Y-79043571D01*
X142990000Y-79079285D01*
X142811428Y-79079285D01*
X141329285Y-76503571D02*
X141436428Y-76539285D01*
X141615000Y-76539285D01*
X141686428Y-76503571D01*
X141722142Y-76467857D01*
X141757857Y-76396428D01*
X141757857Y-76325000D01*
X141722142Y-76253571D01*
X141686428Y-76217857D01*
X141615000Y-76182142D01*
X141472142Y-76146428D01*
X141400714Y-76110714D01*
X141365000Y-76075000D01*
X141329285Y-76003571D01*
X141329285Y-75932142D01*
X141365000Y-75860714D01*
X141400714Y-75825000D01*
X141472142Y-75789285D01*
X141650714Y-75789285D01*
X141757857Y-75825000D01*
X142079285Y-76539285D02*
X142079285Y-75789285D01*
X142257857Y-75789285D01*
X142365000Y-75825000D01*
X142436428Y-75896428D01*
X142472142Y-75967857D01*
X142507857Y-76110714D01*
X142507857Y-76217857D01*
X142472142Y-76360714D01*
X142436428Y-76432142D01*
X142365000Y-76503571D01*
X142257857Y-76539285D01*
X142079285Y-76539285D01*
X142793571Y-76325000D02*
X143150714Y-76325000D01*
X142722142Y-76539285D02*
X142972142Y-75789285D01*
X143222142Y-76539285D01*
X141347142Y-73963571D02*
X141454285Y-73999285D01*
X141632857Y-73999285D01*
X141704285Y-73963571D01*
X141740000Y-73927857D01*
X141775714Y-73856428D01*
X141775714Y-73785000D01*
X141740000Y-73713571D01*
X141704285Y-73677857D01*
X141632857Y-73642142D01*
X141490000Y-73606428D01*
X141418571Y-73570714D01*
X141382857Y-73535000D01*
X141347142Y-73463571D01*
X141347142Y-73392142D01*
X141382857Y-73320714D01*
X141418571Y-73285000D01*
X141490000Y-73249285D01*
X141668571Y-73249285D01*
X141775714Y-73285000D01*
X142525714Y-73927857D02*
X142490000Y-73963571D01*
X142382857Y-73999285D01*
X142311428Y-73999285D01*
X142204285Y-73963571D01*
X142132857Y-73892142D01*
X142097142Y-73820714D01*
X142061428Y-73677857D01*
X142061428Y-73570714D01*
X142097142Y-73427857D01*
X142132857Y-73356428D01*
X142204285Y-73285000D01*
X142311428Y-73249285D01*
X142382857Y-73249285D01*
X142490000Y-73285000D01*
X142525714Y-73320714D01*
X143204285Y-73999285D02*
X142847142Y-73999285D01*
X142847142Y-73249285D01*
X142097142Y-70709285D02*
X141740000Y-70709285D01*
X141704285Y-71066428D01*
X141740000Y-71030714D01*
X141811428Y-70995000D01*
X141990000Y-70995000D01*
X142061428Y-71030714D01*
X142097142Y-71066428D01*
X142132857Y-71137857D01*
X142132857Y-71316428D01*
X142097142Y-71387857D01*
X142061428Y-71423571D01*
X141990000Y-71459285D01*
X141811428Y-71459285D01*
X141740000Y-71423571D01*
X141704285Y-71387857D01*
X142347142Y-70709285D02*
X142597142Y-71459285D01*
X142847142Y-70709285D01*
X141944285Y-65854285D02*
X141194285Y-65854285D01*
X141551428Y-65854285D02*
X141551428Y-65425714D01*
X141944285Y-65425714D02*
X141194285Y-65425714D01*
X141908571Y-64782857D02*
X141944285Y-64854285D01*
X141944285Y-64997142D01*
X141908571Y-65068571D01*
X141837142Y-65104285D01*
X141551428Y-65104285D01*
X141480000Y-65068571D01*
X141444285Y-64997142D01*
X141444285Y-64854285D01*
X141480000Y-64782857D01*
X141551428Y-64747142D01*
X141622857Y-64747142D01*
X141694285Y-65104285D01*
X141158571Y-64854285D02*
X141265714Y-64961428D01*
X141944285Y-64425714D02*
X141444285Y-64425714D01*
X141515714Y-64425714D02*
X141480000Y-64390000D01*
X141444285Y-64318571D01*
X141444285Y-64211428D01*
X141480000Y-64140000D01*
X141551428Y-64104285D01*
X141944285Y-64104285D01*
X141551428Y-64104285D02*
X141480000Y-64068571D01*
X141444285Y-63997142D01*
X141444285Y-63890000D01*
X141480000Y-63818571D01*
X141551428Y-63782857D01*
X141944285Y-63782857D01*
X141944285Y-63425714D02*
X141444285Y-63425714D01*
X141194285Y-63425714D02*
X141230000Y-63461428D01*
X141265714Y-63425714D01*
X141230000Y-63390000D01*
X141194285Y-63425714D01*
X141265714Y-63425714D01*
X141908571Y-63104285D02*
X141944285Y-63032857D01*
X141944285Y-62890000D01*
X141908571Y-62818571D01*
X141837142Y-62782857D01*
X141801428Y-62782857D01*
X141730000Y-62818571D01*
X141694285Y-62890000D01*
X141694285Y-62997142D01*
X141658571Y-63068571D01*
X141587142Y-63104285D01*
X141551428Y-63104285D01*
X141480000Y-63068571D01*
X141444285Y-62997142D01*
X141444285Y-62890000D01*
X141480000Y-62818571D01*
X141444285Y-62461428D02*
X142194285Y-62461428D01*
X141480000Y-62461428D02*
X141444285Y-62390000D01*
X141444285Y-62247142D01*
X141480000Y-62175714D01*
X141515714Y-62140000D01*
X141587142Y-62104285D01*
X141801428Y-62104285D01*
X141872857Y-62140000D01*
X141908571Y-62175714D01*
X141944285Y-62247142D01*
X141944285Y-62390000D01*
X141908571Y-62461428D01*
X141944285Y-61782857D02*
X141194285Y-61782857D01*
X141944285Y-61461428D02*
X141551428Y-61461428D01*
X141480000Y-61497142D01*
X141444285Y-61568571D01*
X141444285Y-61675714D01*
X141480000Y-61747142D01*
X141515714Y-61782857D01*
X141908571Y-60818571D02*
X141944285Y-60890000D01*
X141944285Y-61032857D01*
X141908571Y-61104285D01*
X141837142Y-61140000D01*
X141551428Y-61140000D01*
X141480000Y-61104285D01*
X141444285Y-61032857D01*
X141444285Y-60890000D01*
X141480000Y-60818571D01*
X141551428Y-60782857D01*
X141622857Y-60782857D01*
X141694285Y-61140000D01*
X141158571Y-61032857D02*
X141265714Y-60925714D01*
X141944285Y-60461428D02*
X141444285Y-60461428D01*
X141587142Y-60461428D02*
X141515714Y-60425714D01*
X141480000Y-60390000D01*
X141444285Y-60318571D01*
X141444285Y-60247142D01*
X141908571Y-59711428D02*
X141944285Y-59782857D01*
X141944285Y-59925714D01*
X141908571Y-59997142D01*
X141837142Y-60032857D01*
X141551428Y-60032857D01*
X141480000Y-59997142D01*
X141444285Y-59925714D01*
X141444285Y-59782857D01*
X141480000Y-59711428D01*
X141551428Y-59675714D01*
X141622857Y-59675714D01*
X141694285Y-60032857D01*
X141158571Y-58247142D02*
X142122857Y-58890000D01*
X141872857Y-56997142D02*
X141908571Y-57032857D01*
X141944285Y-57140000D01*
X141944285Y-57211428D01*
X141908571Y-57318571D01*
X141837142Y-57390000D01*
X141765714Y-57425714D01*
X141622857Y-57461428D01*
X141515714Y-57461428D01*
X141372857Y-57425714D01*
X141301428Y-57390000D01*
X141230000Y-57318571D01*
X141194285Y-57211428D01*
X141194285Y-57140000D01*
X141230000Y-57032857D01*
X141265714Y-56997142D01*
X141944285Y-56675714D02*
X141194285Y-56675714D01*
X141944285Y-56354285D02*
X141551428Y-56354285D01*
X141480000Y-56390000D01*
X141444285Y-56461428D01*
X141444285Y-56568571D01*
X141480000Y-56640000D01*
X141515714Y-56675714D01*
X141908571Y-55711428D02*
X141944285Y-55782857D01*
X141944285Y-55925714D01*
X141908571Y-55997142D01*
X141837142Y-56032857D01*
X141551428Y-56032857D01*
X141480000Y-55997142D01*
X141444285Y-55925714D01*
X141444285Y-55782857D01*
X141480000Y-55711428D01*
X141551428Y-55675714D01*
X141622857Y-55675714D01*
X141694285Y-56032857D01*
X141444285Y-55425714D02*
X141944285Y-55247142D01*
X141444285Y-55068571D01*
X141944285Y-54461428D02*
X141551428Y-54461428D01*
X141480000Y-54497142D01*
X141444285Y-54568571D01*
X141444285Y-54711428D01*
X141480000Y-54782857D01*
X141908571Y-54461428D02*
X141944285Y-54532857D01*
X141944285Y-54711428D01*
X141908571Y-54782857D01*
X141837142Y-54818571D01*
X141765714Y-54818571D01*
X141694285Y-54782857D01*
X141658571Y-54711428D01*
X141658571Y-54532857D01*
X141622857Y-54461428D01*
X141944285Y-53997142D02*
X141908571Y-54068571D01*
X141837142Y-54104285D01*
X141194285Y-54104285D01*
X141444285Y-53782857D02*
X141944285Y-53604285D01*
X141444285Y-53425714D01*
X141908571Y-52854285D02*
X141944285Y-52925714D01*
X141944285Y-53068571D01*
X141908571Y-53140000D01*
X141837142Y-53175714D01*
X141551428Y-53175714D01*
X141480000Y-53140000D01*
X141444285Y-53068571D01*
X141444285Y-52925714D01*
X141480000Y-52854285D01*
X141551428Y-52818571D01*
X141622857Y-52818571D01*
X141694285Y-53175714D01*
X141944285Y-52497142D02*
X141444285Y-52497142D01*
X141587142Y-52497142D02*
X141515714Y-52461428D01*
X141480000Y-52425714D01*
X141444285Y-52354285D01*
X141444285Y-52282857D01*
X141444285Y-52140000D02*
X141444285Y-51854285D01*
X141194285Y-52032857D02*
X141837142Y-52032857D01*
X141908571Y-51997142D01*
X141944285Y-51925714D01*
X141944285Y-51854285D01*
X141158571Y-50497142D02*
X142122857Y-51140000D01*
X141265714Y-49711428D02*
X141230000Y-49675714D01*
X141194285Y-49604285D01*
X141194285Y-49425714D01*
X141230000Y-49354285D01*
X141265714Y-49318571D01*
X141337142Y-49282857D01*
X141408571Y-49282857D01*
X141515714Y-49318571D01*
X141944285Y-49747142D01*
X141944285Y-49282857D01*
X141194285Y-48818571D02*
X141194285Y-48747142D01*
X141230000Y-48675714D01*
X141265714Y-48640000D01*
X141337142Y-48604285D01*
X141480000Y-48568571D01*
X141658571Y-48568571D01*
X141801428Y-48604285D01*
X141872857Y-48640000D01*
X141908571Y-48675714D01*
X141944285Y-48747142D01*
X141944285Y-48818571D01*
X141908571Y-48890000D01*
X141872857Y-48925714D01*
X141801428Y-48961428D01*
X141658571Y-48997142D01*
X141480000Y-48997142D01*
X141337142Y-48961428D01*
X141265714Y-48925714D01*
X141230000Y-48890000D01*
X141194285Y-48818571D01*
X141265714Y-48282857D02*
X141230000Y-48247142D01*
X141194285Y-48175714D01*
X141194285Y-47997142D01*
X141230000Y-47925714D01*
X141265714Y-47890000D01*
X141337142Y-47854285D01*
X141408571Y-47854285D01*
X141515714Y-47890000D01*
X141944285Y-48318571D01*
X141944285Y-47854285D01*
X141944285Y-47140000D02*
X141944285Y-47568571D01*
X141944285Y-47354285D02*
X141194285Y-47354285D01*
X141301428Y-47425714D01*
X141372857Y-47497142D01*
X141408571Y-47568571D01*
D11*
X138957857Y-65495714D02*
X138957857Y-65995714D01*
X139743571Y-65995714D02*
X138243571Y-65995714D01*
X138243571Y-65281428D01*
X139315000Y-64781428D02*
X139315000Y-64067142D01*
X139743571Y-64924285D02*
X138243571Y-64424285D01*
X139743571Y-63924285D01*
X139743571Y-62567142D02*
X139029285Y-63067142D01*
X139743571Y-63424285D02*
X138243571Y-63424285D01*
X138243571Y-62852857D01*
X138315000Y-62710000D01*
X138386428Y-62638571D01*
X138529285Y-62567142D01*
X138743571Y-62567142D01*
X138886428Y-62638571D01*
X138957857Y-62710000D01*
X139029285Y-62852857D01*
X139029285Y-63424285D01*
X139315000Y-60852857D02*
X139315000Y-60138571D01*
X139743571Y-60995714D02*
X138243571Y-60495714D01*
X139743571Y-59995714D01*
X138243571Y-59638571D02*
X139743571Y-59281428D01*
X138672142Y-58995714D01*
X139743571Y-58710000D01*
X138243571Y-58352857D01*
X139315000Y-57852857D02*
X139315000Y-57138571D01*
X139743571Y-57995714D02*
X138243571Y-57495714D01*
X139743571Y-56995714D01*
X139029285Y-56210000D02*
X139743571Y-56210000D01*
X138243571Y-56710000D02*
X139029285Y-56210000D01*
X138243571Y-55710000D01*
D12*
X118110000Y-50800000D02*
X118110000Y-49530000D01*
X125730000Y-50800000D02*
X118110000Y-50800000D01*
X125730000Y-49530000D02*
X125730000Y-50800000D01*
D10*
X100393571Y-50425000D02*
X100322142Y-50389285D01*
X100215000Y-50389285D01*
X100107857Y-50425000D01*
X100036428Y-50496428D01*
X100000714Y-50567857D01*
X99965000Y-50710714D01*
X99965000Y-50817857D01*
X100000714Y-50960714D01*
X100036428Y-51032142D01*
X100107857Y-51103571D01*
X100215000Y-51139285D01*
X100286428Y-51139285D01*
X100393571Y-51103571D01*
X100429285Y-51067857D01*
X100429285Y-50817857D01*
X100286428Y-50817857D01*
X100750714Y-51139285D02*
X100750714Y-50389285D01*
X101179285Y-51139285D01*
X101179285Y-50389285D01*
X101536428Y-51139285D02*
X101536428Y-50389285D01*
X101715000Y-50389285D01*
X101822142Y-50425000D01*
X101893571Y-50496428D01*
X101929285Y-50567857D01*
X101965000Y-50710714D01*
X101965000Y-50817857D01*
X101929285Y-50960714D01*
X101893571Y-51032142D01*
X101822142Y-51103571D01*
X101715000Y-51139285D01*
X101536428Y-51139285D01*
X100822142Y-47849285D02*
X100465000Y-47849285D01*
X100429285Y-48206428D01*
X100465000Y-48170714D01*
X100536428Y-48135000D01*
X100715000Y-48135000D01*
X100786428Y-48170714D01*
X100822142Y-48206428D01*
X100857857Y-48277857D01*
X100857857Y-48456428D01*
X100822142Y-48527857D01*
X100786428Y-48563571D01*
X100715000Y-48599285D01*
X100536428Y-48599285D01*
X100465000Y-48563571D01*
X100429285Y-48527857D01*
X101072142Y-47849285D02*
X101322142Y-48599285D01*
X101572142Y-47849285D01*
X99911428Y-71459285D02*
X99911428Y-70709285D01*
X99911428Y-71066428D02*
X100340000Y-71066428D01*
X100340000Y-71459285D02*
X100340000Y-70709285D01*
X100697142Y-71459285D02*
X100697142Y-70709285D01*
X100982857Y-70709285D01*
X101054285Y-70745000D01*
X101090000Y-70780714D01*
X101125714Y-70852142D01*
X101125714Y-70959285D01*
X101090000Y-71030714D01*
X101054285Y-71066428D01*
X100982857Y-71102142D01*
X100697142Y-71102142D01*
X101447142Y-71173571D02*
X102018571Y-71173571D01*
X99911428Y-68919285D02*
X99911428Y-68169285D01*
X99911428Y-68526428D02*
X100340000Y-68526428D01*
X100340000Y-68919285D02*
X100340000Y-68169285D01*
X100697142Y-68919285D02*
X100697142Y-68169285D01*
X100982857Y-68169285D01*
X101054285Y-68205000D01*
X101090000Y-68240714D01*
X101125714Y-68312142D01*
X101125714Y-68419285D01*
X101090000Y-68490714D01*
X101054285Y-68526428D01*
X100982857Y-68562142D01*
X100697142Y-68562142D01*
X101447142Y-68633571D02*
X102018571Y-68633571D01*
X101732857Y-68919285D02*
X101732857Y-68347857D01*
X100393571Y-60585000D02*
X100322142Y-60549285D01*
X100215000Y-60549285D01*
X100107857Y-60585000D01*
X100036428Y-60656428D01*
X100000714Y-60727857D01*
X99965000Y-60870714D01*
X99965000Y-60977857D01*
X100000714Y-61120714D01*
X100036428Y-61192142D01*
X100107857Y-61263571D01*
X100215000Y-61299285D01*
X100286428Y-61299285D01*
X100393571Y-61263571D01*
X100429285Y-61227857D01*
X100429285Y-60977857D01*
X100286428Y-60977857D01*
X100750714Y-61299285D02*
X100750714Y-60549285D01*
X101179285Y-61299285D01*
X101179285Y-60549285D01*
X101536428Y-61299285D02*
X101536428Y-60549285D01*
X101715000Y-60549285D01*
X101822142Y-60585000D01*
X101893571Y-60656428D01*
X101929285Y-60727857D01*
X101965000Y-60870714D01*
X101965000Y-60977857D01*
X101929285Y-61120714D01*
X101893571Y-61192142D01*
X101822142Y-61263571D01*
X101715000Y-61299285D01*
X101536428Y-61299285D01*
X99875714Y-58759285D02*
X99875714Y-58009285D01*
X100054285Y-58009285D01*
X100161428Y-58045000D01*
X100232857Y-58116428D01*
X100268571Y-58187857D01*
X100304285Y-58330714D01*
X100304285Y-58437857D01*
X100268571Y-58580714D01*
X100232857Y-58652142D01*
X100161428Y-58723571D01*
X100054285Y-58759285D01*
X99875714Y-58759285D01*
X100947142Y-58759285D02*
X100947142Y-58366428D01*
X100911428Y-58295000D01*
X100840000Y-58259285D01*
X100697142Y-58259285D01*
X100625714Y-58295000D01*
X100947142Y-58723571D02*
X100875714Y-58759285D01*
X100697142Y-58759285D01*
X100625714Y-58723571D01*
X100590000Y-58652142D01*
X100590000Y-58580714D01*
X100625714Y-58509285D01*
X100697142Y-58473571D01*
X100875714Y-58473571D01*
X100947142Y-58437857D01*
X101197142Y-58259285D02*
X101482857Y-58259285D01*
X101304285Y-58009285D02*
X101304285Y-58652142D01*
X101340000Y-58723571D01*
X101411428Y-58759285D01*
X101482857Y-58759285D01*
X102054285Y-58759285D02*
X102054285Y-58366428D01*
X102018571Y-58295000D01*
X101947142Y-58259285D01*
X101804285Y-58259285D01*
X101732857Y-58295000D01*
X102054285Y-58723571D02*
X101982857Y-58759285D01*
X101804285Y-58759285D01*
X101732857Y-58723571D01*
X101697142Y-58652142D01*
X101697142Y-58580714D01*
X101732857Y-58509285D01*
X101804285Y-58473571D01*
X101982857Y-58473571D01*
X102054285Y-58437857D01*
X116564285Y-81619285D02*
X116564285Y-80869285D01*
X116742857Y-80869285D01*
X116850000Y-80905000D01*
X116921428Y-80976428D01*
X116957142Y-81047857D01*
X116992857Y-81190714D01*
X116992857Y-81297857D01*
X116957142Y-81440714D01*
X116921428Y-81512142D01*
X116850000Y-81583571D01*
X116742857Y-81619285D01*
X116564285Y-81619285D01*
X117278571Y-80940714D02*
X117314285Y-80905000D01*
X117385714Y-80869285D01*
X117564285Y-80869285D01*
X117635714Y-80905000D01*
X117671428Y-80940714D01*
X117707142Y-81012142D01*
X117707142Y-81083571D01*
X117671428Y-81190714D01*
X117242857Y-81619285D01*
X117707142Y-81619285D01*
X118421428Y-81619285D02*
X117992857Y-81619285D01*
X118207142Y-81619285D02*
X118207142Y-80869285D01*
X118135714Y-80976428D01*
X118064285Y-81047857D01*
X117992857Y-81083571D01*
X116564285Y-79079285D02*
X116564285Y-78329285D01*
X116742857Y-78329285D01*
X116850000Y-78365000D01*
X116921428Y-78436428D01*
X116957142Y-78507857D01*
X116992857Y-78650714D01*
X116992857Y-78757857D01*
X116957142Y-78900714D01*
X116921428Y-78972142D01*
X116850000Y-79043571D01*
X116742857Y-79079285D01*
X116564285Y-79079285D01*
X117707142Y-79079285D02*
X117278571Y-79079285D01*
X117492857Y-79079285D02*
X117492857Y-78329285D01*
X117421428Y-78436428D01*
X117350000Y-78507857D01*
X117278571Y-78543571D01*
X118064285Y-79079285D02*
X118207142Y-79079285D01*
X118278571Y-79043571D01*
X118314285Y-79007857D01*
X118385714Y-78900714D01*
X118421428Y-78757857D01*
X118421428Y-78472142D01*
X118385714Y-78400714D01*
X118350000Y-78365000D01*
X118278571Y-78329285D01*
X118135714Y-78329285D01*
X118064285Y-78365000D01*
X118028571Y-78400714D01*
X117992857Y-78472142D01*
X117992857Y-78650714D01*
X118028571Y-78722142D01*
X118064285Y-78757857D01*
X118135714Y-78793571D01*
X118278571Y-78793571D01*
X118350000Y-78757857D01*
X118385714Y-78722142D01*
X118421428Y-78650714D01*
X116564285Y-76539285D02*
X116564285Y-75789285D01*
X116742857Y-75789285D01*
X116850000Y-75825000D01*
X116921428Y-75896428D01*
X116957142Y-75967857D01*
X116992857Y-76110714D01*
X116992857Y-76217857D01*
X116957142Y-76360714D01*
X116921428Y-76432142D01*
X116850000Y-76503571D01*
X116742857Y-76539285D01*
X116564285Y-76539285D01*
X117707142Y-76539285D02*
X117278571Y-76539285D01*
X117492857Y-76539285D02*
X117492857Y-75789285D01*
X117421428Y-75896428D01*
X117350000Y-75967857D01*
X117278571Y-76003571D01*
X118135714Y-76110714D02*
X118064285Y-76075000D01*
X118028571Y-76039285D01*
X117992857Y-75967857D01*
X117992857Y-75932142D01*
X118028571Y-75860714D01*
X118064285Y-75825000D01*
X118135714Y-75789285D01*
X118278571Y-75789285D01*
X118350000Y-75825000D01*
X118385714Y-75860714D01*
X118421428Y-75932142D01*
X118421428Y-75967857D01*
X118385714Y-76039285D01*
X118350000Y-76075000D01*
X118278571Y-76110714D01*
X118135714Y-76110714D01*
X118064285Y-76146428D01*
X118028571Y-76182142D01*
X117992857Y-76253571D01*
X117992857Y-76396428D01*
X118028571Y-76467857D01*
X118064285Y-76503571D01*
X118135714Y-76539285D01*
X118278571Y-76539285D01*
X118350000Y-76503571D01*
X118385714Y-76467857D01*
X118421428Y-76396428D01*
X118421428Y-76253571D01*
X118385714Y-76182142D01*
X118350000Y-76146428D01*
X118278571Y-76110714D01*
D11*
X119396190Y-52888571D02*
X119729523Y-52888571D01*
X119872380Y-53412380D02*
X119396190Y-53412380D01*
X119396190Y-52412380D01*
X119872380Y-52412380D01*
X120253333Y-53364761D02*
X120396190Y-53412380D01*
X120634285Y-53412380D01*
X120729523Y-53364761D01*
X120777142Y-53317142D01*
X120824761Y-53221904D01*
X120824761Y-53126666D01*
X120777142Y-53031428D01*
X120729523Y-52983809D01*
X120634285Y-52936190D01*
X120443809Y-52888571D01*
X120348571Y-52840952D01*
X120300952Y-52793333D01*
X120253333Y-52698095D01*
X120253333Y-52602857D01*
X120300952Y-52507619D01*
X120348571Y-52460000D01*
X120443809Y-52412380D01*
X120681904Y-52412380D01*
X120824761Y-52460000D01*
X121253333Y-53412380D02*
X121253333Y-52412380D01*
X121634285Y-52412380D01*
X121729523Y-52460000D01*
X121777142Y-52507619D01*
X121824761Y-52602857D01*
X121824761Y-52745714D01*
X121777142Y-52840952D01*
X121729523Y-52888571D01*
X121634285Y-52936190D01*
X121253333Y-52936190D01*
X122158095Y-52412380D02*
X122777142Y-52412380D01*
X122443809Y-52793333D01*
X122586666Y-52793333D01*
X122681904Y-52840952D01*
X122729523Y-52888571D01*
X122777142Y-52983809D01*
X122777142Y-53221904D01*
X122729523Y-53317142D01*
X122681904Y-53364761D01*
X122586666Y-53412380D01*
X122300952Y-53412380D01*
X122205714Y-53364761D01*
X122158095Y-53317142D01*
X123158095Y-52507619D02*
X123205714Y-52460000D01*
X123300952Y-52412380D01*
X123539047Y-52412380D01*
X123634285Y-52460000D01*
X123681904Y-52507619D01*
X123729523Y-52602857D01*
X123729523Y-52698095D01*
X123681904Y-52840952D01*
X123110476Y-53412380D01*
X123729523Y-53412380D01*
X118753333Y-55062380D02*
X118753333Y-54062380D01*
X118991428Y-54062380D01*
X119134285Y-54110000D01*
X119229523Y-54205238D01*
X119277142Y-54300476D01*
X119324761Y-54490952D01*
X119324761Y-54633809D01*
X119277142Y-54824285D01*
X119229523Y-54919523D01*
X119134285Y-55014761D01*
X118991428Y-55062380D01*
X118753333Y-55062380D01*
X119753333Y-54538571D02*
X120086666Y-54538571D01*
X120229523Y-55062380D02*
X119753333Y-55062380D01*
X119753333Y-54062380D01*
X120229523Y-54062380D01*
X120515238Y-54062380D02*
X120848571Y-55062380D01*
X121181904Y-54062380D01*
X121515238Y-55062380D02*
X121515238Y-54062380D01*
X122086666Y-55062380D02*
X121658095Y-54490952D01*
X122086666Y-54062380D02*
X121515238Y-54633809D01*
X122515238Y-55062380D02*
X122515238Y-54062380D01*
X122848571Y-54062380D02*
X123420000Y-54062380D01*
X123134285Y-55062380D02*
X123134285Y-54062380D01*
X123610476Y-54062380D02*
X123943809Y-55062380D01*
X124277142Y-54062380D01*
X125134285Y-55062380D02*
X124562857Y-55062380D01*
X124848571Y-55062380D02*
X124848571Y-54062380D01*
X124753333Y-54205238D01*
X124658095Y-54300476D01*
X124562857Y-54348095D01*
X119920000Y-55712380D02*
X120539047Y-55712380D01*
X120205714Y-56093333D01*
X120348571Y-56093333D01*
X120443809Y-56140952D01*
X120491428Y-56188571D01*
X120539047Y-56283809D01*
X120539047Y-56521904D01*
X120491428Y-56617142D01*
X120443809Y-56664761D01*
X120348571Y-56712380D01*
X120062857Y-56712380D01*
X119967619Y-56664761D01*
X119920000Y-56617142D01*
X121158095Y-55712380D02*
X121253333Y-55712380D01*
X121348571Y-55760000D01*
X121396190Y-55807619D01*
X121443809Y-55902857D01*
X121491428Y-56093333D01*
X121491428Y-56331428D01*
X121443809Y-56521904D01*
X121396190Y-56617142D01*
X121348571Y-56664761D01*
X121253333Y-56712380D01*
X121158095Y-56712380D01*
X121062857Y-56664761D01*
X121015238Y-56617142D01*
X120967619Y-56521904D01*
X120920000Y-56331428D01*
X120920000Y-56093333D01*
X120967619Y-55902857D01*
X121015238Y-55807619D01*
X121062857Y-55760000D01*
X121158095Y-55712380D01*
X121920000Y-56712380D02*
X121920000Y-55712380D01*
X122300952Y-55712380D01*
X122396190Y-55760000D01*
X122443809Y-55807619D01*
X122491428Y-55902857D01*
X122491428Y-56045714D01*
X122443809Y-56140952D01*
X122396190Y-56188571D01*
X122300952Y-56236190D01*
X121920000Y-56236190D01*
X122920000Y-56712380D02*
X122920000Y-56045714D01*
X122920000Y-55712380D02*
X122872380Y-55760000D01*
X122920000Y-55807619D01*
X122967619Y-55760000D01*
X122920000Y-55712380D01*
X122920000Y-55807619D01*
X123396190Y-56045714D02*
X123396190Y-56712380D01*
X123396190Y-56140952D02*
X123443809Y-56093333D01*
X123539047Y-56045714D01*
X123681904Y-56045714D01*
X123777142Y-56093333D01*
X123824761Y-56188571D01*
X123824761Y-56712380D01*
D12*
X118110000Y-49530000D02*
X118110000Y-46990000D01*
X125730000Y-46990000D02*
X125730000Y-49530000D01*
X107950000Y-96520000D02*
X109220000Y-96520000D01*
X107950000Y-92710000D02*
X107950000Y-96520000D01*
X135890000Y-96520000D02*
X134620000Y-96520000D01*
X135890000Y-92710000D02*
X135890000Y-96520000D01*
X107950000Y-46990000D02*
X107950000Y-58420000D01*
X109220000Y-46990000D02*
X107950000Y-46990000D01*
X135890000Y-46990000D02*
X135890000Y-54610000D01*
X134620000Y-46990000D02*
X135890000Y-46990000D01*
X134620000Y-46990000D02*
X109220000Y-46990000D01*
X134620000Y-96520000D02*
X109220000Y-96520000D01*
D11*
X120658095Y-48347380D02*
X120658095Y-49156904D01*
X120705714Y-49252142D01*
X120753333Y-49299761D01*
X120848571Y-49347380D01*
X121039047Y-49347380D01*
X121134285Y-49299761D01*
X121181904Y-49252142D01*
X121229523Y-49156904D01*
X121229523Y-48347380D01*
X121658095Y-49299761D02*
X121800952Y-49347380D01*
X122039047Y-49347380D01*
X122134285Y-49299761D01*
X122181904Y-49252142D01*
X122229523Y-49156904D01*
X122229523Y-49061666D01*
X122181904Y-48966428D01*
X122134285Y-48918809D01*
X122039047Y-48871190D01*
X121848571Y-48823571D01*
X121753333Y-48775952D01*
X121705714Y-48728333D01*
X121658095Y-48633095D01*
X121658095Y-48537857D01*
X121705714Y-48442619D01*
X121753333Y-48395000D01*
X121848571Y-48347380D01*
X122086666Y-48347380D01*
X122229523Y-48395000D01*
X122991428Y-48823571D02*
X123134285Y-48871190D01*
X123181904Y-48918809D01*
X123229523Y-49014047D01*
X123229523Y-49156904D01*
X123181904Y-49252142D01*
X123134285Y-49299761D01*
X123039047Y-49347380D01*
X122658095Y-49347380D01*
X122658095Y-48347380D01*
X122991428Y-48347380D01*
X123086666Y-48395000D01*
X123134285Y-48442619D01*
X123181904Y-48537857D01*
X123181904Y-48633095D01*
X123134285Y-48728333D01*
X123086666Y-48775952D01*
X122991428Y-48823571D01*
X122658095Y-48823571D01*
X112212380Y-102623809D02*
X111736190Y-102957142D01*
X112212380Y-103195238D02*
X111212380Y-103195238D01*
X111212380Y-102814285D01*
X111260000Y-102719047D01*
X111307619Y-102671428D01*
X111402857Y-102623809D01*
X111545714Y-102623809D01*
X111640952Y-102671428D01*
X111688571Y-102719047D01*
X111736190Y-102814285D01*
X111736190Y-103195238D01*
X111212380Y-101909523D02*
X111926666Y-101909523D01*
X112069523Y-101957142D01*
X112164761Y-102052380D01*
X112212380Y-102195238D01*
X112212380Y-102290476D01*
X111545714Y-101004761D02*
X112212380Y-101004761D01*
X111164761Y-101242857D02*
X111879047Y-101480952D01*
X111879047Y-100861904D01*
X111212380Y-100004761D02*
X111212380Y-100480952D01*
X111688571Y-100528571D01*
X111640952Y-100480952D01*
X111593333Y-100385714D01*
X111593333Y-100147619D01*
X111640952Y-100052380D01*
X111688571Y-100004761D01*
X111783809Y-99957142D01*
X112021904Y-99957142D01*
X112117142Y-100004761D01*
X112164761Y-100052380D01*
X112212380Y-100147619D01*
X112212380Y-100385714D01*
X112164761Y-100480952D01*
X112117142Y-100528571D01*
D10*
X115159285Y-99094285D02*
X115159285Y-99451428D01*
X115516428Y-99487142D01*
X115480714Y-99451428D01*
X115445000Y-99380000D01*
X115445000Y-99201428D01*
X115480714Y-99130000D01*
X115516428Y-99094285D01*
X115587857Y-99058571D01*
X115766428Y-99058571D01*
X115837857Y-99094285D01*
X115873571Y-99130000D01*
X115909285Y-99201428D01*
X115909285Y-99380000D01*
X115873571Y-99451428D01*
X115837857Y-99487142D01*
X115159285Y-98844285D02*
X115909285Y-98594285D01*
X115159285Y-98344285D01*
X117735000Y-99058571D02*
X117699285Y-99130000D01*
X117699285Y-99237142D01*
X117735000Y-99344285D01*
X117806428Y-99415714D01*
X117877857Y-99451428D01*
X118020714Y-99487142D01*
X118127857Y-99487142D01*
X118270714Y-99451428D01*
X118342142Y-99415714D01*
X118413571Y-99344285D01*
X118449285Y-99237142D01*
X118449285Y-99165714D01*
X118413571Y-99058571D01*
X118377857Y-99022857D01*
X118127857Y-99022857D01*
X118127857Y-99165714D01*
X118449285Y-98701428D02*
X117699285Y-98701428D01*
X118449285Y-98272857D01*
X117699285Y-98272857D01*
X118449285Y-97915714D02*
X117699285Y-97915714D01*
X117699285Y-97737142D01*
X117735000Y-97630000D01*
X117806428Y-97558571D01*
X117877857Y-97522857D01*
X118020714Y-97487142D01*
X118127857Y-97487142D01*
X118270714Y-97522857D01*
X118342142Y-97558571D01*
X118413571Y-97630000D01*
X118449285Y-97737142D01*
X118449285Y-97915714D01*
X120989285Y-99451428D02*
X120239285Y-99451428D01*
X120239285Y-99165714D01*
X120275000Y-99094285D01*
X120310714Y-99058571D01*
X120382142Y-99022857D01*
X120489285Y-99022857D01*
X120560714Y-99058571D01*
X120596428Y-99094285D01*
X120632142Y-99165714D01*
X120632142Y-99451428D01*
X120239285Y-98701428D02*
X120846428Y-98701428D01*
X120917857Y-98665714D01*
X120953571Y-98630000D01*
X120989285Y-98558571D01*
X120989285Y-98415714D01*
X120953571Y-98344285D01*
X120917857Y-98308571D01*
X120846428Y-98272857D01*
X120239285Y-98272857D01*
X120989285Y-97558571D02*
X120989285Y-97915714D01*
X120239285Y-97915714D01*
X123529285Y-99451428D02*
X122779285Y-99451428D01*
X122779285Y-99272857D01*
X122815000Y-99165714D01*
X122886428Y-99094285D01*
X122957857Y-99058571D01*
X123100714Y-99022857D01*
X123207857Y-99022857D01*
X123350714Y-99058571D01*
X123422142Y-99094285D01*
X123493571Y-99165714D01*
X123529285Y-99272857D01*
X123529285Y-99451428D01*
X123529285Y-98701428D02*
X122779285Y-98701428D01*
X123529285Y-97915714D02*
X123172142Y-98165714D01*
X123529285Y-98344285D02*
X122779285Y-98344285D01*
X122779285Y-98058571D01*
X122815000Y-97987142D01*
X122850714Y-97951428D01*
X122922142Y-97915714D01*
X123029285Y-97915714D01*
X123100714Y-97951428D01*
X123136428Y-97987142D01*
X123172142Y-98058571D01*
X123172142Y-98344285D01*
X125676428Y-99451428D02*
X125676428Y-99201428D01*
X126069285Y-99094285D02*
X126069285Y-99451428D01*
X125319285Y-99451428D01*
X125319285Y-99094285D01*
X126069285Y-98772857D02*
X125319285Y-98772857D01*
X126069285Y-98344285D01*
X125319285Y-98344285D01*
X128609285Y-99094285D02*
X128609285Y-99451428D01*
X127859285Y-99451428D01*
X128216428Y-98844285D02*
X128216428Y-98594285D01*
X128609285Y-98487142D02*
X128609285Y-98844285D01*
X127859285Y-98844285D01*
X127859285Y-98487142D01*
X128609285Y-98165714D02*
X127859285Y-98165714D01*
X127859285Y-97987142D01*
X127895000Y-97880000D01*
X127966428Y-97808571D01*
X128037857Y-97772857D01*
X128180714Y-97737142D01*
X128287857Y-97737142D01*
X128430714Y-97772857D01*
X128502142Y-97808571D01*
X128573571Y-97880000D01*
X128609285Y-97987142D01*
X128609285Y-98165714D01*
D12*
X102810000Y-49530000D02*
X105470000Y-49530000D01*
X102810000Y-49530000D02*
X102810000Y-52130000D01*
X102810000Y-52130000D02*
X105470000Y-52130000D01*
X105470000Y-49530000D02*
X105470000Y-52130000D01*
X105470000Y-46930000D02*
X105470000Y-48260000D01*
X104140000Y-46930000D02*
X105470000Y-46930000D01*
X102810000Y-69850000D02*
X105470000Y-69850000D01*
X102810000Y-69850000D02*
X102810000Y-72450000D01*
X102810000Y-72450000D02*
X105470000Y-72450000D01*
X105470000Y-69850000D02*
X105470000Y-72450000D01*
X105470000Y-67250000D02*
X105470000Y-68580000D01*
X104140000Y-67250000D02*
X105470000Y-67250000D01*
X107890000Y-57150000D02*
X110550000Y-57150000D01*
X107890000Y-57150000D02*
X107890000Y-92770000D01*
X107890000Y-92770000D02*
X110550000Y-92770000D01*
X110550000Y-57150000D02*
X110550000Y-92770000D01*
X110550000Y-54550000D02*
X110550000Y-55880000D01*
X109220000Y-54550000D02*
X110550000Y-54550000D01*
X134620000Y-54550000D02*
X135950000Y-54550000D01*
X135950000Y-54550000D02*
X135950000Y-55880000D01*
X135950000Y-57150000D02*
X135950000Y-92770000D01*
X133290000Y-92770000D02*
X135950000Y-92770000D01*
X133290000Y-57150000D02*
X133290000Y-92770000D01*
X133290000Y-57150000D02*
X135950000Y-57150000D01*
X103220000Y-89550000D02*
X105060000Y-89550000D01*
X105060000Y-89550000D02*
X105060000Y-85710000D01*
X105060000Y-85710000D02*
X103220000Y-85710000D01*
X103220000Y-85710000D02*
X103220000Y-89550000D01*
X104140000Y-90500000D02*
X104140000Y-89550000D01*
X104140000Y-84760000D02*
X104140000Y-85710000D01*
X116840000Y-102930000D02*
X116840000Y-100270000D01*
X116840000Y-102930000D02*
X129600000Y-102930000D01*
X129600000Y-102930000D02*
X129600000Y-100270000D01*
X116840000Y-100270000D02*
X129600000Y-100270000D01*
X114240000Y-100270000D02*
X115570000Y-100270000D01*
X114240000Y-101600000D02*
X114240000Y-100270000D01*
X104140000Y-57090000D02*
X105470000Y-57090000D01*
X105470000Y-57090000D02*
X105470000Y-58420000D01*
X105470000Y-59690000D02*
X105470000Y-62290000D01*
X102810000Y-62290000D02*
X105470000Y-62290000D01*
X102810000Y-59690000D02*
X102810000Y-62290000D01*
X102810000Y-59690000D02*
X105470000Y-59690000D01*
X112970000Y-77470000D02*
X115630000Y-77470000D01*
X112970000Y-77470000D02*
X112970000Y-82610000D01*
X112970000Y-82610000D02*
X115630000Y-82610000D01*
X115630000Y-77470000D02*
X115630000Y-82610000D01*
X115630000Y-74870000D02*
X115630000Y-76200000D01*
X114300000Y-74870000D02*
X115630000Y-74870000D01*
X138370000Y-72390000D02*
X141030000Y-72390000D01*
X138370000Y-72390000D02*
X138370000Y-80070000D01*
X138370000Y-80070000D02*
X141030000Y-80070000D01*
X141030000Y-72390000D02*
X141030000Y-80070000D01*
X141030000Y-69790000D02*
X141030000Y-71120000D01*
X139700000Y-69790000D02*
X141030000Y-69790000D01*
X139700000Y-85030000D02*
X141030000Y-85030000D01*
X141030000Y-85030000D02*
X141030000Y-86360000D01*
X141030000Y-87630000D02*
X141030000Y-95310000D01*
X138370000Y-95310000D02*
X141030000Y-95310000D01*
X138370000Y-87630000D02*
X138370000Y-95310000D01*
X138370000Y-87630000D02*
X141030000Y-87630000D01*
X105990000Y-79270000D02*
X105990000Y-75670000D01*
X105978478Y-79308478D02*
G75*
G02X101540000Y-77470000I-1838478J1838478D01*
G01*
X105978478Y-75631522D02*
G75*
G03X101540000Y-77470000I-1838478J-1838478D01*
G01*
D11*
X102878095Y-66262380D02*
X102878095Y-65262380D01*
X102878095Y-65738571D02*
X103449523Y-65738571D01*
X103449523Y-66262380D02*
X103449523Y-65262380D01*
X103925714Y-66262380D02*
X103925714Y-65262380D01*
X104306666Y-65262380D01*
X104401904Y-65310000D01*
X104449523Y-65357619D01*
X104497142Y-65452857D01*
X104497142Y-65595714D01*
X104449523Y-65690952D01*
X104401904Y-65738571D01*
X104306666Y-65786190D01*
X103925714Y-65786190D01*
X105449523Y-66262380D02*
X104878095Y-66262380D01*
X105163809Y-66262380D02*
X105163809Y-65262380D01*
X105068571Y-65405238D01*
X104973333Y-65500476D01*
X104878095Y-65548095D01*
X102672380Y-87796666D02*
X102196190Y-88130000D01*
X102672380Y-88368095D02*
X101672380Y-88368095D01*
X101672380Y-87987142D01*
X101720000Y-87891904D01*
X101767619Y-87844285D01*
X101862857Y-87796666D01*
X102005714Y-87796666D01*
X102100952Y-87844285D01*
X102148571Y-87891904D01*
X102196190Y-87987142D01*
X102196190Y-88368095D01*
X102672380Y-86844285D02*
X102672380Y-87415714D01*
X102672380Y-87130000D02*
X101672380Y-87130000D01*
X101815238Y-87225238D01*
X101910476Y-87320476D01*
X101958095Y-87415714D01*
X102878095Y-56054761D02*
X103020952Y-56102380D01*
X103259047Y-56102380D01*
X103354285Y-56054761D01*
X103401904Y-56007142D01*
X103449523Y-55911904D01*
X103449523Y-55816666D01*
X103401904Y-55721428D01*
X103354285Y-55673809D01*
X103259047Y-55626190D01*
X103068571Y-55578571D01*
X102973333Y-55530952D01*
X102925714Y-55483333D01*
X102878095Y-55388095D01*
X102878095Y-55292857D01*
X102925714Y-55197619D01*
X102973333Y-55150000D01*
X103068571Y-55102380D01*
X103306666Y-55102380D01*
X103449523Y-55150000D01*
X103878095Y-56102380D02*
X103878095Y-55102380D01*
X104449523Y-56102380D02*
X104020952Y-55530952D01*
X104449523Y-55102380D02*
X103878095Y-55673809D01*
X105401904Y-56102380D02*
X104830476Y-56102380D01*
X105116190Y-56102380D02*
X105116190Y-55102380D01*
X105020952Y-55245238D01*
X104925714Y-55340476D01*
X104830476Y-55388095D01*
X138247619Y-68802380D02*
X138247619Y-67802380D01*
X138676190Y-67897619D02*
X138723809Y-67850000D01*
X138819047Y-67802380D01*
X139057142Y-67802380D01*
X139152380Y-67850000D01*
X139200000Y-67897619D01*
X139247619Y-67992857D01*
X139247619Y-68088095D01*
X139200000Y-68230952D01*
X138628571Y-68802380D01*
X139247619Y-68802380D01*
X140247619Y-68707142D02*
X140200000Y-68754761D01*
X140057142Y-68802380D01*
X139961904Y-68802380D01*
X139819047Y-68754761D01*
X139723809Y-68659523D01*
X139676190Y-68564285D01*
X139628571Y-68373809D01*
X139628571Y-68230952D01*
X139676190Y-68040476D01*
X139723809Y-67945238D01*
X139819047Y-67850000D01*
X139961904Y-67802380D01*
X140057142Y-67802380D01*
X140200000Y-67850000D01*
X140247619Y-67897619D01*
X141200000Y-68802380D02*
X140628571Y-68802380D01*
X140914285Y-68802380D02*
X140914285Y-67802380D01*
X140819047Y-67945238D01*
X140723809Y-68040476D01*
X140628571Y-68088095D01*
X138247619Y-84042380D02*
X138247619Y-83042380D01*
X138676190Y-83137619D02*
X138723809Y-83090000D01*
X138819047Y-83042380D01*
X139057142Y-83042380D01*
X139152380Y-83090000D01*
X139200000Y-83137619D01*
X139247619Y-83232857D01*
X139247619Y-83328095D01*
X139200000Y-83470952D01*
X138628571Y-84042380D01*
X139247619Y-84042380D01*
X140247619Y-83947142D02*
X140200000Y-83994761D01*
X140057142Y-84042380D01*
X139961904Y-84042380D01*
X139819047Y-83994761D01*
X139723809Y-83899523D01*
X139676190Y-83804285D01*
X139628571Y-83613809D01*
X139628571Y-83470952D01*
X139676190Y-83280476D01*
X139723809Y-83185238D01*
X139819047Y-83090000D01*
X139961904Y-83042380D01*
X140057142Y-83042380D01*
X140200000Y-83090000D01*
X140247619Y-83137619D01*
X140628571Y-83137619D02*
X140676190Y-83090000D01*
X140771428Y-83042380D01*
X141009523Y-83042380D01*
X141104761Y-83090000D01*
X141152380Y-83137619D01*
X141200000Y-83232857D01*
X141200000Y-83328095D01*
X141152380Y-83470952D01*
X140580952Y-84042380D01*
X141200000Y-84042380D01*
X101127619Y-77565238D02*
X101080000Y-77660476D01*
X100984761Y-77755714D01*
X100841904Y-77898571D01*
X100794285Y-77993809D01*
X100794285Y-78089047D01*
X101032380Y-78041428D02*
X100984761Y-78136666D01*
X100889523Y-78231904D01*
X100699047Y-78279523D01*
X100365714Y-78279523D01*
X100175238Y-78231904D01*
X100080000Y-78136666D01*
X100032380Y-78041428D01*
X100032380Y-77850952D01*
X100080000Y-77755714D01*
X100175238Y-77660476D01*
X100365714Y-77612857D01*
X100699047Y-77612857D01*
X100889523Y-77660476D01*
X100984761Y-77755714D01*
X101032380Y-77850952D01*
X101032380Y-78041428D01*
X101032380Y-76660476D02*
X101032380Y-77231904D01*
X101032380Y-76946190D02*
X100032380Y-76946190D01*
X100175238Y-77041428D01*
X100270476Y-77136666D01*
X100318095Y-77231904D01*
M02*
