G04 #@! TF.GenerationSoftware,KiCad,Pcbnew,(5.1.2-1)-1*
G04 #@! TF.CreationDate,2021-04-09T14:29:59+02:00*
G04 #@! TF.ProjectId,Faraway_PCB,46617261-7761-4795-9f50-43422e6b6963,rev?*
G04 #@! TF.SameCoordinates,Original*
G04 #@! TF.FileFunction,Soldermask,Top*
G04 #@! TF.FilePolarity,Negative*
%FSLAX46Y46*%
G04 Gerber Fmt 4.6, Leading zero omitted, Abs format (unit mm)*
G04 Created by KiCad (PCBNEW (5.1.2-1)-1) date 2021-04-09 14:29:59*
%MOMM*%
%LPD*%
G04 APERTURE LIST*
%ADD10C,0.100000*%
G04 APERTURE END LIST*
D10*
G36*
X128380443Y-100705519D02*
G01*
X128446627Y-100712037D01*
X128616466Y-100763557D01*
X128772991Y-100847222D01*
X128808729Y-100876552D01*
X128910186Y-100959814D01*
X128993448Y-101061271D01*
X129022778Y-101097009D01*
X129106443Y-101253534D01*
X129157963Y-101423373D01*
X129175359Y-101600000D01*
X129157963Y-101776627D01*
X129106443Y-101946466D01*
X129022778Y-102102991D01*
X128993448Y-102138729D01*
X128910186Y-102240186D01*
X128808729Y-102323448D01*
X128772991Y-102352778D01*
X128616466Y-102436443D01*
X128446627Y-102487963D01*
X128380442Y-102494482D01*
X128314260Y-102501000D01*
X128225740Y-102501000D01*
X128159558Y-102494482D01*
X128093373Y-102487963D01*
X127923534Y-102436443D01*
X127767009Y-102352778D01*
X127731271Y-102323448D01*
X127629814Y-102240186D01*
X127546552Y-102138729D01*
X127517222Y-102102991D01*
X127433557Y-101946466D01*
X127382037Y-101776627D01*
X127364641Y-101600000D01*
X127382037Y-101423373D01*
X127433557Y-101253534D01*
X127517222Y-101097009D01*
X127546552Y-101061271D01*
X127629814Y-100959814D01*
X127731271Y-100876552D01*
X127767009Y-100847222D01*
X127923534Y-100763557D01*
X128093373Y-100712037D01*
X128159557Y-100705519D01*
X128225740Y-100699000D01*
X128314260Y-100699000D01*
X128380443Y-100705519D01*
X128380443Y-100705519D01*
G37*
G36*
X125840443Y-100705519D02*
G01*
X125906627Y-100712037D01*
X126076466Y-100763557D01*
X126232991Y-100847222D01*
X126268729Y-100876552D01*
X126370186Y-100959814D01*
X126453448Y-101061271D01*
X126482778Y-101097009D01*
X126566443Y-101253534D01*
X126617963Y-101423373D01*
X126635359Y-101600000D01*
X126617963Y-101776627D01*
X126566443Y-101946466D01*
X126482778Y-102102991D01*
X126453448Y-102138729D01*
X126370186Y-102240186D01*
X126268729Y-102323448D01*
X126232991Y-102352778D01*
X126076466Y-102436443D01*
X125906627Y-102487963D01*
X125840442Y-102494482D01*
X125774260Y-102501000D01*
X125685740Y-102501000D01*
X125619558Y-102494482D01*
X125553373Y-102487963D01*
X125383534Y-102436443D01*
X125227009Y-102352778D01*
X125191271Y-102323448D01*
X125089814Y-102240186D01*
X125006552Y-102138729D01*
X124977222Y-102102991D01*
X124893557Y-101946466D01*
X124842037Y-101776627D01*
X124824641Y-101600000D01*
X124842037Y-101423373D01*
X124893557Y-101253534D01*
X124977222Y-101097009D01*
X125006552Y-101061271D01*
X125089814Y-100959814D01*
X125191271Y-100876552D01*
X125227009Y-100847222D01*
X125383534Y-100763557D01*
X125553373Y-100712037D01*
X125619557Y-100705519D01*
X125685740Y-100699000D01*
X125774260Y-100699000D01*
X125840443Y-100705519D01*
X125840443Y-100705519D01*
G37*
G36*
X123300443Y-100705519D02*
G01*
X123366627Y-100712037D01*
X123536466Y-100763557D01*
X123692991Y-100847222D01*
X123728729Y-100876552D01*
X123830186Y-100959814D01*
X123913448Y-101061271D01*
X123942778Y-101097009D01*
X124026443Y-101253534D01*
X124077963Y-101423373D01*
X124095359Y-101600000D01*
X124077963Y-101776627D01*
X124026443Y-101946466D01*
X123942778Y-102102991D01*
X123913448Y-102138729D01*
X123830186Y-102240186D01*
X123728729Y-102323448D01*
X123692991Y-102352778D01*
X123536466Y-102436443D01*
X123366627Y-102487963D01*
X123300442Y-102494482D01*
X123234260Y-102501000D01*
X123145740Y-102501000D01*
X123079558Y-102494482D01*
X123013373Y-102487963D01*
X122843534Y-102436443D01*
X122687009Y-102352778D01*
X122651271Y-102323448D01*
X122549814Y-102240186D01*
X122466552Y-102138729D01*
X122437222Y-102102991D01*
X122353557Y-101946466D01*
X122302037Y-101776627D01*
X122284641Y-101600000D01*
X122302037Y-101423373D01*
X122353557Y-101253534D01*
X122437222Y-101097009D01*
X122466552Y-101061271D01*
X122549814Y-100959814D01*
X122651271Y-100876552D01*
X122687009Y-100847222D01*
X122843534Y-100763557D01*
X123013373Y-100712037D01*
X123079557Y-100705519D01*
X123145740Y-100699000D01*
X123234260Y-100699000D01*
X123300443Y-100705519D01*
X123300443Y-100705519D01*
G37*
G36*
X120760443Y-100705519D02*
G01*
X120826627Y-100712037D01*
X120996466Y-100763557D01*
X121152991Y-100847222D01*
X121188729Y-100876552D01*
X121290186Y-100959814D01*
X121373448Y-101061271D01*
X121402778Y-101097009D01*
X121486443Y-101253534D01*
X121537963Y-101423373D01*
X121555359Y-101600000D01*
X121537963Y-101776627D01*
X121486443Y-101946466D01*
X121402778Y-102102991D01*
X121373448Y-102138729D01*
X121290186Y-102240186D01*
X121188729Y-102323448D01*
X121152991Y-102352778D01*
X120996466Y-102436443D01*
X120826627Y-102487963D01*
X120760442Y-102494482D01*
X120694260Y-102501000D01*
X120605740Y-102501000D01*
X120539558Y-102494482D01*
X120473373Y-102487963D01*
X120303534Y-102436443D01*
X120147009Y-102352778D01*
X120111271Y-102323448D01*
X120009814Y-102240186D01*
X119926552Y-102138729D01*
X119897222Y-102102991D01*
X119813557Y-101946466D01*
X119762037Y-101776627D01*
X119744641Y-101600000D01*
X119762037Y-101423373D01*
X119813557Y-101253534D01*
X119897222Y-101097009D01*
X119926552Y-101061271D01*
X120009814Y-100959814D01*
X120111271Y-100876552D01*
X120147009Y-100847222D01*
X120303534Y-100763557D01*
X120473373Y-100712037D01*
X120539557Y-100705519D01*
X120605740Y-100699000D01*
X120694260Y-100699000D01*
X120760443Y-100705519D01*
X120760443Y-100705519D01*
G37*
G36*
X118220443Y-100705519D02*
G01*
X118286627Y-100712037D01*
X118456466Y-100763557D01*
X118612991Y-100847222D01*
X118648729Y-100876552D01*
X118750186Y-100959814D01*
X118833448Y-101061271D01*
X118862778Y-101097009D01*
X118946443Y-101253534D01*
X118997963Y-101423373D01*
X119015359Y-101600000D01*
X118997963Y-101776627D01*
X118946443Y-101946466D01*
X118862778Y-102102991D01*
X118833448Y-102138729D01*
X118750186Y-102240186D01*
X118648729Y-102323448D01*
X118612991Y-102352778D01*
X118456466Y-102436443D01*
X118286627Y-102487963D01*
X118220442Y-102494482D01*
X118154260Y-102501000D01*
X118065740Y-102501000D01*
X117999558Y-102494482D01*
X117933373Y-102487963D01*
X117763534Y-102436443D01*
X117607009Y-102352778D01*
X117571271Y-102323448D01*
X117469814Y-102240186D01*
X117386552Y-102138729D01*
X117357222Y-102102991D01*
X117273557Y-101946466D01*
X117222037Y-101776627D01*
X117204641Y-101600000D01*
X117222037Y-101423373D01*
X117273557Y-101253534D01*
X117357222Y-101097009D01*
X117386552Y-101061271D01*
X117469814Y-100959814D01*
X117571271Y-100876552D01*
X117607009Y-100847222D01*
X117763534Y-100763557D01*
X117933373Y-100712037D01*
X117999557Y-100705519D01*
X118065740Y-100699000D01*
X118154260Y-100699000D01*
X118220443Y-100705519D01*
X118220443Y-100705519D01*
G37*
G36*
X116471000Y-102501000D02*
G01*
X114669000Y-102501000D01*
X114669000Y-100699000D01*
X116471000Y-100699000D01*
X116471000Y-102501000D01*
X116471000Y-102501000D01*
G37*
G36*
X139810443Y-93085519D02*
G01*
X139876627Y-93092037D01*
X140046466Y-93143557D01*
X140202991Y-93227222D01*
X140238729Y-93256552D01*
X140340186Y-93339814D01*
X140423448Y-93441271D01*
X140452778Y-93477009D01*
X140536443Y-93633534D01*
X140587963Y-93803373D01*
X140605359Y-93980000D01*
X140587963Y-94156627D01*
X140536443Y-94326466D01*
X140452778Y-94482991D01*
X140423448Y-94518729D01*
X140340186Y-94620186D01*
X140238729Y-94703448D01*
X140202991Y-94732778D01*
X140046466Y-94816443D01*
X139876627Y-94867963D01*
X139810443Y-94874481D01*
X139744260Y-94881000D01*
X139655740Y-94881000D01*
X139589557Y-94874481D01*
X139523373Y-94867963D01*
X139353534Y-94816443D01*
X139197009Y-94732778D01*
X139161271Y-94703448D01*
X139059814Y-94620186D01*
X138976552Y-94518729D01*
X138947222Y-94482991D01*
X138863557Y-94326466D01*
X138812037Y-94156627D01*
X138794641Y-93980000D01*
X138812037Y-93803373D01*
X138863557Y-93633534D01*
X138947222Y-93477009D01*
X138976552Y-93441271D01*
X139059814Y-93339814D01*
X139161271Y-93256552D01*
X139197009Y-93227222D01*
X139353534Y-93143557D01*
X139523373Y-93092037D01*
X139589557Y-93085519D01*
X139655740Y-93079000D01*
X139744260Y-93079000D01*
X139810443Y-93085519D01*
X139810443Y-93085519D01*
G37*
G36*
X139810443Y-90545519D02*
G01*
X139876627Y-90552037D01*
X140046466Y-90603557D01*
X140202991Y-90687222D01*
X140205157Y-90689000D01*
X140340186Y-90799814D01*
X140423448Y-90901271D01*
X140452778Y-90937009D01*
X140536443Y-91093534D01*
X140587963Y-91263373D01*
X140605359Y-91440000D01*
X140587963Y-91616627D01*
X140536443Y-91786466D01*
X140452778Y-91942991D01*
X140423448Y-91978729D01*
X140340186Y-92080186D01*
X140240323Y-92162140D01*
X140202991Y-92192778D01*
X140046466Y-92276443D01*
X139876627Y-92327963D01*
X139810443Y-92334481D01*
X139744260Y-92341000D01*
X139655740Y-92341000D01*
X139589557Y-92334481D01*
X139523373Y-92327963D01*
X139353534Y-92276443D01*
X139197009Y-92192778D01*
X139159677Y-92162140D01*
X139059814Y-92080186D01*
X138976552Y-91978729D01*
X138947222Y-91942991D01*
X138863557Y-91786466D01*
X138812037Y-91616627D01*
X138794641Y-91440000D01*
X138812037Y-91263373D01*
X138863557Y-91093534D01*
X138947222Y-90937009D01*
X138976552Y-90901271D01*
X139059814Y-90799814D01*
X139194843Y-90689000D01*
X139197009Y-90687222D01*
X139353534Y-90603557D01*
X139523373Y-90552037D01*
X139589557Y-90545519D01*
X139655740Y-90539000D01*
X139744260Y-90539000D01*
X139810443Y-90545519D01*
X139810443Y-90545519D01*
G37*
G36*
X134730443Y-90545519D02*
G01*
X134796627Y-90552037D01*
X134966466Y-90603557D01*
X135122991Y-90687222D01*
X135125157Y-90689000D01*
X135260186Y-90799814D01*
X135343448Y-90901271D01*
X135372778Y-90937009D01*
X135456443Y-91093534D01*
X135507963Y-91263373D01*
X135525359Y-91440000D01*
X135507963Y-91616627D01*
X135456443Y-91786466D01*
X135372778Y-91942991D01*
X135343448Y-91978729D01*
X135260186Y-92080186D01*
X135160323Y-92162140D01*
X135122991Y-92192778D01*
X134966466Y-92276443D01*
X134796627Y-92327963D01*
X134730443Y-92334481D01*
X134664260Y-92341000D01*
X134575740Y-92341000D01*
X134509557Y-92334481D01*
X134443373Y-92327963D01*
X134273534Y-92276443D01*
X134117009Y-92192778D01*
X134079677Y-92162140D01*
X133979814Y-92080186D01*
X133896552Y-91978729D01*
X133867222Y-91942991D01*
X133783557Y-91786466D01*
X133732037Y-91616627D01*
X133714641Y-91440000D01*
X133732037Y-91263373D01*
X133783557Y-91093534D01*
X133867222Y-90937009D01*
X133896552Y-90901271D01*
X133979814Y-90799814D01*
X134114843Y-90689000D01*
X134117009Y-90687222D01*
X134273534Y-90603557D01*
X134443373Y-90552037D01*
X134509557Y-90545519D01*
X134575740Y-90539000D01*
X134664260Y-90539000D01*
X134730443Y-90545519D01*
X134730443Y-90545519D01*
G37*
G36*
X109330443Y-90545519D02*
G01*
X109396627Y-90552037D01*
X109566466Y-90603557D01*
X109722991Y-90687222D01*
X109725157Y-90689000D01*
X109860186Y-90799814D01*
X109943448Y-90901271D01*
X109972778Y-90937009D01*
X110056443Y-91093534D01*
X110107963Y-91263373D01*
X110125359Y-91440000D01*
X110107963Y-91616627D01*
X110056443Y-91786466D01*
X109972778Y-91942991D01*
X109943448Y-91978729D01*
X109860186Y-92080186D01*
X109760323Y-92162140D01*
X109722991Y-92192778D01*
X109566466Y-92276443D01*
X109396627Y-92327963D01*
X109330443Y-92334481D01*
X109264260Y-92341000D01*
X109175740Y-92341000D01*
X109109557Y-92334481D01*
X109043373Y-92327963D01*
X108873534Y-92276443D01*
X108717009Y-92192778D01*
X108679677Y-92162140D01*
X108579814Y-92080186D01*
X108496552Y-91978729D01*
X108467222Y-91942991D01*
X108383557Y-91786466D01*
X108332037Y-91616627D01*
X108314641Y-91440000D01*
X108332037Y-91263373D01*
X108383557Y-91093534D01*
X108467222Y-90937009D01*
X108496552Y-90901271D01*
X108579814Y-90799814D01*
X108714843Y-90689000D01*
X108717009Y-90687222D01*
X108873534Y-90603557D01*
X109043373Y-90552037D01*
X109109557Y-90545519D01*
X109175740Y-90539000D01*
X109264260Y-90539000D01*
X109330443Y-90545519D01*
X109330443Y-90545519D01*
G37*
G36*
X104359059Y-90717860D02*
G01*
X104495732Y-90774472D01*
X104618735Y-90856660D01*
X104723340Y-90961265D01*
X104723341Y-90961267D01*
X104805529Y-91084270D01*
X104862140Y-91220941D01*
X104891000Y-91366032D01*
X104891000Y-91513968D01*
X104870580Y-91616627D01*
X104862140Y-91659059D01*
X104805528Y-91795732D01*
X104723340Y-91918735D01*
X104618735Y-92023340D01*
X104495732Y-92105528D01*
X104495731Y-92105529D01*
X104495730Y-92105529D01*
X104359059Y-92162140D01*
X104213968Y-92191000D01*
X104066032Y-92191000D01*
X103920941Y-92162140D01*
X103784270Y-92105529D01*
X103784269Y-92105529D01*
X103784268Y-92105528D01*
X103661265Y-92023340D01*
X103556660Y-91918735D01*
X103474472Y-91795732D01*
X103417860Y-91659059D01*
X103409420Y-91616627D01*
X103389000Y-91513968D01*
X103389000Y-91366032D01*
X103417860Y-91220941D01*
X103474471Y-91084270D01*
X103556659Y-90961267D01*
X103556660Y-90961265D01*
X103661265Y-90856660D01*
X103784268Y-90774472D01*
X103920941Y-90717860D01*
X104066032Y-90689000D01*
X104213968Y-90689000D01*
X104359059Y-90717860D01*
X104359059Y-90717860D01*
G37*
G36*
X139810443Y-88005519D02*
G01*
X139876627Y-88012037D01*
X140046466Y-88063557D01*
X140202991Y-88147222D01*
X140238729Y-88176552D01*
X140340186Y-88259814D01*
X140423448Y-88361271D01*
X140452778Y-88397009D01*
X140536443Y-88553534D01*
X140587963Y-88723373D01*
X140605359Y-88900000D01*
X140587963Y-89076627D01*
X140536443Y-89246466D01*
X140452778Y-89402991D01*
X140423448Y-89438729D01*
X140340186Y-89540186D01*
X140238729Y-89623448D01*
X140202991Y-89652778D01*
X140046466Y-89736443D01*
X139876627Y-89787963D01*
X139810443Y-89794481D01*
X139744260Y-89801000D01*
X139655740Y-89801000D01*
X139589557Y-89794481D01*
X139523373Y-89787963D01*
X139353534Y-89736443D01*
X139197009Y-89652778D01*
X139161271Y-89623448D01*
X139059814Y-89540186D01*
X138976552Y-89438729D01*
X138947222Y-89402991D01*
X138863557Y-89246466D01*
X138812037Y-89076627D01*
X138794641Y-88900000D01*
X138812037Y-88723373D01*
X138863557Y-88553534D01*
X138947222Y-88397009D01*
X138976552Y-88361271D01*
X139059814Y-88259814D01*
X139161271Y-88176552D01*
X139197009Y-88147222D01*
X139353534Y-88063557D01*
X139523373Y-88012037D01*
X139589557Y-88005519D01*
X139655740Y-87999000D01*
X139744260Y-87999000D01*
X139810443Y-88005519D01*
X139810443Y-88005519D01*
G37*
G36*
X134730443Y-88005519D02*
G01*
X134796627Y-88012037D01*
X134966466Y-88063557D01*
X135122991Y-88147222D01*
X135158729Y-88176552D01*
X135260186Y-88259814D01*
X135343448Y-88361271D01*
X135372778Y-88397009D01*
X135456443Y-88553534D01*
X135507963Y-88723373D01*
X135525359Y-88900000D01*
X135507963Y-89076627D01*
X135456443Y-89246466D01*
X135372778Y-89402991D01*
X135343448Y-89438729D01*
X135260186Y-89540186D01*
X135158729Y-89623448D01*
X135122991Y-89652778D01*
X134966466Y-89736443D01*
X134796627Y-89787963D01*
X134730443Y-89794481D01*
X134664260Y-89801000D01*
X134575740Y-89801000D01*
X134509557Y-89794481D01*
X134443373Y-89787963D01*
X134273534Y-89736443D01*
X134117009Y-89652778D01*
X134081271Y-89623448D01*
X133979814Y-89540186D01*
X133896552Y-89438729D01*
X133867222Y-89402991D01*
X133783557Y-89246466D01*
X133732037Y-89076627D01*
X133714641Y-88900000D01*
X133732037Y-88723373D01*
X133783557Y-88553534D01*
X133867222Y-88397009D01*
X133896552Y-88361271D01*
X133979814Y-88259814D01*
X134081271Y-88176552D01*
X134117009Y-88147222D01*
X134273534Y-88063557D01*
X134443373Y-88012037D01*
X134509557Y-88005519D01*
X134575740Y-87999000D01*
X134664260Y-87999000D01*
X134730443Y-88005519D01*
X134730443Y-88005519D01*
G37*
G36*
X109330443Y-88005519D02*
G01*
X109396627Y-88012037D01*
X109566466Y-88063557D01*
X109722991Y-88147222D01*
X109758729Y-88176552D01*
X109860186Y-88259814D01*
X109943448Y-88361271D01*
X109972778Y-88397009D01*
X110056443Y-88553534D01*
X110107963Y-88723373D01*
X110125359Y-88900000D01*
X110107963Y-89076627D01*
X110056443Y-89246466D01*
X109972778Y-89402991D01*
X109943448Y-89438729D01*
X109860186Y-89540186D01*
X109758729Y-89623448D01*
X109722991Y-89652778D01*
X109566466Y-89736443D01*
X109396627Y-89787963D01*
X109330443Y-89794481D01*
X109264260Y-89801000D01*
X109175740Y-89801000D01*
X109109557Y-89794481D01*
X109043373Y-89787963D01*
X108873534Y-89736443D01*
X108717009Y-89652778D01*
X108681271Y-89623448D01*
X108579814Y-89540186D01*
X108496552Y-89438729D01*
X108467222Y-89402991D01*
X108383557Y-89246466D01*
X108332037Y-89076627D01*
X108314641Y-88900000D01*
X108332037Y-88723373D01*
X108383557Y-88553534D01*
X108467222Y-88397009D01*
X108496552Y-88361271D01*
X108579814Y-88259814D01*
X108681271Y-88176552D01*
X108717009Y-88147222D01*
X108873534Y-88063557D01*
X109043373Y-88012037D01*
X109109557Y-88005519D01*
X109175740Y-87999000D01*
X109264260Y-87999000D01*
X109330443Y-88005519D01*
X109330443Y-88005519D01*
G37*
G36*
X140601000Y-87261000D02*
G01*
X138799000Y-87261000D01*
X138799000Y-85459000D01*
X140601000Y-85459000D01*
X140601000Y-87261000D01*
X140601000Y-87261000D01*
G37*
G36*
X134730442Y-85465518D02*
G01*
X134796627Y-85472037D01*
X134966466Y-85523557D01*
X135122991Y-85607222D01*
X135158729Y-85636552D01*
X135260186Y-85719814D01*
X135343448Y-85821271D01*
X135372778Y-85857009D01*
X135456443Y-86013534D01*
X135507963Y-86183373D01*
X135525359Y-86360000D01*
X135507963Y-86536627D01*
X135456443Y-86706466D01*
X135372778Y-86862991D01*
X135343448Y-86898729D01*
X135260186Y-87000186D01*
X135158729Y-87083448D01*
X135122991Y-87112778D01*
X134966466Y-87196443D01*
X134796627Y-87247963D01*
X134730442Y-87254482D01*
X134664260Y-87261000D01*
X134575740Y-87261000D01*
X134509558Y-87254482D01*
X134443373Y-87247963D01*
X134273534Y-87196443D01*
X134117009Y-87112778D01*
X134081271Y-87083448D01*
X133979814Y-87000186D01*
X133896552Y-86898729D01*
X133867222Y-86862991D01*
X133783557Y-86706466D01*
X133732037Y-86536627D01*
X133714641Y-86360000D01*
X133732037Y-86183373D01*
X133783557Y-86013534D01*
X133867222Y-85857009D01*
X133896552Y-85821271D01*
X133979814Y-85719814D01*
X134081271Y-85636552D01*
X134117009Y-85607222D01*
X134273534Y-85523557D01*
X134443373Y-85472037D01*
X134509558Y-85465518D01*
X134575740Y-85459000D01*
X134664260Y-85459000D01*
X134730442Y-85465518D01*
X134730442Y-85465518D01*
G37*
G36*
X109330442Y-85465518D02*
G01*
X109396627Y-85472037D01*
X109566466Y-85523557D01*
X109722991Y-85607222D01*
X109758729Y-85636552D01*
X109860186Y-85719814D01*
X109943448Y-85821271D01*
X109972778Y-85857009D01*
X110056443Y-86013534D01*
X110107963Y-86183373D01*
X110125359Y-86360000D01*
X110107963Y-86536627D01*
X110056443Y-86706466D01*
X109972778Y-86862991D01*
X109943448Y-86898729D01*
X109860186Y-87000186D01*
X109758729Y-87083448D01*
X109722991Y-87112778D01*
X109566466Y-87196443D01*
X109396627Y-87247963D01*
X109330442Y-87254482D01*
X109264260Y-87261000D01*
X109175740Y-87261000D01*
X109109558Y-87254482D01*
X109043373Y-87247963D01*
X108873534Y-87196443D01*
X108717009Y-87112778D01*
X108681271Y-87083448D01*
X108579814Y-87000186D01*
X108496552Y-86898729D01*
X108467222Y-86862991D01*
X108383557Y-86706466D01*
X108332037Y-86536627D01*
X108314641Y-86360000D01*
X108332037Y-86183373D01*
X108383557Y-86013534D01*
X108467222Y-85857009D01*
X108496552Y-85821271D01*
X108579814Y-85719814D01*
X108681271Y-85636552D01*
X108717009Y-85607222D01*
X108873534Y-85523557D01*
X109043373Y-85472037D01*
X109109558Y-85465518D01*
X109175740Y-85459000D01*
X109264260Y-85459000D01*
X109330442Y-85465518D01*
X109330442Y-85465518D01*
G37*
G36*
X109330443Y-82925519D02*
G01*
X109396627Y-82932037D01*
X109566466Y-82983557D01*
X109722991Y-83067222D01*
X109758729Y-83096552D01*
X109860186Y-83179814D01*
X109943448Y-83281271D01*
X109972778Y-83317009D01*
X110056443Y-83473534D01*
X110107963Y-83643373D01*
X110125359Y-83820000D01*
X110107963Y-83996627D01*
X110056443Y-84166466D01*
X109972778Y-84322991D01*
X109947653Y-84353606D01*
X109860186Y-84460186D01*
X109790725Y-84517190D01*
X109722991Y-84572778D01*
X109566466Y-84656443D01*
X109396627Y-84707963D01*
X109330443Y-84714481D01*
X109264260Y-84721000D01*
X109175740Y-84721000D01*
X109109557Y-84714481D01*
X109043373Y-84707963D01*
X108873534Y-84656443D01*
X108717009Y-84572778D01*
X108649275Y-84517190D01*
X108579814Y-84460186D01*
X108492347Y-84353606D01*
X108467222Y-84322991D01*
X108383557Y-84166466D01*
X108332037Y-83996627D01*
X108314641Y-83820000D01*
X108332037Y-83643373D01*
X108383557Y-83473534D01*
X108467222Y-83317009D01*
X108496552Y-83281271D01*
X108579814Y-83179814D01*
X108681271Y-83096552D01*
X108717009Y-83067222D01*
X108873534Y-82983557D01*
X109043373Y-82932037D01*
X109109557Y-82925519D01*
X109175740Y-82919000D01*
X109264260Y-82919000D01*
X109330443Y-82925519D01*
X109330443Y-82925519D01*
G37*
G36*
X134730443Y-82925519D02*
G01*
X134796627Y-82932037D01*
X134966466Y-82983557D01*
X135122991Y-83067222D01*
X135158729Y-83096552D01*
X135260186Y-83179814D01*
X135343448Y-83281271D01*
X135372778Y-83317009D01*
X135456443Y-83473534D01*
X135507963Y-83643373D01*
X135525359Y-83820000D01*
X135507963Y-83996627D01*
X135456443Y-84166466D01*
X135372778Y-84322991D01*
X135347653Y-84353606D01*
X135260186Y-84460186D01*
X135190725Y-84517190D01*
X135122991Y-84572778D01*
X134966466Y-84656443D01*
X134796627Y-84707963D01*
X134730443Y-84714481D01*
X134664260Y-84721000D01*
X134575740Y-84721000D01*
X134509557Y-84714481D01*
X134443373Y-84707963D01*
X134273534Y-84656443D01*
X134117009Y-84572778D01*
X134049275Y-84517190D01*
X133979814Y-84460186D01*
X133892347Y-84353606D01*
X133867222Y-84322991D01*
X133783557Y-84166466D01*
X133732037Y-83996627D01*
X133714641Y-83820000D01*
X133732037Y-83643373D01*
X133783557Y-83473534D01*
X133867222Y-83317009D01*
X133896552Y-83281271D01*
X133979814Y-83179814D01*
X134081271Y-83096552D01*
X134117009Y-83067222D01*
X134273534Y-82983557D01*
X134443373Y-82932037D01*
X134509557Y-82925519D01*
X134575740Y-82919000D01*
X134664260Y-82919000D01*
X134730443Y-82925519D01*
X134730443Y-82925519D01*
G37*
G36*
X104213665Y-83072622D02*
G01*
X104287222Y-83079867D01*
X104428786Y-83122810D01*
X104559252Y-83192546D01*
X104589040Y-83216992D01*
X104673607Y-83286393D01*
X104743008Y-83370960D01*
X104767454Y-83400748D01*
X104837190Y-83531214D01*
X104880133Y-83672778D01*
X104894633Y-83820000D01*
X104880133Y-83967222D01*
X104837190Y-84108786D01*
X104767454Y-84239252D01*
X104743008Y-84269040D01*
X104673607Y-84353607D01*
X104589040Y-84423008D01*
X104559252Y-84447454D01*
X104428786Y-84517190D01*
X104287222Y-84560133D01*
X104213665Y-84567378D01*
X104176888Y-84571000D01*
X104103112Y-84571000D01*
X104066335Y-84567378D01*
X103992778Y-84560133D01*
X103851214Y-84517190D01*
X103720748Y-84447454D01*
X103690960Y-84423008D01*
X103606393Y-84353607D01*
X103536992Y-84269040D01*
X103512546Y-84239252D01*
X103442810Y-84108786D01*
X103399867Y-83967222D01*
X103385367Y-83820000D01*
X103399867Y-83672778D01*
X103442810Y-83531214D01*
X103512546Y-83400748D01*
X103536992Y-83370960D01*
X103606393Y-83286393D01*
X103690960Y-83216992D01*
X103720748Y-83192546D01*
X103851214Y-83122810D01*
X103992778Y-83079867D01*
X104066335Y-83072622D01*
X104103112Y-83069000D01*
X104176888Y-83069000D01*
X104213665Y-83072622D01*
X104213665Y-83072622D01*
G37*
G36*
X114410442Y-80385518D02*
G01*
X114476627Y-80392037D01*
X114646466Y-80443557D01*
X114802991Y-80527222D01*
X114838729Y-80556552D01*
X114940186Y-80639814D01*
X115023448Y-80741271D01*
X115052778Y-80777009D01*
X115136443Y-80933534D01*
X115187963Y-81103373D01*
X115205359Y-81280000D01*
X115187963Y-81456627D01*
X115136443Y-81626466D01*
X115052778Y-81782991D01*
X115023448Y-81818729D01*
X114940186Y-81920186D01*
X114838729Y-82003448D01*
X114802991Y-82032778D01*
X114646466Y-82116443D01*
X114476627Y-82167963D01*
X114410443Y-82174481D01*
X114344260Y-82181000D01*
X114255740Y-82181000D01*
X114189557Y-82174481D01*
X114123373Y-82167963D01*
X113953534Y-82116443D01*
X113797009Y-82032778D01*
X113761271Y-82003448D01*
X113659814Y-81920186D01*
X113576552Y-81818729D01*
X113547222Y-81782991D01*
X113463557Y-81626466D01*
X113412037Y-81456627D01*
X113394641Y-81280000D01*
X113412037Y-81103373D01*
X113463557Y-80933534D01*
X113547222Y-80777009D01*
X113576552Y-80741271D01*
X113659814Y-80639814D01*
X113761271Y-80556552D01*
X113797009Y-80527222D01*
X113953534Y-80443557D01*
X114123373Y-80392037D01*
X114189558Y-80385518D01*
X114255740Y-80379000D01*
X114344260Y-80379000D01*
X114410442Y-80385518D01*
X114410442Y-80385518D01*
G37*
G36*
X109330442Y-80385518D02*
G01*
X109396627Y-80392037D01*
X109566466Y-80443557D01*
X109722991Y-80527222D01*
X109758729Y-80556552D01*
X109860186Y-80639814D01*
X109943448Y-80741271D01*
X109972778Y-80777009D01*
X110056443Y-80933534D01*
X110107963Y-81103373D01*
X110125359Y-81280000D01*
X110107963Y-81456627D01*
X110056443Y-81626466D01*
X109972778Y-81782991D01*
X109943448Y-81818729D01*
X109860186Y-81920186D01*
X109758729Y-82003448D01*
X109722991Y-82032778D01*
X109566466Y-82116443D01*
X109396627Y-82167963D01*
X109330443Y-82174481D01*
X109264260Y-82181000D01*
X109175740Y-82181000D01*
X109109557Y-82174481D01*
X109043373Y-82167963D01*
X108873534Y-82116443D01*
X108717009Y-82032778D01*
X108681271Y-82003448D01*
X108579814Y-81920186D01*
X108496552Y-81818729D01*
X108467222Y-81782991D01*
X108383557Y-81626466D01*
X108332037Y-81456627D01*
X108314641Y-81280000D01*
X108332037Y-81103373D01*
X108383557Y-80933534D01*
X108467222Y-80777009D01*
X108496552Y-80741271D01*
X108579814Y-80639814D01*
X108681271Y-80556552D01*
X108717009Y-80527222D01*
X108873534Y-80443557D01*
X109043373Y-80392037D01*
X109109558Y-80385518D01*
X109175740Y-80379000D01*
X109264260Y-80379000D01*
X109330442Y-80385518D01*
X109330442Y-80385518D01*
G37*
G36*
X134730442Y-80385518D02*
G01*
X134796627Y-80392037D01*
X134966466Y-80443557D01*
X135122991Y-80527222D01*
X135158729Y-80556552D01*
X135260186Y-80639814D01*
X135343448Y-80741271D01*
X135372778Y-80777009D01*
X135456443Y-80933534D01*
X135507963Y-81103373D01*
X135525359Y-81280000D01*
X135507963Y-81456627D01*
X135456443Y-81626466D01*
X135372778Y-81782991D01*
X135343448Y-81818729D01*
X135260186Y-81920186D01*
X135158729Y-82003448D01*
X135122991Y-82032778D01*
X134966466Y-82116443D01*
X134796627Y-82167963D01*
X134730443Y-82174481D01*
X134664260Y-82181000D01*
X134575740Y-82181000D01*
X134509557Y-82174481D01*
X134443373Y-82167963D01*
X134273534Y-82116443D01*
X134117009Y-82032778D01*
X134081271Y-82003448D01*
X133979814Y-81920186D01*
X133896552Y-81818729D01*
X133867222Y-81782991D01*
X133783557Y-81626466D01*
X133732037Y-81456627D01*
X133714641Y-81280000D01*
X133732037Y-81103373D01*
X133783557Y-80933534D01*
X133867222Y-80777009D01*
X133896552Y-80741271D01*
X133979814Y-80639814D01*
X134081271Y-80556552D01*
X134117009Y-80527222D01*
X134273534Y-80443557D01*
X134443373Y-80392037D01*
X134509558Y-80385518D01*
X134575740Y-80379000D01*
X134664260Y-80379000D01*
X134730442Y-80385518D01*
X134730442Y-80385518D01*
G37*
G36*
X109330443Y-77845519D02*
G01*
X109396627Y-77852037D01*
X109566466Y-77903557D01*
X109722991Y-77987222D01*
X109741870Y-78002716D01*
X109860186Y-78099814D01*
X109912367Y-78163398D01*
X109972778Y-78237009D01*
X110056443Y-78393534D01*
X110107963Y-78563373D01*
X110125359Y-78740000D01*
X110107963Y-78916627D01*
X110056443Y-79086466D01*
X109972778Y-79242991D01*
X109943448Y-79278729D01*
X109860186Y-79380186D01*
X109758729Y-79463448D01*
X109722991Y-79492778D01*
X109566466Y-79576443D01*
X109396627Y-79627963D01*
X109330442Y-79634482D01*
X109264260Y-79641000D01*
X109175740Y-79641000D01*
X109109558Y-79634482D01*
X109043373Y-79627963D01*
X108873534Y-79576443D01*
X108717009Y-79492778D01*
X108681271Y-79463448D01*
X108579814Y-79380186D01*
X108496552Y-79278729D01*
X108467222Y-79242991D01*
X108383557Y-79086466D01*
X108332037Y-78916627D01*
X108314641Y-78740000D01*
X108332037Y-78563373D01*
X108383557Y-78393534D01*
X108467222Y-78237009D01*
X108527633Y-78163398D01*
X108579814Y-78099814D01*
X108698130Y-78002716D01*
X108717009Y-77987222D01*
X108873534Y-77903557D01*
X109043373Y-77852037D01*
X109109557Y-77845519D01*
X109175740Y-77839000D01*
X109264260Y-77839000D01*
X109330443Y-77845519D01*
X109330443Y-77845519D01*
G37*
G36*
X114410443Y-77845519D02*
G01*
X114476627Y-77852037D01*
X114646466Y-77903557D01*
X114802991Y-77987222D01*
X114821870Y-78002716D01*
X114940186Y-78099814D01*
X114992367Y-78163398D01*
X115052778Y-78237009D01*
X115136443Y-78393534D01*
X115187963Y-78563373D01*
X115205359Y-78740000D01*
X115187963Y-78916627D01*
X115136443Y-79086466D01*
X115052778Y-79242991D01*
X115023448Y-79278729D01*
X114940186Y-79380186D01*
X114838729Y-79463448D01*
X114802991Y-79492778D01*
X114646466Y-79576443D01*
X114476627Y-79627963D01*
X114410442Y-79634482D01*
X114344260Y-79641000D01*
X114255740Y-79641000D01*
X114189558Y-79634482D01*
X114123373Y-79627963D01*
X113953534Y-79576443D01*
X113797009Y-79492778D01*
X113761271Y-79463448D01*
X113659814Y-79380186D01*
X113576552Y-79278729D01*
X113547222Y-79242991D01*
X113463557Y-79086466D01*
X113412037Y-78916627D01*
X113394641Y-78740000D01*
X113412037Y-78563373D01*
X113463557Y-78393534D01*
X113547222Y-78237009D01*
X113607633Y-78163398D01*
X113659814Y-78099814D01*
X113778130Y-78002716D01*
X113797009Y-77987222D01*
X113953534Y-77903557D01*
X114123373Y-77852037D01*
X114189557Y-77845519D01*
X114255740Y-77839000D01*
X114344260Y-77839000D01*
X114410443Y-77845519D01*
X114410443Y-77845519D01*
G37*
G36*
X139810443Y-77845519D02*
G01*
X139876627Y-77852037D01*
X140046466Y-77903557D01*
X140202991Y-77987222D01*
X140221870Y-78002716D01*
X140340186Y-78099814D01*
X140392367Y-78163398D01*
X140452778Y-78237009D01*
X140536443Y-78393534D01*
X140587963Y-78563373D01*
X140605359Y-78740000D01*
X140587963Y-78916627D01*
X140536443Y-79086466D01*
X140452778Y-79242991D01*
X140423448Y-79278729D01*
X140340186Y-79380186D01*
X140238729Y-79463448D01*
X140202991Y-79492778D01*
X140046466Y-79576443D01*
X139876627Y-79627963D01*
X139810442Y-79634482D01*
X139744260Y-79641000D01*
X139655740Y-79641000D01*
X139589558Y-79634482D01*
X139523373Y-79627963D01*
X139353534Y-79576443D01*
X139197009Y-79492778D01*
X139161271Y-79463448D01*
X139059814Y-79380186D01*
X138976552Y-79278729D01*
X138947222Y-79242991D01*
X138863557Y-79086466D01*
X138812037Y-78916627D01*
X138794641Y-78740000D01*
X138812037Y-78563373D01*
X138863557Y-78393534D01*
X138947222Y-78237009D01*
X139007633Y-78163398D01*
X139059814Y-78099814D01*
X139178130Y-78002716D01*
X139197009Y-77987222D01*
X139353534Y-77903557D01*
X139523373Y-77852037D01*
X139589557Y-77845519D01*
X139655740Y-77839000D01*
X139744260Y-77839000D01*
X139810443Y-77845519D01*
X139810443Y-77845519D01*
G37*
G36*
X134730443Y-77845519D02*
G01*
X134796627Y-77852037D01*
X134966466Y-77903557D01*
X135122991Y-77987222D01*
X135141870Y-78002716D01*
X135260186Y-78099814D01*
X135312367Y-78163398D01*
X135372778Y-78237009D01*
X135456443Y-78393534D01*
X135507963Y-78563373D01*
X135525359Y-78740000D01*
X135507963Y-78916627D01*
X135456443Y-79086466D01*
X135372778Y-79242991D01*
X135343448Y-79278729D01*
X135260186Y-79380186D01*
X135158729Y-79463448D01*
X135122991Y-79492778D01*
X134966466Y-79576443D01*
X134796627Y-79627963D01*
X134730442Y-79634482D01*
X134664260Y-79641000D01*
X134575740Y-79641000D01*
X134509558Y-79634482D01*
X134443373Y-79627963D01*
X134273534Y-79576443D01*
X134117009Y-79492778D01*
X134081271Y-79463448D01*
X133979814Y-79380186D01*
X133896552Y-79278729D01*
X133867222Y-79242991D01*
X133783557Y-79086466D01*
X133732037Y-78916627D01*
X133714641Y-78740000D01*
X133732037Y-78563373D01*
X133783557Y-78393534D01*
X133867222Y-78237009D01*
X133927633Y-78163398D01*
X133979814Y-78099814D01*
X134098130Y-78002716D01*
X134117009Y-77987222D01*
X134273534Y-77903557D01*
X134443373Y-77852037D01*
X134509557Y-77845519D01*
X134575740Y-77839000D01*
X134664260Y-77839000D01*
X134730443Y-77845519D01*
X134730443Y-77845519D01*
G37*
G36*
X104477916Y-75632334D02*
G01*
X104586492Y-75665271D01*
X104586495Y-75665272D01*
X104622601Y-75684571D01*
X104686557Y-75718756D01*
X104774264Y-75790736D01*
X104846244Y-75878443D01*
X104880429Y-75942399D01*
X104899728Y-75978505D01*
X104899729Y-75978508D01*
X104932666Y-76087084D01*
X104943787Y-76200000D01*
X104932666Y-76312916D01*
X104899729Y-76421492D01*
X104899728Y-76421495D01*
X104880429Y-76457601D01*
X104846244Y-76521557D01*
X104774264Y-76609264D01*
X104686557Y-76681244D01*
X104605141Y-76724761D01*
X104584766Y-76738375D01*
X104567439Y-76755702D01*
X104553826Y-76776076D01*
X104544448Y-76798715D01*
X104539668Y-76822748D01*
X104539668Y-76847252D01*
X104544448Y-76871285D01*
X104553826Y-76893924D01*
X104567440Y-76914299D01*
X104584767Y-76931626D01*
X104605141Y-76945239D01*
X104686557Y-76988756D01*
X104774264Y-77060736D01*
X104846244Y-77148443D01*
X104880429Y-77212399D01*
X104899728Y-77248505D01*
X104899729Y-77248508D01*
X104932666Y-77357084D01*
X104943787Y-77470000D01*
X104932666Y-77582916D01*
X104899729Y-77691492D01*
X104899728Y-77691495D01*
X104880429Y-77727601D01*
X104846244Y-77791557D01*
X104774264Y-77879264D01*
X104697354Y-77942383D01*
X104680035Y-77959702D01*
X104666421Y-77980077D01*
X104657043Y-78002716D01*
X104652263Y-78026749D01*
X104652263Y-78051253D01*
X104657043Y-78075286D01*
X104666421Y-78097925D01*
X104680034Y-78118299D01*
X104697361Y-78135626D01*
X104717736Y-78149240D01*
X104740375Y-78158618D01*
X104764408Y-78163398D01*
X104776660Y-78164000D01*
X104941000Y-78164000D01*
X104941000Y-79316000D01*
X103339000Y-79316000D01*
X103339000Y-78164000D01*
X103503340Y-78164000D01*
X103527726Y-78161598D01*
X103551175Y-78154485D01*
X103572786Y-78142934D01*
X103591728Y-78127389D01*
X103607273Y-78108447D01*
X103618824Y-78086836D01*
X103625937Y-78063387D01*
X103628339Y-78039001D01*
X103625937Y-78014615D01*
X103618824Y-77991166D01*
X103607273Y-77969555D01*
X103591728Y-77950613D01*
X103582655Y-77942391D01*
X103505736Y-77879264D01*
X103433756Y-77791557D01*
X103399571Y-77727601D01*
X103380272Y-77691495D01*
X103380271Y-77691492D01*
X103347334Y-77582916D01*
X103336213Y-77470000D01*
X103347334Y-77357084D01*
X103380271Y-77248508D01*
X103380272Y-77248505D01*
X103399571Y-77212399D01*
X103433756Y-77148443D01*
X103505736Y-77060736D01*
X103593443Y-76988756D01*
X103674859Y-76945239D01*
X103695234Y-76931625D01*
X103712561Y-76914298D01*
X103726174Y-76893924D01*
X103735552Y-76871285D01*
X103740332Y-76847252D01*
X103740332Y-76822748D01*
X103735552Y-76798715D01*
X103726174Y-76776076D01*
X103712560Y-76755701D01*
X103695233Y-76738374D01*
X103674859Y-76724761D01*
X103593443Y-76681244D01*
X103505736Y-76609264D01*
X103433756Y-76521557D01*
X103399571Y-76457601D01*
X103380272Y-76421495D01*
X103380271Y-76421492D01*
X103347334Y-76312916D01*
X103336213Y-76200000D01*
X103347334Y-76087084D01*
X103380271Y-75978508D01*
X103380272Y-75978505D01*
X103399571Y-75942399D01*
X103433756Y-75878443D01*
X103505736Y-75790736D01*
X103593443Y-75718756D01*
X103657399Y-75684571D01*
X103693505Y-75665272D01*
X103693508Y-75665271D01*
X103802084Y-75632334D01*
X103886702Y-75624000D01*
X104393298Y-75624000D01*
X104477916Y-75632334D01*
X104477916Y-75632334D01*
G37*
G36*
X139810442Y-75305518D02*
G01*
X139876627Y-75312037D01*
X140046466Y-75363557D01*
X140202991Y-75447222D01*
X140238729Y-75476552D01*
X140340186Y-75559814D01*
X140423448Y-75661271D01*
X140452778Y-75697009D01*
X140536443Y-75853534D01*
X140587963Y-76023373D01*
X140605359Y-76200000D01*
X140587963Y-76376627D01*
X140536443Y-76546466D01*
X140452778Y-76702991D01*
X140426731Y-76734729D01*
X140340186Y-76840186D01*
X140238729Y-76923448D01*
X140202991Y-76952778D01*
X140046466Y-77036443D01*
X139876627Y-77087963D01*
X139810442Y-77094482D01*
X139744260Y-77101000D01*
X139655740Y-77101000D01*
X139589558Y-77094482D01*
X139523373Y-77087963D01*
X139353534Y-77036443D01*
X139197009Y-76952778D01*
X139161271Y-76923448D01*
X139059814Y-76840186D01*
X138973269Y-76734729D01*
X138947222Y-76702991D01*
X138863557Y-76546466D01*
X138812037Y-76376627D01*
X138794641Y-76200000D01*
X138812037Y-76023373D01*
X138863557Y-75853534D01*
X138947222Y-75697009D01*
X138976552Y-75661271D01*
X139059814Y-75559814D01*
X139161271Y-75476552D01*
X139197009Y-75447222D01*
X139353534Y-75363557D01*
X139523373Y-75312037D01*
X139589558Y-75305518D01*
X139655740Y-75299000D01*
X139744260Y-75299000D01*
X139810442Y-75305518D01*
X139810442Y-75305518D01*
G37*
G36*
X134730442Y-75305518D02*
G01*
X134796627Y-75312037D01*
X134966466Y-75363557D01*
X135122991Y-75447222D01*
X135158729Y-75476552D01*
X135260186Y-75559814D01*
X135343448Y-75661271D01*
X135372778Y-75697009D01*
X135456443Y-75853534D01*
X135507963Y-76023373D01*
X135525359Y-76200000D01*
X135507963Y-76376627D01*
X135456443Y-76546466D01*
X135372778Y-76702991D01*
X135346731Y-76734729D01*
X135260186Y-76840186D01*
X135158729Y-76923448D01*
X135122991Y-76952778D01*
X134966466Y-77036443D01*
X134796627Y-77087963D01*
X134730442Y-77094482D01*
X134664260Y-77101000D01*
X134575740Y-77101000D01*
X134509558Y-77094482D01*
X134443373Y-77087963D01*
X134273534Y-77036443D01*
X134117009Y-76952778D01*
X134081271Y-76923448D01*
X133979814Y-76840186D01*
X133893269Y-76734729D01*
X133867222Y-76702991D01*
X133783557Y-76546466D01*
X133732037Y-76376627D01*
X133714641Y-76200000D01*
X133732037Y-76023373D01*
X133783557Y-75853534D01*
X133867222Y-75697009D01*
X133896552Y-75661271D01*
X133979814Y-75559814D01*
X134081271Y-75476552D01*
X134117009Y-75447222D01*
X134273534Y-75363557D01*
X134443373Y-75312037D01*
X134509558Y-75305518D01*
X134575740Y-75299000D01*
X134664260Y-75299000D01*
X134730442Y-75305518D01*
X134730442Y-75305518D01*
G37*
G36*
X115201000Y-77101000D02*
G01*
X113399000Y-77101000D01*
X113399000Y-75299000D01*
X115201000Y-75299000D01*
X115201000Y-77101000D01*
X115201000Y-77101000D01*
G37*
G36*
X109330442Y-75305518D02*
G01*
X109396627Y-75312037D01*
X109566466Y-75363557D01*
X109722991Y-75447222D01*
X109758729Y-75476552D01*
X109860186Y-75559814D01*
X109943448Y-75661271D01*
X109972778Y-75697009D01*
X110056443Y-75853534D01*
X110107963Y-76023373D01*
X110125359Y-76200000D01*
X110107963Y-76376627D01*
X110056443Y-76546466D01*
X109972778Y-76702991D01*
X109946731Y-76734729D01*
X109860186Y-76840186D01*
X109758729Y-76923448D01*
X109722991Y-76952778D01*
X109566466Y-77036443D01*
X109396627Y-77087963D01*
X109330442Y-77094482D01*
X109264260Y-77101000D01*
X109175740Y-77101000D01*
X109109558Y-77094482D01*
X109043373Y-77087963D01*
X108873534Y-77036443D01*
X108717009Y-76952778D01*
X108681271Y-76923448D01*
X108579814Y-76840186D01*
X108493269Y-76734729D01*
X108467222Y-76702991D01*
X108383557Y-76546466D01*
X108332037Y-76376627D01*
X108314641Y-76200000D01*
X108332037Y-76023373D01*
X108383557Y-75853534D01*
X108467222Y-75697009D01*
X108496552Y-75661271D01*
X108579814Y-75559814D01*
X108681271Y-75476552D01*
X108717009Y-75447222D01*
X108873534Y-75363557D01*
X109043373Y-75312037D01*
X109109558Y-75305518D01*
X109175740Y-75299000D01*
X109264260Y-75299000D01*
X109330442Y-75305518D01*
X109330442Y-75305518D01*
G37*
G36*
X134730442Y-72765518D02*
G01*
X134796627Y-72772037D01*
X134966466Y-72823557D01*
X135122991Y-72907222D01*
X135158729Y-72936552D01*
X135260186Y-73019814D01*
X135343448Y-73121271D01*
X135372778Y-73157009D01*
X135456443Y-73313534D01*
X135507963Y-73483373D01*
X135525359Y-73660000D01*
X135507963Y-73836627D01*
X135456443Y-74006466D01*
X135372778Y-74162991D01*
X135343448Y-74198729D01*
X135260186Y-74300186D01*
X135158729Y-74383448D01*
X135122991Y-74412778D01*
X134966466Y-74496443D01*
X134796627Y-74547963D01*
X134730442Y-74554482D01*
X134664260Y-74561000D01*
X134575740Y-74561000D01*
X134509558Y-74554482D01*
X134443373Y-74547963D01*
X134273534Y-74496443D01*
X134117009Y-74412778D01*
X134081271Y-74383448D01*
X133979814Y-74300186D01*
X133896552Y-74198729D01*
X133867222Y-74162991D01*
X133783557Y-74006466D01*
X133732037Y-73836627D01*
X133714641Y-73660000D01*
X133732037Y-73483373D01*
X133783557Y-73313534D01*
X133867222Y-73157009D01*
X133896552Y-73121271D01*
X133979814Y-73019814D01*
X134081271Y-72936552D01*
X134117009Y-72907222D01*
X134273534Y-72823557D01*
X134443373Y-72772037D01*
X134509558Y-72765518D01*
X134575740Y-72759000D01*
X134664260Y-72759000D01*
X134730442Y-72765518D01*
X134730442Y-72765518D01*
G37*
G36*
X109330442Y-72765518D02*
G01*
X109396627Y-72772037D01*
X109566466Y-72823557D01*
X109722991Y-72907222D01*
X109758729Y-72936552D01*
X109860186Y-73019814D01*
X109943448Y-73121271D01*
X109972778Y-73157009D01*
X110056443Y-73313534D01*
X110107963Y-73483373D01*
X110125359Y-73660000D01*
X110107963Y-73836627D01*
X110056443Y-74006466D01*
X109972778Y-74162991D01*
X109943448Y-74198729D01*
X109860186Y-74300186D01*
X109758729Y-74383448D01*
X109722991Y-74412778D01*
X109566466Y-74496443D01*
X109396627Y-74547963D01*
X109330442Y-74554482D01*
X109264260Y-74561000D01*
X109175740Y-74561000D01*
X109109558Y-74554482D01*
X109043373Y-74547963D01*
X108873534Y-74496443D01*
X108717009Y-74412778D01*
X108681271Y-74383448D01*
X108579814Y-74300186D01*
X108496552Y-74198729D01*
X108467222Y-74162991D01*
X108383557Y-74006466D01*
X108332037Y-73836627D01*
X108314641Y-73660000D01*
X108332037Y-73483373D01*
X108383557Y-73313534D01*
X108467222Y-73157009D01*
X108496552Y-73121271D01*
X108579814Y-73019814D01*
X108681271Y-72936552D01*
X108717009Y-72907222D01*
X108873534Y-72823557D01*
X109043373Y-72772037D01*
X109109558Y-72765518D01*
X109175740Y-72759000D01*
X109264260Y-72759000D01*
X109330442Y-72765518D01*
X109330442Y-72765518D01*
G37*
G36*
X139810442Y-72765518D02*
G01*
X139876627Y-72772037D01*
X140046466Y-72823557D01*
X140202991Y-72907222D01*
X140238729Y-72936552D01*
X140340186Y-73019814D01*
X140423448Y-73121271D01*
X140452778Y-73157009D01*
X140536443Y-73313534D01*
X140587963Y-73483373D01*
X140605359Y-73660000D01*
X140587963Y-73836627D01*
X140536443Y-74006466D01*
X140452778Y-74162991D01*
X140423448Y-74198729D01*
X140340186Y-74300186D01*
X140238729Y-74383448D01*
X140202991Y-74412778D01*
X140046466Y-74496443D01*
X139876627Y-74547963D01*
X139810442Y-74554482D01*
X139744260Y-74561000D01*
X139655740Y-74561000D01*
X139589558Y-74554482D01*
X139523373Y-74547963D01*
X139353534Y-74496443D01*
X139197009Y-74412778D01*
X139161271Y-74383448D01*
X139059814Y-74300186D01*
X138976552Y-74198729D01*
X138947222Y-74162991D01*
X138863557Y-74006466D01*
X138812037Y-73836627D01*
X138794641Y-73660000D01*
X138812037Y-73483373D01*
X138863557Y-73313534D01*
X138947222Y-73157009D01*
X138976552Y-73121271D01*
X139059814Y-73019814D01*
X139161271Y-72936552D01*
X139197009Y-72907222D01*
X139353534Y-72823557D01*
X139523373Y-72772037D01*
X139589558Y-72765518D01*
X139655740Y-72759000D01*
X139744260Y-72759000D01*
X139810442Y-72765518D01*
X139810442Y-72765518D01*
G37*
G36*
X104250442Y-70225518D02*
G01*
X104316627Y-70232037D01*
X104486466Y-70283557D01*
X104642991Y-70367222D01*
X104678729Y-70396552D01*
X104780186Y-70479814D01*
X104863448Y-70581271D01*
X104892778Y-70617009D01*
X104976443Y-70773534D01*
X105027963Y-70943373D01*
X105045359Y-71120000D01*
X105027963Y-71296627D01*
X104976443Y-71466466D01*
X104892778Y-71622991D01*
X104863448Y-71658729D01*
X104780186Y-71760186D01*
X104678729Y-71843448D01*
X104642991Y-71872778D01*
X104486466Y-71956443D01*
X104316627Y-72007963D01*
X104250443Y-72014481D01*
X104184260Y-72021000D01*
X104095740Y-72021000D01*
X104029557Y-72014481D01*
X103963373Y-72007963D01*
X103793534Y-71956443D01*
X103637009Y-71872778D01*
X103601271Y-71843448D01*
X103499814Y-71760186D01*
X103416552Y-71658729D01*
X103387222Y-71622991D01*
X103303557Y-71466466D01*
X103252037Y-71296627D01*
X103234641Y-71120000D01*
X103252037Y-70943373D01*
X103303557Y-70773534D01*
X103387222Y-70617009D01*
X103416552Y-70581271D01*
X103499814Y-70479814D01*
X103601271Y-70396552D01*
X103637009Y-70367222D01*
X103793534Y-70283557D01*
X103963373Y-70232037D01*
X104029558Y-70225518D01*
X104095740Y-70219000D01*
X104184260Y-70219000D01*
X104250442Y-70225518D01*
X104250442Y-70225518D01*
G37*
G36*
X140601000Y-72021000D02*
G01*
X138799000Y-72021000D01*
X138799000Y-70219000D01*
X140601000Y-70219000D01*
X140601000Y-72021000D01*
X140601000Y-72021000D01*
G37*
G36*
X134730442Y-70225518D02*
G01*
X134796627Y-70232037D01*
X134966466Y-70283557D01*
X135122991Y-70367222D01*
X135158729Y-70396552D01*
X135260186Y-70479814D01*
X135343448Y-70581271D01*
X135372778Y-70617009D01*
X135456443Y-70773534D01*
X135507963Y-70943373D01*
X135525359Y-71120000D01*
X135507963Y-71296627D01*
X135456443Y-71466466D01*
X135372778Y-71622991D01*
X135343448Y-71658729D01*
X135260186Y-71760186D01*
X135158729Y-71843448D01*
X135122991Y-71872778D01*
X134966466Y-71956443D01*
X134796627Y-72007963D01*
X134730443Y-72014481D01*
X134664260Y-72021000D01*
X134575740Y-72021000D01*
X134509557Y-72014481D01*
X134443373Y-72007963D01*
X134273534Y-71956443D01*
X134117009Y-71872778D01*
X134081271Y-71843448D01*
X133979814Y-71760186D01*
X133896552Y-71658729D01*
X133867222Y-71622991D01*
X133783557Y-71466466D01*
X133732037Y-71296627D01*
X133714641Y-71120000D01*
X133732037Y-70943373D01*
X133783557Y-70773534D01*
X133867222Y-70617009D01*
X133896552Y-70581271D01*
X133979814Y-70479814D01*
X134081271Y-70396552D01*
X134117009Y-70367222D01*
X134273534Y-70283557D01*
X134443373Y-70232037D01*
X134509558Y-70225518D01*
X134575740Y-70219000D01*
X134664260Y-70219000D01*
X134730442Y-70225518D01*
X134730442Y-70225518D01*
G37*
G36*
X109330442Y-70225518D02*
G01*
X109396627Y-70232037D01*
X109566466Y-70283557D01*
X109722991Y-70367222D01*
X109758729Y-70396552D01*
X109860186Y-70479814D01*
X109943448Y-70581271D01*
X109972778Y-70617009D01*
X110056443Y-70773534D01*
X110107963Y-70943373D01*
X110125359Y-71120000D01*
X110107963Y-71296627D01*
X110056443Y-71466466D01*
X109972778Y-71622991D01*
X109943448Y-71658729D01*
X109860186Y-71760186D01*
X109758729Y-71843448D01*
X109722991Y-71872778D01*
X109566466Y-71956443D01*
X109396627Y-72007963D01*
X109330443Y-72014481D01*
X109264260Y-72021000D01*
X109175740Y-72021000D01*
X109109557Y-72014481D01*
X109043373Y-72007963D01*
X108873534Y-71956443D01*
X108717009Y-71872778D01*
X108681271Y-71843448D01*
X108579814Y-71760186D01*
X108496552Y-71658729D01*
X108467222Y-71622991D01*
X108383557Y-71466466D01*
X108332037Y-71296627D01*
X108314641Y-71120000D01*
X108332037Y-70943373D01*
X108383557Y-70773534D01*
X108467222Y-70617009D01*
X108496552Y-70581271D01*
X108579814Y-70479814D01*
X108681271Y-70396552D01*
X108717009Y-70367222D01*
X108873534Y-70283557D01*
X109043373Y-70232037D01*
X109109558Y-70225518D01*
X109175740Y-70219000D01*
X109264260Y-70219000D01*
X109330442Y-70225518D01*
X109330442Y-70225518D01*
G37*
G36*
X134730443Y-67685519D02*
G01*
X134796627Y-67692037D01*
X134966466Y-67743557D01*
X135122991Y-67827222D01*
X135158729Y-67856552D01*
X135260186Y-67939814D01*
X135343448Y-68041271D01*
X135372778Y-68077009D01*
X135456443Y-68233534D01*
X135507963Y-68403373D01*
X135525359Y-68580000D01*
X135507963Y-68756627D01*
X135456443Y-68926466D01*
X135372778Y-69082991D01*
X135343448Y-69118729D01*
X135260186Y-69220186D01*
X135158729Y-69303448D01*
X135122991Y-69332778D01*
X134966466Y-69416443D01*
X134796627Y-69467963D01*
X134730442Y-69474482D01*
X134664260Y-69481000D01*
X134575740Y-69481000D01*
X134509558Y-69474482D01*
X134443373Y-69467963D01*
X134273534Y-69416443D01*
X134117009Y-69332778D01*
X134081271Y-69303448D01*
X133979814Y-69220186D01*
X133896552Y-69118729D01*
X133867222Y-69082991D01*
X133783557Y-68926466D01*
X133732037Y-68756627D01*
X133714641Y-68580000D01*
X133732037Y-68403373D01*
X133783557Y-68233534D01*
X133867222Y-68077009D01*
X133896552Y-68041271D01*
X133979814Y-67939814D01*
X134081271Y-67856552D01*
X134117009Y-67827222D01*
X134273534Y-67743557D01*
X134443373Y-67692037D01*
X134509557Y-67685519D01*
X134575740Y-67679000D01*
X134664260Y-67679000D01*
X134730443Y-67685519D01*
X134730443Y-67685519D01*
G37*
G36*
X105041000Y-69481000D02*
G01*
X103239000Y-69481000D01*
X103239000Y-67679000D01*
X105041000Y-67679000D01*
X105041000Y-69481000D01*
X105041000Y-69481000D01*
G37*
G36*
X109330443Y-67685519D02*
G01*
X109396627Y-67692037D01*
X109566466Y-67743557D01*
X109722991Y-67827222D01*
X109758729Y-67856552D01*
X109860186Y-67939814D01*
X109943448Y-68041271D01*
X109972778Y-68077009D01*
X110056443Y-68233534D01*
X110107963Y-68403373D01*
X110125359Y-68580000D01*
X110107963Y-68756627D01*
X110056443Y-68926466D01*
X109972778Y-69082991D01*
X109943448Y-69118729D01*
X109860186Y-69220186D01*
X109758729Y-69303448D01*
X109722991Y-69332778D01*
X109566466Y-69416443D01*
X109396627Y-69467963D01*
X109330442Y-69474482D01*
X109264260Y-69481000D01*
X109175740Y-69481000D01*
X109109558Y-69474482D01*
X109043373Y-69467963D01*
X108873534Y-69416443D01*
X108717009Y-69332778D01*
X108681271Y-69303448D01*
X108579814Y-69220186D01*
X108496552Y-69118729D01*
X108467222Y-69082991D01*
X108383557Y-68926466D01*
X108332037Y-68756627D01*
X108314641Y-68580000D01*
X108332037Y-68403373D01*
X108383557Y-68233534D01*
X108467222Y-68077009D01*
X108496552Y-68041271D01*
X108579814Y-67939814D01*
X108681271Y-67856552D01*
X108717009Y-67827222D01*
X108873534Y-67743557D01*
X109043373Y-67692037D01*
X109109557Y-67685519D01*
X109175740Y-67679000D01*
X109264260Y-67679000D01*
X109330443Y-67685519D01*
X109330443Y-67685519D01*
G37*
G36*
X109330442Y-65145518D02*
G01*
X109396627Y-65152037D01*
X109566466Y-65203557D01*
X109722991Y-65287222D01*
X109758729Y-65316552D01*
X109860186Y-65399814D01*
X109943448Y-65501271D01*
X109972778Y-65537009D01*
X110056443Y-65693534D01*
X110107963Y-65863373D01*
X110125359Y-66040000D01*
X110107963Y-66216627D01*
X110056443Y-66386466D01*
X109972778Y-66542991D01*
X109943448Y-66578729D01*
X109860186Y-66680186D01*
X109758729Y-66763448D01*
X109722991Y-66792778D01*
X109566466Y-66876443D01*
X109396627Y-66927963D01*
X109330442Y-66934482D01*
X109264260Y-66941000D01*
X109175740Y-66941000D01*
X109109558Y-66934482D01*
X109043373Y-66927963D01*
X108873534Y-66876443D01*
X108717009Y-66792778D01*
X108681271Y-66763448D01*
X108579814Y-66680186D01*
X108496552Y-66578729D01*
X108467222Y-66542991D01*
X108383557Y-66386466D01*
X108332037Y-66216627D01*
X108314641Y-66040000D01*
X108332037Y-65863373D01*
X108383557Y-65693534D01*
X108467222Y-65537009D01*
X108496552Y-65501271D01*
X108579814Y-65399814D01*
X108681271Y-65316552D01*
X108717009Y-65287222D01*
X108873534Y-65203557D01*
X109043373Y-65152037D01*
X109109558Y-65145518D01*
X109175740Y-65139000D01*
X109264260Y-65139000D01*
X109330442Y-65145518D01*
X109330442Y-65145518D01*
G37*
G36*
X134730442Y-65145518D02*
G01*
X134796627Y-65152037D01*
X134966466Y-65203557D01*
X135122991Y-65287222D01*
X135158729Y-65316552D01*
X135260186Y-65399814D01*
X135343448Y-65501271D01*
X135372778Y-65537009D01*
X135456443Y-65693534D01*
X135507963Y-65863373D01*
X135525359Y-66040000D01*
X135507963Y-66216627D01*
X135456443Y-66386466D01*
X135372778Y-66542991D01*
X135343448Y-66578729D01*
X135260186Y-66680186D01*
X135158729Y-66763448D01*
X135122991Y-66792778D01*
X134966466Y-66876443D01*
X134796627Y-66927963D01*
X134730442Y-66934482D01*
X134664260Y-66941000D01*
X134575740Y-66941000D01*
X134509558Y-66934482D01*
X134443373Y-66927963D01*
X134273534Y-66876443D01*
X134117009Y-66792778D01*
X134081271Y-66763448D01*
X133979814Y-66680186D01*
X133896552Y-66578729D01*
X133867222Y-66542991D01*
X133783557Y-66386466D01*
X133732037Y-66216627D01*
X133714641Y-66040000D01*
X133732037Y-65863373D01*
X133783557Y-65693534D01*
X133867222Y-65537009D01*
X133896552Y-65501271D01*
X133979814Y-65399814D01*
X134081271Y-65316552D01*
X134117009Y-65287222D01*
X134273534Y-65203557D01*
X134443373Y-65152037D01*
X134509558Y-65145518D01*
X134575740Y-65139000D01*
X134664260Y-65139000D01*
X134730442Y-65145518D01*
X134730442Y-65145518D01*
G37*
G36*
X134730442Y-62605518D02*
G01*
X134796627Y-62612037D01*
X134966466Y-62663557D01*
X135122991Y-62747222D01*
X135158729Y-62776552D01*
X135260186Y-62859814D01*
X135343448Y-62961271D01*
X135372778Y-62997009D01*
X135456443Y-63153534D01*
X135507963Y-63323373D01*
X135525359Y-63500000D01*
X135507963Y-63676627D01*
X135456443Y-63846466D01*
X135372778Y-64002991D01*
X135343448Y-64038729D01*
X135260186Y-64140186D01*
X135158729Y-64223448D01*
X135122991Y-64252778D01*
X134966466Y-64336443D01*
X134796627Y-64387963D01*
X134730442Y-64394482D01*
X134664260Y-64401000D01*
X134575740Y-64401000D01*
X134509558Y-64394482D01*
X134443373Y-64387963D01*
X134273534Y-64336443D01*
X134117009Y-64252778D01*
X134081271Y-64223448D01*
X133979814Y-64140186D01*
X133896552Y-64038729D01*
X133867222Y-64002991D01*
X133783557Y-63846466D01*
X133732037Y-63676627D01*
X133714641Y-63500000D01*
X133732037Y-63323373D01*
X133783557Y-63153534D01*
X133867222Y-62997009D01*
X133896552Y-62961271D01*
X133979814Y-62859814D01*
X134081271Y-62776552D01*
X134117009Y-62747222D01*
X134273534Y-62663557D01*
X134443373Y-62612037D01*
X134509558Y-62605518D01*
X134575740Y-62599000D01*
X134664260Y-62599000D01*
X134730442Y-62605518D01*
X134730442Y-62605518D01*
G37*
G36*
X109330442Y-62605518D02*
G01*
X109396627Y-62612037D01*
X109566466Y-62663557D01*
X109722991Y-62747222D01*
X109758729Y-62776552D01*
X109860186Y-62859814D01*
X109943448Y-62961271D01*
X109972778Y-62997009D01*
X110056443Y-63153534D01*
X110107963Y-63323373D01*
X110125359Y-63500000D01*
X110107963Y-63676627D01*
X110056443Y-63846466D01*
X109972778Y-64002991D01*
X109943448Y-64038729D01*
X109860186Y-64140186D01*
X109758729Y-64223448D01*
X109722991Y-64252778D01*
X109566466Y-64336443D01*
X109396627Y-64387963D01*
X109330442Y-64394482D01*
X109264260Y-64401000D01*
X109175740Y-64401000D01*
X109109558Y-64394482D01*
X109043373Y-64387963D01*
X108873534Y-64336443D01*
X108717009Y-64252778D01*
X108681271Y-64223448D01*
X108579814Y-64140186D01*
X108496552Y-64038729D01*
X108467222Y-64002991D01*
X108383557Y-63846466D01*
X108332037Y-63676627D01*
X108314641Y-63500000D01*
X108332037Y-63323373D01*
X108383557Y-63153534D01*
X108467222Y-62997009D01*
X108496552Y-62961271D01*
X108579814Y-62859814D01*
X108681271Y-62776552D01*
X108717009Y-62747222D01*
X108873534Y-62663557D01*
X109043373Y-62612037D01*
X109109558Y-62605518D01*
X109175740Y-62599000D01*
X109264260Y-62599000D01*
X109330442Y-62605518D01*
X109330442Y-62605518D01*
G37*
G36*
X134730442Y-60065518D02*
G01*
X134796627Y-60072037D01*
X134966466Y-60123557D01*
X135122991Y-60207222D01*
X135158729Y-60236552D01*
X135260186Y-60319814D01*
X135343448Y-60421271D01*
X135372778Y-60457009D01*
X135456443Y-60613534D01*
X135507963Y-60783373D01*
X135525359Y-60960000D01*
X135507963Y-61136627D01*
X135456443Y-61306466D01*
X135372778Y-61462991D01*
X135343448Y-61498729D01*
X135260186Y-61600186D01*
X135158729Y-61683448D01*
X135122991Y-61712778D01*
X134966466Y-61796443D01*
X134796627Y-61847963D01*
X134730443Y-61854481D01*
X134664260Y-61861000D01*
X134575740Y-61861000D01*
X134509557Y-61854481D01*
X134443373Y-61847963D01*
X134273534Y-61796443D01*
X134117009Y-61712778D01*
X134081271Y-61683448D01*
X133979814Y-61600186D01*
X133896552Y-61498729D01*
X133867222Y-61462991D01*
X133783557Y-61306466D01*
X133732037Y-61136627D01*
X133714641Y-60960000D01*
X133732037Y-60783373D01*
X133783557Y-60613534D01*
X133867222Y-60457009D01*
X133896552Y-60421271D01*
X133979814Y-60319814D01*
X134081271Y-60236552D01*
X134117009Y-60207222D01*
X134273534Y-60123557D01*
X134443373Y-60072037D01*
X134509558Y-60065518D01*
X134575740Y-60059000D01*
X134664260Y-60059000D01*
X134730442Y-60065518D01*
X134730442Y-60065518D01*
G37*
G36*
X109330442Y-60065518D02*
G01*
X109396627Y-60072037D01*
X109566466Y-60123557D01*
X109722991Y-60207222D01*
X109758729Y-60236552D01*
X109860186Y-60319814D01*
X109943448Y-60421271D01*
X109972778Y-60457009D01*
X110056443Y-60613534D01*
X110107963Y-60783373D01*
X110125359Y-60960000D01*
X110107963Y-61136627D01*
X110056443Y-61306466D01*
X109972778Y-61462991D01*
X109943448Y-61498729D01*
X109860186Y-61600186D01*
X109758729Y-61683448D01*
X109722991Y-61712778D01*
X109566466Y-61796443D01*
X109396627Y-61847963D01*
X109330443Y-61854481D01*
X109264260Y-61861000D01*
X109175740Y-61861000D01*
X109109557Y-61854481D01*
X109043373Y-61847963D01*
X108873534Y-61796443D01*
X108717009Y-61712778D01*
X108681271Y-61683448D01*
X108579814Y-61600186D01*
X108496552Y-61498729D01*
X108467222Y-61462991D01*
X108383557Y-61306466D01*
X108332037Y-61136627D01*
X108314641Y-60960000D01*
X108332037Y-60783373D01*
X108383557Y-60613534D01*
X108467222Y-60457009D01*
X108496552Y-60421271D01*
X108579814Y-60319814D01*
X108681271Y-60236552D01*
X108717009Y-60207222D01*
X108873534Y-60123557D01*
X109043373Y-60072037D01*
X109109558Y-60065518D01*
X109175740Y-60059000D01*
X109264260Y-60059000D01*
X109330442Y-60065518D01*
X109330442Y-60065518D01*
G37*
G36*
X104250442Y-60065518D02*
G01*
X104316627Y-60072037D01*
X104486466Y-60123557D01*
X104642991Y-60207222D01*
X104678729Y-60236552D01*
X104780186Y-60319814D01*
X104863448Y-60421271D01*
X104892778Y-60457009D01*
X104976443Y-60613534D01*
X105027963Y-60783373D01*
X105045359Y-60960000D01*
X105027963Y-61136627D01*
X104976443Y-61306466D01*
X104892778Y-61462991D01*
X104863448Y-61498729D01*
X104780186Y-61600186D01*
X104678729Y-61683448D01*
X104642991Y-61712778D01*
X104486466Y-61796443D01*
X104316627Y-61847963D01*
X104250443Y-61854481D01*
X104184260Y-61861000D01*
X104095740Y-61861000D01*
X104029557Y-61854481D01*
X103963373Y-61847963D01*
X103793534Y-61796443D01*
X103637009Y-61712778D01*
X103601271Y-61683448D01*
X103499814Y-61600186D01*
X103416552Y-61498729D01*
X103387222Y-61462991D01*
X103303557Y-61306466D01*
X103252037Y-61136627D01*
X103234641Y-60960000D01*
X103252037Y-60783373D01*
X103303557Y-60613534D01*
X103387222Y-60457009D01*
X103416552Y-60421271D01*
X103499814Y-60319814D01*
X103601271Y-60236552D01*
X103637009Y-60207222D01*
X103793534Y-60123557D01*
X103963373Y-60072037D01*
X104029558Y-60065518D01*
X104095740Y-60059000D01*
X104184260Y-60059000D01*
X104250442Y-60065518D01*
X104250442Y-60065518D01*
G37*
G36*
X134730443Y-57525519D02*
G01*
X134796627Y-57532037D01*
X134966466Y-57583557D01*
X135122991Y-57667222D01*
X135158729Y-57696552D01*
X135260186Y-57779814D01*
X135343448Y-57881271D01*
X135372778Y-57917009D01*
X135456443Y-58073534D01*
X135507963Y-58243373D01*
X135525359Y-58420000D01*
X135507963Y-58596627D01*
X135456443Y-58766466D01*
X135372778Y-58922991D01*
X135343448Y-58958729D01*
X135260186Y-59060186D01*
X135158729Y-59143448D01*
X135122991Y-59172778D01*
X134966466Y-59256443D01*
X134796627Y-59307963D01*
X134730442Y-59314482D01*
X134664260Y-59321000D01*
X134575740Y-59321000D01*
X134509558Y-59314482D01*
X134443373Y-59307963D01*
X134273534Y-59256443D01*
X134117009Y-59172778D01*
X134081271Y-59143448D01*
X133979814Y-59060186D01*
X133896552Y-58958729D01*
X133867222Y-58922991D01*
X133783557Y-58766466D01*
X133732037Y-58596627D01*
X133714641Y-58420000D01*
X133732037Y-58243373D01*
X133783557Y-58073534D01*
X133867222Y-57917009D01*
X133896552Y-57881271D01*
X133979814Y-57779814D01*
X134081271Y-57696552D01*
X134117009Y-57667222D01*
X134273534Y-57583557D01*
X134443373Y-57532037D01*
X134509557Y-57525519D01*
X134575740Y-57519000D01*
X134664260Y-57519000D01*
X134730443Y-57525519D01*
X134730443Y-57525519D01*
G37*
G36*
X105041000Y-59321000D02*
G01*
X103239000Y-59321000D01*
X103239000Y-57519000D01*
X105041000Y-57519000D01*
X105041000Y-59321000D01*
X105041000Y-59321000D01*
G37*
G36*
X109330443Y-57525519D02*
G01*
X109396627Y-57532037D01*
X109566466Y-57583557D01*
X109722991Y-57667222D01*
X109758729Y-57696552D01*
X109860186Y-57779814D01*
X109943448Y-57881271D01*
X109972778Y-57917009D01*
X110056443Y-58073534D01*
X110107963Y-58243373D01*
X110125359Y-58420000D01*
X110107963Y-58596627D01*
X110056443Y-58766466D01*
X109972778Y-58922991D01*
X109943448Y-58958729D01*
X109860186Y-59060186D01*
X109758729Y-59143448D01*
X109722991Y-59172778D01*
X109566466Y-59256443D01*
X109396627Y-59307963D01*
X109330442Y-59314482D01*
X109264260Y-59321000D01*
X109175740Y-59321000D01*
X109109558Y-59314482D01*
X109043373Y-59307963D01*
X108873534Y-59256443D01*
X108717009Y-59172778D01*
X108681271Y-59143448D01*
X108579814Y-59060186D01*
X108496552Y-58958729D01*
X108467222Y-58922991D01*
X108383557Y-58766466D01*
X108332037Y-58596627D01*
X108314641Y-58420000D01*
X108332037Y-58243373D01*
X108383557Y-58073534D01*
X108467222Y-57917009D01*
X108496552Y-57881271D01*
X108579814Y-57779814D01*
X108681271Y-57696552D01*
X108717009Y-57667222D01*
X108873534Y-57583557D01*
X109043373Y-57532037D01*
X109109557Y-57525519D01*
X109175740Y-57519000D01*
X109264260Y-57519000D01*
X109330443Y-57525519D01*
X109330443Y-57525519D01*
G37*
G36*
X135521000Y-56781000D02*
G01*
X133719000Y-56781000D01*
X133719000Y-54979000D01*
X135521000Y-54979000D01*
X135521000Y-56781000D01*
X135521000Y-56781000D01*
G37*
G36*
X110121000Y-56781000D02*
G01*
X108319000Y-56781000D01*
X108319000Y-54979000D01*
X110121000Y-54979000D01*
X110121000Y-56781000D01*
X110121000Y-56781000D01*
G37*
G36*
X104250442Y-49905518D02*
G01*
X104316627Y-49912037D01*
X104486466Y-49963557D01*
X104642991Y-50047222D01*
X104678729Y-50076552D01*
X104780186Y-50159814D01*
X104863448Y-50261271D01*
X104892778Y-50297009D01*
X104976443Y-50453534D01*
X105027963Y-50623373D01*
X105045359Y-50800000D01*
X105027963Y-50976627D01*
X104976443Y-51146466D01*
X104892778Y-51302991D01*
X104863448Y-51338729D01*
X104780186Y-51440186D01*
X104678729Y-51523448D01*
X104642991Y-51552778D01*
X104486466Y-51636443D01*
X104316627Y-51687963D01*
X104250442Y-51694482D01*
X104184260Y-51701000D01*
X104095740Y-51701000D01*
X104029558Y-51694482D01*
X103963373Y-51687963D01*
X103793534Y-51636443D01*
X103637009Y-51552778D01*
X103601271Y-51523448D01*
X103499814Y-51440186D01*
X103416552Y-51338729D01*
X103387222Y-51302991D01*
X103303557Y-51146466D01*
X103252037Y-50976627D01*
X103234641Y-50800000D01*
X103252037Y-50623373D01*
X103303557Y-50453534D01*
X103387222Y-50297009D01*
X103416552Y-50261271D01*
X103499814Y-50159814D01*
X103601271Y-50076552D01*
X103637009Y-50047222D01*
X103793534Y-49963557D01*
X103963373Y-49912037D01*
X104029557Y-49905519D01*
X104095740Y-49899000D01*
X104184260Y-49899000D01*
X104250442Y-49905518D01*
X104250442Y-49905518D01*
G37*
G36*
X105041000Y-49161000D02*
G01*
X103239000Y-49161000D01*
X103239000Y-47359000D01*
X105041000Y-47359000D01*
X105041000Y-49161000D01*
X105041000Y-49161000D01*
G37*
M02*
